<svg width="526" height="113" viewBox="0 0 526 113" fill="none" xmlns="http://www.w3.org/2000/svg">
<g clip-path="url(#clip0_14_4146)">
<path d="M56.1117 38.9565C63.5719 38.9565 68.1443 42.085 70.0214 46.5852L73.9681 41.2187C76.4468 37.7533 79.9844 37.5848 82.4872 40.0154C86.0247 43.4808 87.8778 51.1094 82.4872 60.1098C77.0966 69.6396 59.6493 88.5308 59.6493 100.13C59.6493 102.729 60.4675 104.293 62.5612 104.293C70.0214 104.293 80.4176 92.5015 87.2521 81.239C89.5383 77.7736 91.3913 77.6052 93.485 81.239C94.3272 82.8033 95.5546 87.4719 92.6667 92.5015C87.2761 102.031 73.9922 111.224 61.3339 111.224C50.9618 111.224 44.9455 106.724 43.285 100.299C37.2687 105.16 27.9314 110.526 19.629 110.526C7.37978 110.526 0.737793 103.066 0.737793 92.8625C0.737793 85.4023 4.46789 75.704 11.9522 67.0406C28.5571 47.1146 45.5712 38.9565 56.1599 38.9565H56.1117ZM48.8441 77.7736C56.93 65.9817 60.6841 57.5108 60.6841 52.9865C60.6841 50.9169 60.275 49.6896 58.1813 49.6896C54.0421 49.6896 39.6993 60.6152 29.1347 74.8136C22.9018 82.9476 19.3883 92.1405 19.3883 97.6755C19.3883 100.804 20.2306 102.874 22.3002 102.874C29.1588 102.874 38.6886 92.309 48.8681 77.7496L48.8441 77.7736Z" fill="#333333"/>
<path d="M156.343 22.4959C149.917 43.1198 127.296 63.5752 109.031 73.7788C104.867 82.6107 102.172 90.4078 102.172 96.4722C102.172 100.636 103.423 103.571 106.119 103.571C115.673 103.571 127.705 91.9721 135.599 79.4822C138.294 75.1505 142.866 75.1505 144.31 79.6507C145.152 82.2497 144.936 86.2446 142.241 90.9132C139.136 96.1113 123.759 110.31 106.335 110.31C93.6771 110.31 85.7837 104.245 85.7837 92.2849C85.7837 89.349 86.1928 85.8836 87.2276 82.4182C95.3135 53.6603 118.777 21.6055 139.112 3.74917C143.059 0.452237 146.789 -0.582565 150.736 2.54591C155.308 5.84283 157.594 10.6799 157.594 15.2042C157.594 17.6348 157.378 19.5359 156.343 22.4719V22.4959ZM132.687 36.189C127.296 43.8177 118.151 56.8129 116.707 59.7488C125.636 52.4811 132.687 44.4915 137.452 37.7532C144.503 27.8865 147.198 20.2579 145.971 19.56C145.152 19.2231 139.738 25.9613 132.687 36.189Z" fill="#333333"/>
<path d="M172.13 48.6546C172.13 50.0504 171.914 51.5905 171.505 53.3232C180.433 46.0555 192.056 39.4617 198.698 39.4617C205.34 39.4617 209.696 45.6946 209.696 52.9863C219.033 46.0555 230.031 40.1596 236.673 40.328C242.689 40.4965 246.01 45.1892 246.01 50.8926C246.01 56.5961 241.655 64.7542 233.136 75.6798C227.312 83.14 221.921 90.7446 221.921 96.833C221.921 100.828 223.991 103.595 227.312 103.595C233.737 103.595 243.917 91.4665 251.594 80.9019C253.471 78.3029 255.54 78.1344 257.417 79.6986C259.703 81.5998 259.92 88.1936 257.417 92.1644C251.594 102.224 236.866 110.887 223.991 110.887C209.889 110.887 202.188 104.486 202.188 95.1244C202.188 91.9959 203.006 88.1936 205.292 83.8619C208.613 77.966 215.472 68.6046 220.237 62.3717C224.809 56.6442 229.79 51.4461 228.13 51.4461C226.469 51.4461 222.114 53.1788 209.865 63.4065C193.669 76.9311 183.706 93.3917 174.994 109.491C172.924 112.788 170.013 113.294 166.692 110.526C163.587 107.927 162.119 105.496 162.119 100.996C162.119 98.0604 163.78 92.5013 165.849 88.1696C168.761 81.9367 175.596 72.5754 181.203 65.3077C186.81 57.5106 192.61 50.9167 190.757 50.9167C189.096 50.9167 181.01 54.719 168.545 66.174C156.921 76.5702 147.367 92.3328 139.281 108.288C137.837 111.056 135.551 112.09 132.014 109.491C129.102 107.422 127.032 104.293 127.032 100.298C127.032 97.8678 127.658 94.9319 129.318 90.9371C133.674 80.5409 148.619 56.4517 161.277 40.328C163.972 37.0311 167.077 37.1996 169.17 40.328C171.047 42.9271 172.082 45.863 172.082 48.6546H172.13Z" fill="#333333"/>
<path d="M412.878 92.5017C407.271 102.368 391.917 111.032 378.85 111.032C365.782 111.032 358.924 105.136 358.924 96.1355C358.924 93.007 359.766 89.2047 361.619 84.7045C365.349 76.0411 372.208 67.0407 376.973 60.0859C378.633 57.6553 382.772 50.5561 382.171 50.5561C380.294 50.5561 371.173 55.0562 359.55 65.8134C348.961 75.5116 338.589 93.007 330.503 108.264C329.251 110.526 326.34 112.259 323.043 109.131C320.347 106.7 318.687 103.764 318.687 99.7693C318.687 97.3387 319.529 94.0418 320.973 90.769C322.85 86.2688 326.58 78.8086 330.936 71.7093C326.58 73.442 324.077 73.442 318.903 73.442C313.513 90.432 298.159 110.358 277.391 110.358C270.749 110.358 263.072 108.288 257.465 101.863C253.735 97.3628 251.858 92.1647 251.858 86.6057C251.858 78.8086 254.962 70.482 260.569 62.5165C268.463 51.0855 281.53 40.8578 294.598 39.9915C300.831 39.462 306.438 42.0611 310.168 46.0559C311.828 47.7886 312.863 48.6549 313.705 49.3528C317.652 52.8182 320.347 56.2836 320.347 67.2092C330.527 64.7786 343.594 52.8182 352.932 41.3872C355.627 38.4513 358.539 38.4513 360.825 41.0503C362.702 43.6494 363.737 46.7778 363.737 49.5453C363.737 50.4117 363.737 51.6149 363.52 52.6738C372.232 45.9115 383.23 40.0155 389.463 40.0155C395.07 40.0155 401.086 46.0799 401.086 52.6738C401.086 54.5749 400.677 57.0055 399.209 59.6046C397.139 62.9015 394.227 67.5701 390.906 71.9019C387.369 76.5705 382.387 84.3676 380.318 88.0255C378.248 91.8278 377.213 95.2932 377.213 98.0848C377.213 101.55 378.657 103.812 381.786 103.812C388.211 103.812 399.835 92.2129 407.511 80.9504C409.172 78.5198 412.276 78.5198 413.937 80.9504C415.188 83.02 416.223 87.0148 412.902 92.5498L412.878 92.5017ZM272.578 101.695C277.969 101.526 286.897 95.2932 294.164 83.6697C297.269 78.8086 299.772 73.803 301.432 70.1451C295.825 67.2092 290.434 61.4816 288.557 56.6205C284.201 60.2543 280.038 65.1155 276.525 69.9526C271.134 77.7497 267.813 87.448 267.813 94.0418C267.813 99.0714 269.69 101.67 272.578 101.67V101.695ZM307.039 54.214C307.039 51.6149 305.379 50.5801 303.935 50.5801C302.684 50.5801 300.831 51.9759 300.831 54.7434C300.831 57.8719 301.865 62.3721 304.152 64.6101C306.221 60.6153 307.063 56.4761 307.063 54.214H307.039Z" fill="#333333"/>
<path d="M409.556 76.9071C413.696 68.4121 421.589 54.719 429.891 42.2532C423.466 41.5554 419.712 39.6542 418.051 37.5846C415.14 33.9508 417.209 32.2181 421.998 32.3865C426.763 32.555 432.37 32.3865 436.943 32.0496C443.368 22.6883 447.724 16.9848 452.513 11.2573C455.617 7.45501 458.12 7.62347 460.406 10.9204C461.85 12.99 462.692 15.95 462.692 18.0196C462.692 21.1481 461.85 25.1188 459.371 29.98C465.797 30.6779 469.334 33.4454 470.778 35.515C472.848 38.6435 471.404 40.7131 466.422 40.1836C462.692 39.8467 457.302 40.1836 452.729 40.7131C444.836 51.9756 433.02 69.134 425.752 82.2977C423.25 86.9663 422.022 91.4906 422.022 95.2929C422.022 100.491 424.092 104.125 427.629 104.125C435.715 104.125 446.521 93.1992 453.788 80.204C456.074 76.0407 460.839 75.7038 462.307 80.3725C463.342 84.0063 462.524 86.6053 460.238 90.6002C457.326 95.7982 443.416 110.695 425.993 110.695C414.995 110.695 405.441 103.234 405.441 91.2981C405.441 87.4958 406.693 82.6346 409.605 76.9071H409.556Z" fill="#333333"/>
<path d="M486.758 84.5362C481.776 84.5362 476.795 83.3329 472.03 80.7339C470.778 84.1993 470.153 87.8331 470.153 90.9616C470.153 98.5902 473.883 103.957 480.116 103.957C495.878 103.957 509.788 91.13 518.307 80.397C520.593 77.6295 523.288 77.2685 524.949 80.7339C525.575 82.2981 525.767 87.3278 522.037 91.9964C513.326 102.561 496.721 110.719 480.525 110.888C461.224 111.056 450.636 100.491 450.636 86.6299C450.636 80.397 452.705 73.6347 457.061 66.7039C467.842 48.3422 484.664 39.1493 496.696 39.1493C499.608 39.1493 501.895 39.4862 503.964 40.5451C509.788 43.3126 513.927 46.0801 516.839 49.5454C518.09 51.1097 518.909 53.7087 518.909 55.9468C518.909 66.3429 504.999 84.5362 486.733 84.5362H486.758ZM474.917 74.14C476.578 75.0064 478.022 75.3433 479.49 75.3433C484.471 75.3433 491.113 70.1452 495.253 65.4766C501.269 58.7143 505.625 50.5802 503.338 49.016C500.234 46.9464 484.856 57.511 474.893 74.14H474.917Z" fill="#333333"/>
</g>
<defs>
<clipPath id="clip0_14_4146">
<rect width="524.621" height="111.614" fill="white" transform="translate(0.689697 0.692871)"/>
</clipPath>
</defs>
</svg>
