<svg width="4" height="4" viewBox="0 0 4 4" fill="none" xmlns="http://www.w3.org/2000/svg">
<path d="M2 0.523804C2.32 0.523804 2.608 0.598471 2.864 0.747804C3.12 0.897137 3.32267 1.0998 3.472 1.3558C3.62133 1.6118 3.696 1.8998 3.696 2.2198C3.696 2.52914 3.62133 2.81714 3.472 3.0838C3.32267 3.3398 3.12 3.54247 2.864 3.6918C2.608 3.84114 2.32 3.9158 2 3.9158C1.69067 3.9158 1.40267 3.84114 1.136 3.6918C0.88 3.54247 0.677334 3.3398 0.528 3.0838C0.378667 2.81714 0.304 2.52914 0.304 2.2198C0.304 1.8998 0.378667 1.6118 0.528 1.3558C0.677334 1.0998 0.88 0.897137 1.136 0.747804C1.40267 0.598471 1.69067 0.523804 2 0.523804Z" fill="#333333"/>
</svg>
