<svg width="275" height="102" viewBox="0 0 275 102" fill="none" xmlns="http://www.w3.org/2000/svg">
<path d="M122.65 52H72.5459C69.0232 52 67.259 56.259 69.7499 58.7499L84.9167 73.9167C86.4609 75.4609 86.4609 77.9644 84.9167 79.5086L69.7499 94.6754C67.259 97.1662 69.0232 101.425 72.5459 101.425H122.65C123.698 101.425 124.704 101.009 125.445 100.267L146.204 79.5086C147.748 77.9644 147.748 75.4609 146.204 73.9167L125.445 53.1581C124.704 52.4166 123.698 52 122.65 52Z" fill="#F1F0EC"/>
<path d="M99.924 68.04C100.031 68.056 100.145 68.0667 100.268 68.072C100.391 68.0773 100.516 68.08 100.644 68.08C100.724 68.08 100.868 68.08 101.076 68.08C101.289 68.08 101.529 68.08 101.796 68.08C102.068 68.08 102.337 68.08 102.604 68.08C102.876 68.08 103.119 68.08 103.332 68.08C103.545 68.08 103.697 68.08 103.788 68.08C103.916 68.08 104.044 68.0773 104.172 68.072C104.3 68.0667 104.415 68.056 104.516 68.04V68.704C104.42 68.6933 104.305 68.688 104.172 68.688C104.044 68.6827 103.913 68.68 103.78 68.68C103.689 68.68 103.537 68.68 103.324 68.68C103.116 68.68 102.879 68.68 102.612 68.68C102.345 68.68 102.076 68.68 101.804 68.68C101.537 68.68 101.297 68.68 101.084 68.68C100.876 68.68 100.729 68.68 100.644 68.68C100.521 68.68 100.399 68.6827 100.276 68.688C100.153 68.6933 100.036 68.6987 99.924 68.704V68.04ZM105.1 70.152C105.084 70.184 105.063 70.224 105.036 70.272C105.015 70.3147 105.001 70.352 104.996 70.384C104.889 70.7787 104.743 71.176 104.556 71.576C104.369 71.9707 104.127 72.3307 103.828 72.656C103.407 73.1147 102.951 73.472 102.46 73.728C101.975 73.984 101.476 74.184 100.964 74.328L100.468 73.76C101.033 73.6427 101.559 73.4587 102.044 73.208C102.529 72.9573 102.943 72.6533 103.284 72.296C103.529 72.04 103.729 71.7547 103.884 71.44C104.044 71.12 104.161 70.816 104.236 70.528C104.177 70.528 104.065 70.528 103.9 70.528C103.74 70.528 103.543 70.528 103.308 70.528C103.073 70.528 102.82 70.528 102.548 70.528C102.281 70.528 102.009 70.528 101.732 70.528C101.46 70.528 101.204 70.528 100.964 70.528C100.729 70.528 100.524 70.528 100.348 70.528C100.177 70.528 100.057 70.528 99.988 70.528C99.892 70.528 99.7747 70.5307 99.636 70.536C99.4973 70.536 99.3533 70.5413 99.204 70.552V69.88C99.3533 69.896 99.4947 69.9093 99.628 69.92C99.7613 69.9253 99.8813 69.928 99.988 69.928C100.047 69.928 100.159 69.928 100.324 69.928C100.489 69.928 100.689 69.928 100.924 69.928C101.159 69.928 101.412 69.928 101.684 69.928C101.956 69.928 102.228 69.928 102.5 69.928C102.772 69.928 103.025 69.928 103.26 69.928C103.495 69.928 103.695 69.928 103.86 69.928C104.031 69.928 104.145 69.928 104.204 69.928C104.295 69.928 104.38 69.9227 104.46 69.912C104.54 69.9013 104.601 69.8853 104.644 69.864L105.1 70.152ZM112.812 68.68C112.785 68.7387 112.761 68.8 112.74 68.864C112.724 68.928 112.708 69 112.692 69.08C112.649 69.2933 112.593 69.528 112.524 69.784C112.455 70.0347 112.369 70.296 112.268 70.568C112.172 70.8347 112.057 71.096 111.924 71.352C111.796 71.6027 111.655 71.8293 111.5 72.032C111.255 72.3413 110.983 72.632 110.684 72.904C110.385 73.1707 110.044 73.4107 109.66 73.624C109.276 73.8373 108.839 74.0213 108.348 74.176L107.804 73.576C108.327 73.4427 108.777 73.2827 109.156 73.096C109.54 72.904 109.876 72.6853 110.164 72.44C110.452 72.1947 110.705 71.9307 110.924 71.648C111.116 71.408 111.281 71.1333 111.42 70.824C111.564 70.5147 111.681 70.2053 111.772 69.896C111.868 69.5813 111.935 69.296 111.972 69.04C111.897 69.04 111.756 69.04 111.548 69.04C111.34 69.04 111.095 69.04 110.812 69.04C110.529 69.04 110.233 69.04 109.924 69.04C109.62 69.04 109.327 69.04 109.044 69.04C108.761 69.04 108.516 69.04 108.308 69.04C108.1 69.04 107.959 69.04 107.884 69.04C107.724 69.04 107.577 69.0427 107.444 69.048C107.311 69.0533 107.191 69.0587 107.084 69.064V68.36C107.159 68.3653 107.241 68.3733 107.332 68.384C107.423 68.3947 107.516 68.4027 107.612 68.408C107.708 68.408 107.799 68.408 107.884 68.408C107.948 68.408 108.063 68.408 108.228 68.408C108.393 68.408 108.588 68.408 108.812 68.408C109.041 68.408 109.284 68.408 109.54 68.408C109.801 68.408 110.057 68.408 110.308 68.408C110.564 68.408 110.801 68.408 111.02 68.408C111.244 68.408 111.433 68.408 111.588 68.408C111.743 68.408 111.847 68.408 111.9 68.408C111.959 68.408 112.025 68.408 112.1 68.408C112.175 68.4027 112.249 68.3893 112.324 68.368L112.812 68.68ZM91.8853 82.96C91.8853 82.4373 91.9493 81.9493 92.0773 81.496C92.2106 81.0427 92.3973 80.6213 92.6373 80.232C92.8773 79.8373 93.1573 79.4773 93.4773 79.152L93.9573 79.4C93.6533 79.7147 93.3893 80.0587 93.1653 80.432C92.9413 80.8 92.768 81.1947 92.6453 81.616C92.528 82.032 92.4693 82.48 92.4693 82.96C92.4693 83.4347 92.528 83.8827 92.6453 84.304C92.768 84.7253 92.9413 85.12 93.1653 85.488C93.3893 85.856 93.6533 86.2 93.9573 86.52L93.4773 86.768C93.1573 86.4373 92.8773 86.0773 92.6373 85.688C92.3973 85.2987 92.2106 84.8773 92.0773 84.424C91.9493 83.9653 91.8853 83.4773 91.8853 82.96ZM97.0613 86.104C96.7626 86.104 96.4853 86.0613 96.2293 85.976C95.9733 85.8907 95.7493 85.7493 95.5573 85.552C95.3706 85.3547 95.224 85.0933 95.1173 84.768C95.0106 84.4427 94.9573 84.048 94.9573 83.584V80.136H95.6933V83.6C95.6933 84.0693 95.7546 84.44 95.8773 84.712C96 84.9787 96.1626 85.1707 96.3653 85.288C96.5733 85.4 96.8053 85.456 97.0613 85.456C97.3226 85.456 97.5573 85.4 97.7653 85.288C97.9733 85.1707 98.1386 84.9787 98.2613 84.712C98.3893 84.44 98.4533 84.0693 98.4533 83.6V80.136H99.1653V83.584C99.1653 84.048 99.112 84.4427 99.0053 84.768C98.904 85.0933 98.7573 85.3547 98.5653 85.552C98.3733 85.7493 98.1493 85.8907 97.8933 85.976C97.6373 86.0613 97.36 86.104 97.0613 86.104ZM100.595 86V80.136H101.331V86H100.595ZM102.395 80.992H104.955V81.56H102.395V80.992ZM103.523 79.28H104.083V86.632H103.523V79.28ZM103.515 81.352L103.883 81.472C103.824 81.792 103.747 82.1227 103.651 82.464C103.56 82.8053 103.453 83.1413 103.331 83.472C103.208 83.8027 103.08 84.112 102.947 84.4C102.813 84.6827 102.675 84.9227 102.531 85.12C102.499 85.0453 102.451 84.9573 102.387 84.856C102.323 84.7547 102.267 84.6693 102.219 84.6C102.352 84.4187 102.483 84.2027 102.611 83.952C102.744 83.7013 102.867 83.4293 102.979 83.136C103.096 82.8427 103.2 82.544 103.291 82.24C103.381 81.936 103.456 81.64 103.515 81.352ZM104.043 82.12C104.091 82.1733 104.163 82.2667 104.259 82.4C104.355 82.528 104.456 82.6693 104.563 82.824C104.675 82.9787 104.776 83.1253 104.867 83.264C104.957 83.3973 105.021 83.4907 105.059 83.544L104.723 84.016C104.68 83.92 104.616 83.7973 104.531 83.648C104.451 83.4933 104.363 83.3333 104.267 83.168C104.171 83.0027 104.077 82.8507 103.987 82.712C103.901 82.568 103.835 82.456 103.787 82.376L104.043 82.12ZM105.739 81.168H108.795V81.68H105.739V81.168ZM107.251 79.824C107.101 80.048 106.912 80.2773 106.683 80.512C106.453 80.7413 106.2 80.9627 105.923 81.176C105.651 81.384 105.365 81.5653 105.067 81.72C105.04 81.6453 104.995 81.56 104.931 81.464C104.872 81.368 104.819 81.288 104.771 81.224C105.069 81.0853 105.357 80.912 105.635 80.704C105.912 80.4907 106.163 80.264 106.387 80.024C106.616 79.7787 106.803 79.536 106.947 79.296H107.499C107.691 79.5573 107.912 79.8107 108.163 80.056C108.419 80.296 108.688 80.512 108.971 80.704C109.253 80.896 109.533 81.0533 109.811 81.176C109.752 81.2453 109.693 81.3307 109.635 81.432C109.576 81.528 109.528 81.616 109.491 81.696C109.219 81.5573 108.941 81.3867 108.659 81.184C108.376 80.9813 108.112 80.7627 107.867 80.528C107.627 80.2933 107.421 80.0587 107.251 79.824ZM105.755 82.904V84H108.755V82.904H105.755ZM105.219 82.424H109.307V84.488H105.219V82.424ZM106.955 81.48H107.507V83.6C107.507 83.8827 107.475 84.1707 107.411 84.464C107.352 84.752 107.235 85.032 107.059 85.304C106.883 85.5707 106.629 85.8213 106.299 86.056C105.968 86.2907 105.536 86.4987 105.003 86.68C104.987 86.632 104.957 86.5787 104.915 86.52C104.877 86.4667 104.835 86.4107 104.787 86.352C104.744 86.2987 104.704 86.256 104.667 86.224C105.173 86.064 105.579 85.8827 105.883 85.68C106.192 85.4773 106.421 85.2613 106.571 85.032C106.725 84.8027 106.827 84.5653 106.875 84.32C106.928 84.0747 106.955 83.8293 106.955 83.584V81.48ZM107.587 84.184C107.747 84.5787 107.928 84.9013 108.131 85.152C108.333 85.4027 108.571 85.6053 108.843 85.76C109.115 85.9147 109.421 86.0507 109.763 86.168C109.688 86.232 109.616 86.3093 109.547 86.4C109.483 86.496 109.435 86.5893 109.403 86.68C109.035 86.536 108.704 86.368 108.411 86.176C108.123 85.984 107.869 85.7387 107.651 85.44C107.432 85.136 107.24 84.752 107.075 84.288L107.587 84.184ZM115.955 79.28H116.547V85.808C116.547 86.0213 116.517 86.1787 116.459 86.28C116.405 86.3867 116.312 86.4667 116.179 86.52C116.051 86.568 115.867 86.5973 115.627 86.608C115.387 86.624 115.093 86.632 114.747 86.632C114.741 86.5787 114.725 86.512 114.699 86.432C114.677 86.3573 114.651 86.28 114.619 86.2C114.592 86.1253 114.563 86.0587 114.531 86C114.808 86.0107 115.061 86.016 115.291 86.016C115.52 86.016 115.675 86.0133 115.755 86.008C115.829 86.008 115.88 85.9947 115.907 85.968C115.939 85.936 115.955 85.8827 115.955 85.808V79.28ZM113.795 82.76L114.291 82.512C114.435 82.704 114.573 82.912 114.707 83.136C114.84 83.3547 114.96 83.5707 115.067 83.784C115.179 83.9973 115.264 84.192 115.323 84.368L114.803 84.64C114.744 84.4693 114.659 84.2747 114.547 84.056C114.44 83.8373 114.32 83.616 114.187 83.392C114.059 83.1627 113.928 82.952 113.795 82.76ZM113.411 81.12H117.523V81.696H113.411V81.12ZM110.515 81.704H113.011V82.176H110.515V81.704ZM110.555 79.56H113.019V80.04H110.555V79.56ZM110.515 82.768H113.011V83.248H110.515V82.768ZM110.131 80.608H113.307V81.112H110.131V80.608ZM110.795 83.848H112.987V86.184H110.795V85.688H112.451V84.352H110.795V83.848ZM110.499 83.848H111.035V86.552H110.499V83.848ZM120.115 82.96C120.115 83.4773 120.048 83.9653 119.915 84.424C119.787 84.8773 119.603 85.2987 119.363 85.688C119.123 86.0773 118.843 86.4373 118.523 86.768L118.043 86.52C118.347 86.2 118.611 85.856 118.835 85.488C119.059 85.12 119.229 84.7253 119.347 84.304C119.469 83.8827 119.531 83.4347 119.531 82.96C119.531 82.48 119.469 82.032 119.347 81.616C119.229 81.1947 119.059 80.8 118.835 80.432C118.611 80.0587 118.347 79.7147 118.043 79.4L118.523 79.152C118.843 79.4773 119.123 79.8373 119.363 80.232C119.603 80.6213 119.787 81.0427 119.915 81.496C120.048 81.9493 120.115 82.4373 120.115 82.96Z" fill="black"/>
<path d="M59.6495 0H9.54586C6.0232 0 4.25904 4.25904 6.74994 6.74994L21.9167 21.9167C23.4609 23.4609 23.4609 25.9644 21.9167 27.5086L6.74994 42.6754C4.25904 45.1662 6.0232 49.4253 9.54586 49.4253H59.6495C60.6982 49.4253 61.7039 49.0087 62.4455 48.2672L83.2041 27.5086C84.7482 25.9644 84.7482 23.4609 83.2041 21.9167L62.4455 1.15811C61.7039 0.416583 60.6982 0 59.6495 0Z" fill="#F1F0EC"/>
<path d="M29.084 21.296H29.636V22.184H29.084V21.296ZM27.748 21.904H30.98V22.376H27.748V21.904ZM27.572 23.272H31.052V23.768H27.572V23.272ZM31.244 23.272H34.892V23.768H31.244V23.272ZM32.676 21.296H33.244V22.184H32.676V21.296ZM31.356 21.904H34.748V22.376H31.356V21.904ZM28.468 24.664V25.656H30.196V24.664H28.468ZM27.94 24.184H30.748V26.136H27.94V24.184ZM32.076 24.656V25.68H33.908V24.656H32.076ZM31.524 24.184H34.484V26.16H31.524V24.184ZM29.604 26H30.14V27.696L29.604 27.904V26ZM29.372 27.704C29.5853 27.64 29.836 27.5573 30.124 27.456C30.4173 27.3493 30.7213 27.24 31.036 27.128L31.132 27.624C30.8547 27.736 30.58 27.8427 30.308 27.944C30.036 28.0453 29.7773 28.144 29.532 28.24L29.372 27.704ZM28.22 22.424L28.684 22.328C28.7533 22.472 28.812 22.6293 28.86 22.8C28.9133 22.9653 28.948 23.1093 28.964 23.232L28.476 23.336C28.4653 23.2133 28.436 23.0667 28.388 22.896C28.34 22.7253 28.284 22.568 28.22 22.424ZM30.02 22.304L30.532 22.432C30.468 22.6027 30.4067 22.768 30.348 22.928C30.2947 23.088 30.2387 23.2293 30.18 23.352L29.716 23.232C29.764 23.104 29.8173 22.952 29.876 22.776C29.94 22.6 29.988 22.4427 30.02 22.304ZM31.812 22.424L32.284 22.312C32.3587 22.4507 32.4227 22.608 32.476 22.784C32.5347 22.9547 32.5747 23.104 32.596 23.232L32.092 23.352C32.076 23.2293 32.0413 23.08 31.988 22.904C31.94 22.728 31.8813 22.568 31.812 22.424ZM33.7 22.28L34.244 22.416C34.164 22.5813 34.0867 22.7493 34.012 22.92C33.9373 23.0853 33.8653 23.2293 33.796 23.352L33.332 23.224C33.396 23.0907 33.4627 22.9333 33.532 22.752C33.6013 22.5707 33.6573 22.4133 33.7 22.28ZM32.012 26.024H32.548C32.5213 26.4613 32.4573 26.848 32.356 27.184C32.26 27.52 32.0973 27.808 31.868 28.048C31.644 28.288 31.324 28.488 30.908 28.648C30.876 28.5787 30.828 28.4987 30.764 28.408C30.7 28.3173 30.6387 28.248 30.58 28.2C30.9533 28.072 31.2387 27.9093 31.436 27.712C31.6333 27.5147 31.772 27.2773 31.852 27C31.9373 26.7173 31.9907 26.392 32.012 26.024ZM28.476 26H29.004C28.9827 26.4213 28.9347 26.8 28.86 27.136C28.7907 27.4667 28.6733 27.7573 28.508 28.008C28.3427 28.2587 28.1027 28.4693 27.788 28.64C27.7667 28.5973 27.7347 28.5467 27.692 28.488C27.6547 28.4347 27.612 28.3813 27.564 28.328C27.5213 28.28 27.4787 28.24 27.436 28.208C27.7133 28.0693 27.9213 27.896 28.06 27.688C28.204 27.48 28.3053 27.2373 28.364 26.96C28.4227 26.6773 28.46 26.3573 28.476 26ZM33.14 26.008H33.684V27.816C33.684 27.848 33.6867 27.8747 33.692 27.896C33.7027 27.9173 33.7187 27.9333 33.74 27.944C33.788 27.9707 33.8467 27.984 33.916 27.984C33.948 27.984 33.9907 27.984 34.044 27.984C34.1027 27.984 34.1507 27.984 34.188 27.984C34.2893 27.984 34.364 27.9707 34.412 27.944C34.428 27.928 34.4467 27.9067 34.468 27.88C34.4893 27.8533 34.5027 27.8187 34.508 27.776C34.5187 27.7067 34.5267 27.6 34.532 27.456C34.5427 27.3067 34.5453 27.1413 34.54 26.96C34.5933 27.008 34.6653 27.0587 34.756 27.112C34.852 27.1653 34.94 27.2027 35.02 27.224C35.0147 27.416 35.004 27.6027 34.988 27.784C34.972 27.96 34.9533 28.0827 34.932 28.152C34.884 28.296 34.7987 28.4 34.676 28.464C34.628 28.4907 34.564 28.512 34.484 28.528C34.404 28.544 34.324 28.552 34.244 28.552C34.1907 28.552 34.1133 28.552 34.012 28.552C33.9107 28.552 33.836 28.552 33.788 28.552C33.7027 28.552 33.6147 28.5413 33.524 28.52C33.4387 28.4987 33.364 28.464 33.3 28.416C33.2413 28.3573 33.1987 28.288 33.172 28.208C33.1507 28.128 33.14 27.9973 33.14 27.816V26.008ZM37.06 23.896H41.1V24.432H37.06V23.896ZM36.916 27.776H41.204V28.312H36.916V27.776ZM36.644 25.44H41.54V28.648H40.932V25.984H37.236V28.648H36.644V25.44ZM39.06 21.888C38.8413 22.2133 38.556 22.5493 38.204 22.896C37.8573 23.2427 37.4707 23.576 37.044 23.896C36.6227 24.216 36.1827 24.4987 35.724 24.744C35.6973 24.7013 35.6627 24.6507 35.62 24.592C35.5773 24.5333 35.532 24.4747 35.484 24.416C35.436 24.3573 35.3907 24.3093 35.348 24.272C35.8173 24.032 36.268 23.7467 36.7 23.416C37.1373 23.0853 37.5293 22.736 37.876 22.368C38.228 22 38.508 21.6427 38.716 21.296H39.332C39.5453 21.5947 39.788 21.8853 40.06 22.168C40.3373 22.4507 40.6307 22.7173 40.94 22.968C41.2547 23.2187 41.5747 23.448 41.9 23.656C42.2307 23.8587 42.5533 24.0293 42.868 24.168C42.7987 24.2427 42.7293 24.328 42.66 24.424C42.5907 24.52 42.5267 24.6133 42.468 24.704C42.1533 24.5333 41.836 24.3413 41.516 24.128C41.196 23.9147 40.884 23.6853 40.58 23.44C40.276 23.1893 39.9933 22.9333 39.732 22.672C39.4707 22.4053 39.2467 22.144 39.06 21.888ZM47.188 22.984H49.356V23.456H47.188V22.984ZM47.116 24.216H49.468V24.688H47.116V24.216ZM48.012 22.296H48.5V24.496H48.012V22.296ZM46.532 21.616H50.028V22.136H46.532V21.616ZM47.484 25.296H49.308V27.368H47.484V26.904H48.844V25.76H47.484V25.296ZM47.236 25.296H47.692V27.688H47.236V25.296ZM49.804 21.616H50.364V27.88C50.364 28.056 50.3427 28.1947 50.3 28.296C50.2573 28.3973 50.1773 28.4747 50.06 28.528C49.9533 28.576 49.7987 28.6053 49.596 28.616C49.3933 28.6267 49.1427 28.632 48.844 28.632C48.8333 28.584 48.8173 28.5227 48.796 28.448C48.78 28.3787 48.7587 28.3067 48.732 28.232C48.7107 28.1573 48.6867 28.0933 48.66 28.04C48.8787 28.0453 49.0813 28.048 49.268 28.048C49.4547 28.048 49.58 28.048 49.644 28.048C49.708 28.0427 49.7507 28.0293 49.772 28.008C49.7933 27.9867 49.804 27.944 49.804 27.88V21.616ZM46.228 21.616H46.772V24.488C46.772 24.8027 46.764 25.1413 46.748 25.504C46.732 25.8667 46.6973 26.2373 46.644 26.616C46.596 26.9893 46.5213 27.3547 46.42 27.712C46.3187 28.0693 46.1853 28.3947 46.02 28.688C45.988 28.656 45.9427 28.616 45.884 28.568C45.8253 28.5253 45.764 28.4853 45.7 28.448C45.6413 28.4107 45.5907 28.3813 45.548 28.36C45.7613 27.9867 45.9133 27.576 46.004 27.128C46.1 26.68 46.1613 26.2267 46.188 25.768C46.2147 25.304 46.228 24.8773 46.228 24.488V21.616ZM43.556 23.704H45.612V24.176H43.556V23.704ZM43.612 21.56H45.596V22.04H43.612V21.56ZM43.556 24.768H45.612V25.248H43.556V24.768ZM43.228 22.608H45.82V23.112H43.228V22.608ZM43.836 25.848H45.604V28.176H43.836V27.68H45.108V26.344H43.836V25.848ZM43.548 25.848H44.044V28.552H43.548V25.848ZM51.204 27.928H58.356V28.472H51.204V27.928ZM52.844 25.864H56.708V26.312H52.844V25.864ZM52.844 26.888H56.708V27.344H52.844V26.888ZM52.548 24.784H57.012V28.216H56.396V25.288H53.14V28.248H52.548V24.784ZM51.228 22.296H58.324V22.824H51.228V22.296ZM54.452 21.28H55.044V24.528H54.452V21.28ZM54.108 22.456L54.596 22.656C54.42 22.912 54.212 23.1627 53.972 23.408C53.732 23.648 53.4707 23.8747 53.188 24.088C52.9053 24.296 52.6173 24.4853 52.324 24.656C52.0307 24.8267 51.7373 24.968 51.444 25.08C51.4013 25.0107 51.3427 24.9307 51.268 24.84C51.1933 24.744 51.124 24.6693 51.06 24.616C51.3427 24.5147 51.6307 24.3893 51.924 24.24C52.2173 24.0853 52.5 23.912 52.772 23.72C53.044 23.528 53.2947 23.3253 53.524 23.112C53.7533 22.8987 53.948 22.68 54.108 22.456ZM55.38 22.472C55.54 22.6907 55.7373 22.904 55.972 23.112C56.2067 23.32 56.46 23.5147 56.732 23.696C57.0093 23.8773 57.2973 24.0427 57.596 24.192C57.8947 24.336 58.1907 24.4533 58.484 24.544C58.4413 24.5813 58.3933 24.6293 58.34 24.688C58.292 24.7467 58.2467 24.8053 58.204 24.864C58.1613 24.9227 58.124 24.9787 58.092 25.032C57.7933 24.92 57.492 24.7813 57.188 24.616C56.8893 24.4507 56.5987 24.2667 56.316 24.064C56.0387 23.856 55.7773 23.6347 55.532 23.4C55.2867 23.1653 55.076 22.92 54.9 22.664L55.38 22.472Z" fill="black"/>
<path d="M122.65 0H72.5459C69.0232 0 67.259 4.25904 69.7499 6.74994L84.9167 21.9167C86.4609 23.4609 86.4609 25.9644 84.9167 27.5086L69.7499 42.6754C67.259 45.1662 69.0232 49.4253 72.5459 49.4253H122.65C123.698 49.4253 124.704 49.0087 125.445 48.2672L146.204 27.5086C147.748 25.9644 147.748 23.4609 146.204 21.9167L125.445 1.15811C124.704 0.416583 123.698 0 122.65 0Z" fill="#F1F0EC"/>
<path d="M93.644 14.864H96.836V15.32H93.644V14.864ZM92.9 10.904H97.652V11.368H92.9V10.904ZM93.092 11.88H97.452V12.32H93.092V11.88ZM92.66 12.872H97.892V13.336H92.66V12.872ZM93.652 15.928H96.86V16.384H93.652V15.928ZM93.236 13.8H96.828V14.264H93.796V17.632H93.236V13.8ZM96.692 13.8H97.26V16.968C97.26 17.1173 97.2387 17.2347 97.196 17.32C97.1587 17.4053 97.084 17.4693 96.972 17.512C96.86 17.56 96.7107 17.5867 96.524 17.592C96.3373 17.6027 96.1027 17.608 95.82 17.608C95.8093 17.5333 95.7853 17.4453 95.748 17.344C95.716 17.248 95.6813 17.1627 95.644 17.088C95.8467 17.0933 96.0333 17.096 96.204 17.096C96.38 17.1013 96.4947 17.1013 96.548 17.096C96.644 17.0907 96.692 17.0453 96.692 16.96V13.8ZM94.948 10.28H95.54V13.016H94.948V10.28ZM91.444 10.28H91.988V17.632H91.444V10.28ZM90.812 11.824L91.26 11.88C91.2493 12.088 91.228 12.3227 91.196 12.584C91.1693 12.84 91.132 13.096 91.084 13.352C91.036 13.608 90.98 13.8373 90.916 14.04L90.444 13.88C90.508 13.6987 90.564 13.488 90.612 13.248C90.66 13.008 90.7 12.7627 90.732 12.512C90.7693 12.2613 90.796 12.032 90.812 11.824ZM92.06 11.608L92.46 11.448C92.5507 11.6293 92.6387 11.8293 92.724 12.048C92.8093 12.2613 92.8707 12.44 92.908 12.584L92.484 12.792C92.4467 12.6373 92.388 12.448 92.308 12.224C92.228 12 92.1453 11.7947 92.06 11.608ZM102.524 13.368H105.148V13.864H102.524V13.368ZM102.228 10.648H105.084V11.192H102.78V17.648H102.228V10.648ZM104.796 10.648H105.356V12.192C105.356 12.3413 105.335 12.4587 105.292 12.544C105.255 12.6293 105.175 12.696 105.052 12.744C104.929 12.7867 104.764 12.8133 104.556 12.824C104.353 12.8293 104.095 12.832 103.78 12.832C103.769 12.752 103.745 12.664 103.708 12.568C103.676 12.4667 103.639 12.3787 103.596 12.304C103.767 12.3093 103.921 12.3147 104.06 12.32C104.204 12.32 104.327 12.32 104.428 12.32C104.529 12.32 104.599 12.3173 104.636 12.312C104.705 12.3067 104.748 12.296 104.764 12.28C104.785 12.264 104.796 12.2347 104.796 12.192V10.648ZM103.308 13.696C103.452 14.1973 103.647 14.6747 103.892 15.128C104.137 15.576 104.423 15.976 104.748 16.328C105.079 16.68 105.447 16.9547 105.852 17.152C105.783 17.2053 105.708 17.28 105.628 17.376C105.548 17.4773 105.484 17.5653 105.436 17.64C105.025 17.4053 104.652 17.096 104.316 16.712C103.985 16.328 103.695 15.888 103.444 15.392C103.199 14.896 102.996 14.3733 102.836 13.824L103.308 13.696ZM104.964 13.368H105.068L105.172 13.344L105.548 13.48C105.441 14.056 105.281 14.608 105.068 15.136C104.86 15.664 104.596 16.144 104.276 16.576C103.961 17.0027 103.591 17.3627 103.164 17.656C103.116 17.5867 103.052 17.512 102.972 17.432C102.897 17.3573 102.825 17.296 102.756 17.248C103.161 16.9813 103.513 16.6507 103.812 16.256C104.111 15.856 104.356 15.4187 104.548 14.944C104.745 14.4693 104.884 13.9893 104.964 13.504V13.368ZM98.692 11.104H101.66V11.616H98.692V11.104ZM98.604 15.472H101.764V15.992H98.604V15.472ZM98.412 12.424H101.972V12.944H98.412V12.424ZM98.524 14.08H101.868V14.6H98.524V14.08ZM99.924 10.288H100.484V12.608H99.924V10.288ZM99.924 14.304H100.484V17.624H99.924V14.304ZM101.004 12.912L101.524 13.04C101.444 13.232 101.364 13.4267 101.284 13.624C101.209 13.816 101.132 13.9813 101.052 14.12L100.612 13.992C100.655 13.8907 100.7 13.776 100.748 13.648C100.801 13.52 100.849 13.392 100.892 13.264C100.94 13.1307 100.977 13.0133 101.004 12.912ZM98.964 13.04L99.42 12.92C99.516 13.0907 99.5987 13.2773 99.668 13.48C99.7373 13.6827 99.78 13.8533 99.796 13.992L99.316 14.136C99.3 13.992 99.2573 13.8187 99.188 13.616C99.124 13.408 99.0493 13.216 98.964 13.04ZM106.836 14.72H113.044V15.216H106.836V14.72ZM106.38 10.8H110.068V11.24H106.38V10.8ZM109.948 15.832H112.516V16.296H109.948V15.832ZM106.3 16.96H113.572V17.464H106.3V16.96ZM109.62 14.904H110.212V17.2H109.62V14.904ZM107.956 10.28H108.492V14.504H107.956V10.28ZM107.62 15.576H108.196V17.232H107.62V15.576ZM107.108 12.048V12.712H109.364V12.048H107.108ZM106.612 11.648H109.876V13.112H106.612V11.648ZM108.492 13.088C108.561 13.12 108.663 13.1707 108.796 13.24C108.929 13.304 109.071 13.3733 109.22 13.448C109.375 13.5227 109.516 13.5947 109.644 13.664C109.777 13.728 109.873 13.7787 109.932 13.816L109.636 14.216C109.561 14.1627 109.46 14.096 109.332 14.016C109.209 13.936 109.076 13.8533 108.932 13.768C108.788 13.6827 108.649 13.6053 108.516 13.536C108.383 13.4613 108.273 13.4027 108.188 13.36L108.492 13.088ZM111.06 10.28L111.604 10.4C111.471 10.864 111.284 11.3013 111.044 11.712C110.809 12.1173 110.545 12.4587 110.252 12.736C110.231 12.6987 110.193 12.6533 110.14 12.6C110.092 12.5467 110.041 12.496 109.988 12.448C109.935 12.3947 109.887 12.352 109.844 12.32C110.127 12.08 110.372 11.7813 110.58 11.424C110.788 11.0667 110.948 10.6853 111.06 10.28ZM110.916 11.176H113.54V11.664H110.668L110.916 11.176ZM112.516 11.392L113.076 11.456C112.879 12.2667 112.529 12.9147 112.028 13.4C111.532 13.88 110.911 14.256 110.164 14.528C110.143 14.4853 110.111 14.4373 110.068 14.384C110.031 14.3307 109.988 14.2747 109.94 14.216C109.892 14.1573 109.847 14.1147 109.804 14.088C110.524 13.8693 111.113 13.544 111.572 13.112C112.036 12.68 112.351 12.1067 112.516 11.392ZM110.98 11.464C111.097 11.8 111.271 12.1413 111.5 12.488C111.729 12.8293 112.023 13.1413 112.38 13.424C112.743 13.7067 113.175 13.9253 113.676 14.08C113.617 14.1333 113.553 14.208 113.484 14.304C113.42 14.4 113.369 14.4827 113.332 14.552C112.831 14.3653 112.396 14.12 112.028 13.816C111.665 13.5067 111.364 13.1707 111.124 12.808C110.889 12.44 110.711 12.0827 110.588 11.736L110.98 11.464ZM107.908 12.904L108.3 13.08C108.167 13.256 108.004 13.4347 107.812 13.616C107.62 13.7973 107.417 13.968 107.204 14.128C106.991 14.2827 106.788 14.408 106.596 14.504C106.559 14.4453 106.505 14.3787 106.436 14.304C106.367 14.2293 106.303 14.168 106.244 14.12C106.436 14.04 106.636 13.9333 106.844 13.8C107.052 13.6667 107.249 13.5227 107.436 13.368C107.628 13.2133 107.785 13.0587 107.908 12.904ZM117.58 12.68V13.712H120.548V12.68H117.58ZM117.58 11.176V12.192H120.548V11.176H117.58ZM117.028 10.648H121.124V14.232H117.028V10.648ZM116.932 15.176H121.236V15.72H116.932V15.176ZM116.316 16.824H121.508V17.376H116.316V16.824ZM114.14 10.816H116.636V11.384H114.14V10.816ZM114.22 13.136H116.516V13.696H114.22V13.136ZM114.052 16.2C114.271 16.136 114.516 16.064 114.788 15.984C115.065 15.8987 115.356 15.8053 115.66 15.704C115.969 15.5973 116.279 15.4933 116.588 15.392L116.692 15.976C116.26 16.12 115.825 16.2667 115.388 16.416C114.951 16.56 114.556 16.6907 114.204 16.808L114.052 16.2ZM115.132 11.04H115.708V16L115.132 16.112V11.04ZM118.804 10.896H119.324V13.976H119.372V17.072H118.756V13.976H118.804V10.896ZM93.7375 22.57C93.8375 22.57 93.9275 22.5933 94.0075 22.64C94.0875 22.6867 94.1508 22.75 94.1975 22.83C94.2442 22.91 94.2675 23 94.2675 23.1C94.2675 23.1967 94.2442 23.2867 94.1975 23.37C94.1508 23.45 94.0875 23.5133 94.0075 23.56C93.9275 23.6067 93.8375 23.63 93.7375 23.63C93.6408 23.63 93.5508 23.6067 93.4675 23.56C93.3875 23.5133 93.3242 23.45 93.2775 23.37C93.2308 23.2867 93.2075 23.1967 93.2075 23.1C93.2075 23 93.2308 22.91 93.2775 22.83C93.3242 22.75 93.3875 22.6867 93.4675 22.64C93.5508 22.5933 93.6408 22.57 93.7375 22.57ZM96.4625 23.885H100.843V24.205H96.4625V23.885ZM96.4775 21.69H100.823V22.01H96.4775V21.69ZM96.6825 22.55H100.643V22.86H96.6825V22.55ZM96.9325 23.225H100.398V23.515H96.9325V23.225ZM98.4475 22.695H98.8225V25.4H98.4475V22.695ZM97.9875 20.795H98.3425V21.845H97.9875V20.795ZM98.9375 20.795H99.2975V21.825H98.9375V20.795ZM98.3275 24.015L98.6275 24.155C98.4742 24.325 98.2842 24.4867 98.0575 24.64C97.8308 24.79 97.5892 24.9217 97.3325 25.035C97.0758 25.1517 96.8225 25.245 96.5725 25.315C96.5558 25.2817 96.5325 25.245 96.5025 25.205C96.4758 25.1683 96.4475 25.13 96.4175 25.09C96.3875 25.0533 96.3575 25.0233 96.3275 25C96.5742 24.9433 96.8242 24.865 97.0775 24.765C97.3308 24.665 97.5675 24.55 97.7875 24.42C98.0075 24.29 98.1875 24.155 98.3275 24.015ZM98.9375 24.005C99.0442 24.115 99.1725 24.2217 99.3225 24.325C99.4758 24.4283 99.6425 24.5233 99.8225 24.61C100.006 24.6967 100.194 24.7733 100.388 24.84C100.581 24.9033 100.773 24.9567 100.963 25C100.936 25.0267 100.906 25.0583 100.873 25.095C100.843 25.135 100.813 25.175 100.783 25.215C100.753 25.2583 100.729 25.2967 100.713 25.33C100.523 25.2767 100.329 25.21 100.133 25.13C99.9392 25.05 99.7508 24.9583 99.5675 24.855C99.3875 24.7517 99.2175 24.6383 99.0575 24.515C98.9008 24.3917 98.7642 24.2633 98.6475 24.13L98.9375 24.005ZM100.098 20.86L100.483 20.965C100.409 21.0983 100.331 21.235 100.248 21.375C100.164 21.5117 100.088 21.63 100.018 21.73L99.7125 21.625C99.7592 21.555 99.8058 21.475 99.8525 21.385C99.9025 21.295 99.9492 21.2033 99.9925 21.11C100.036 21.0167 100.071 20.9333 100.098 20.86ZM99.4275 21.915L99.8125 22.015C99.7525 22.125 99.6908 22.235 99.6275 22.345C99.5642 22.4517 99.5042 22.5467 99.4475 22.63L99.1375 22.535C99.1875 22.445 99.2392 22.3417 99.2925 22.225C99.3492 22.1083 99.3942 22.005 99.4275 21.915ZM96.8825 20.96L97.2025 20.85C97.2892 20.96 97.3725 21.085 97.4525 21.225C97.5358 21.365 97.5958 21.4867 97.6325 21.59L97.2925 21.72C97.2592 21.6167 97.2025 21.4933 97.1225 21.35C97.0458 21.2067 96.9658 21.0767 96.8825 20.96ZM97.5375 22.045L97.8925 21.98C97.9492 22.06 98.0025 22.1517 98.0525 22.255C98.1058 22.355 98.1425 22.4433 98.1625 22.52L97.7925 22.595C97.7725 22.5217 97.7375 22.4333 97.6875 22.33C97.6408 22.2233 97.5908 22.1283 97.5375 22.045ZM101.333 21.05H103.038V21.375H101.333V21.05ZM103.268 23.605H105.433V23.93H103.268V23.605ZM101.278 22.56H103.158V22.895H101.278V22.56ZM102.158 22.695H102.518V24.965C102.518 25.0583 102.506 25.1317 102.483 25.185C102.459 25.2417 102.414 25.2867 102.348 25.32C102.284 25.3467 102.201 25.3633 102.098 25.37C101.998 25.3767 101.871 25.38 101.718 25.38C101.711 25.3333 101.696 25.275 101.673 25.205C101.653 25.1383 101.629 25.08 101.603 25.03C101.713 25.0333 101.811 25.035 101.898 25.035C101.988 25.0383 102.048 25.0383 102.078 25.035C102.108 25.0317 102.128 25.025 102.138 25.015C102.151 25.005 102.158 24.9867 102.158 24.96V22.695ZM105.308 23.605H105.688C105.688 23.605 105.686 23.625 105.683 23.665C105.683 23.705 105.681 23.74 105.678 23.77C105.648 24.08 105.614 24.335 105.578 24.535C105.544 24.7317 105.509 24.885 105.473 24.995C105.436 25.105 105.393 25.185 105.343 25.235C105.299 25.2817 105.253 25.3133 105.203 25.33C105.156 25.35 105.098 25.3633 105.028 25.37C104.971 25.3733 104.893 25.375 104.793 25.375C104.693 25.375 104.584 25.3717 104.468 25.365C104.464 25.3117 104.454 25.2517 104.438 25.185C104.421 25.1217 104.398 25.065 104.368 25.015C104.478 25.025 104.578 25.0317 104.668 25.035C104.758 25.0383 104.823 25.04 104.863 25.04C104.906 25.04 104.939 25.0367 104.963 25.03C104.989 25.0233 105.014 25.01 105.038 24.99C105.071 24.9533 105.104 24.8867 105.138 24.79C105.171 24.6933 105.201 24.5533 105.228 24.37C105.258 24.1867 105.284 23.95 105.308 23.66V23.605ZM104.198 23.11H104.573C104.549 23.36 104.511 23.6 104.458 23.83C104.408 24.06 104.329 24.2733 104.223 24.47C104.119 24.6667 103.978 24.8433 103.798 25C103.618 25.1567 103.386 25.29 103.103 25.4C103.083 25.3567 103.051 25.305 103.008 25.245C102.964 25.1883 102.923 25.1433 102.883 25.11C103.143 25.0133 103.354 24.8967 103.518 24.76C103.681 24.62 103.808 24.465 103.898 24.295C103.991 24.1217 104.059 23.935 104.103 23.735C104.146 23.535 104.178 23.3267 104.198 23.11ZM101.508 21.885L101.743 21.64C101.886 21.6967 102.033 21.7667 102.183 21.85C102.336 21.93 102.479 22.0133 102.613 22.1C102.749 22.1833 102.859 22.2633 102.943 22.34L102.693 22.615C102.613 22.5383 102.506 22.455 102.373 22.365C102.243 22.275 102.101 22.1883 101.948 22.105C101.798 22.0183 101.651 21.945 101.508 21.885ZM103.058 22.56H103.113L103.168 22.54L103.403 22.62C103.349 22.83 103.286 23.0467 103.213 23.27C103.143 23.49 103.068 23.6767 102.988 23.83L102.728 23.7C102.791 23.5667 102.853 23.4 102.913 23.2C102.973 22.9967 103.021 22.805 103.058 22.625V22.56ZM105.063 21.475L105.453 21.54C105.339 21.8433 105.183 22.1033 104.983 22.32C104.786 22.5367 104.554 22.72 104.288 22.87C104.024 23.02 103.734 23.145 103.418 23.245C103.404 23.2183 103.384 23.185 103.358 23.145C103.331 23.1017 103.301 23.0617 103.268 23.025C103.238 22.985 103.209 22.9533 103.183 22.93C103.489 22.8533 103.768 22.7517 104.018 22.625C104.271 22.495 104.486 22.3367 104.663 22.15C104.843 21.96 104.976 21.735 105.063 21.475ZM103.998 20.795L104.353 20.895C104.276 21.0717 104.183 21.2433 104.073 21.41C103.963 21.5733 103.846 21.7267 103.723 21.87C103.599 22.0133 103.474 22.1383 103.348 22.245C103.324 22.225 103.294 22.2017 103.258 22.175C103.221 22.145 103.183 22.1167 103.143 22.09C103.103 22.0633 103.068 22.0417 103.038 22.025C103.234 21.8783 103.418 21.6983 103.588 21.485C103.758 21.2683 103.894 21.0383 103.998 20.795ZM103.908 21.585C104.028 21.8017 104.186 22.0017 104.383 22.185C104.579 22.3683 104.806 22.525 105.063 22.655C105.323 22.7817 105.603 22.8767 105.903 22.94C105.876 22.9667 105.846 22.9983 105.813 23.035C105.783 23.0717 105.754 23.11 105.728 23.15C105.701 23.19 105.678 23.2267 105.658 23.26C105.354 23.1767 105.071 23.0617 104.808 22.915C104.544 22.765 104.309 22.5867 104.103 22.38C103.896 22.1733 103.726 21.9433 103.593 21.69L103.908 21.585ZM102.108 22.665L102.363 22.76C102.303 22.98 102.223 23.2067 102.123 23.44C102.026 23.6733 101.918 23.89 101.798 24.09C101.681 24.29 101.556 24.455 101.423 24.585C101.403 24.535 101.373 24.4767 101.333 24.41C101.296 24.34 101.261 24.2817 101.228 24.235C101.351 24.1217 101.469 23.98 101.583 23.81C101.696 23.6367 101.798 23.4517 101.888 23.255C101.981 23.055 102.054 22.8583 102.108 22.665ZM103.888 21.325H105.793V21.645H103.728L103.888 21.325ZM102.948 21.05H103.033L103.093 21.035L103.338 21.19C103.261 21.3033 103.169 21.42 103.063 21.54C102.956 21.6567 102.843 21.7683 102.723 21.875C102.603 21.9783 102.486 22.0683 102.373 22.145C102.339 22.115 102.298 22.0833 102.248 22.05C102.198 22.0133 102.154 21.985 102.118 21.965C102.224 21.8917 102.329 21.8067 102.433 21.71C102.539 21.6133 102.638 21.5133 102.728 21.41C102.821 21.3033 102.894 21.2067 102.948 21.12V21.05ZM110.258 21.675C110.241 21.7117 110.226 21.75 110.213 21.79C110.203 21.83 110.193 21.875 110.183 21.925C110.156 22.0583 110.121 22.205 110.078 22.365C110.034 22.5217 109.981 22.685 109.918 22.855C109.858 23.0217 109.786 23.185 109.703 23.345C109.623 23.5017 109.534 23.6433 109.438 23.77C109.284 23.9633 109.114 24.145 108.928 24.315C108.741 24.4817 108.528 24.6317 108.288 24.765C108.048 24.8983 107.774 25.0133 107.468 25.11L107.128 24.735C107.454 24.6517 107.736 24.5517 107.973 24.435C108.213 24.315 108.423 24.1783 108.603 24.025C108.783 23.8717 108.941 23.7067 109.078 23.53C109.198 23.38 109.301 23.2083 109.388 23.015C109.478 22.8217 109.551 22.6283 109.608 22.435C109.668 22.2383 109.709 22.06 109.733 21.9C109.686 21.9 109.598 21.9 109.468 21.9C109.338 21.9 109.184 21.9 109.008 21.9C108.831 21.9 108.646 21.9 108.453 21.9C108.263 21.9 108.079 21.9 107.903 21.9C107.726 21.9 107.573 21.9 107.443 21.9C107.313 21.9 107.224 21.9 107.178 21.9C107.078 21.9 106.986 21.9017 106.903 21.905C106.819 21.9083 106.744 21.9117 106.678 21.915V21.475C106.724 21.4783 106.776 21.4833 106.833 21.49C106.889 21.4967 106.948 21.5017 107.008 21.505C107.068 21.505 107.124 21.505 107.178 21.505C107.218 21.505 107.289 21.505 107.393 21.505C107.496 21.505 107.618 21.505 107.758 21.505C107.901 21.505 108.053 21.505 108.213 21.505C108.376 21.505 108.536 21.505 108.693 21.505C108.853 21.505 109.001 21.505 109.138 21.505C109.278 21.505 109.396 21.505 109.493 21.505C109.589 21.505 109.654 21.505 109.688 21.505C109.724 21.505 109.766 21.505 109.813 21.505C109.859 21.5017 109.906 21.4933 109.953 21.48L110.258 21.675ZM111.588 21.575C111.688 21.5783 111.773 21.5817 111.843 21.585C111.913 21.585 111.976 21.585 112.033 21.585C112.073 21.585 112.146 21.585 112.253 21.585C112.359 21.585 112.488 21.585 112.638 21.585C112.791 21.585 112.954 21.585 113.128 21.585C113.301 21.585 113.473 21.585 113.643 21.585C113.816 21.585 113.978 21.585 114.128 21.585C114.278 21.585 114.404 21.585 114.508 21.585C114.611 21.585 114.681 21.585 114.718 21.585C114.771 21.585 114.838 21.585 114.918 21.585C115.001 21.5817 115.081 21.5783 115.158 21.575C115.154 21.635 115.151 21.7 115.148 21.77C115.148 21.8367 115.148 21.9017 115.148 21.965C115.148 21.9983 115.148 22.065 115.148 22.165C115.148 22.2617 115.148 22.38 115.148 22.52C115.148 22.66 115.148 22.8117 115.148 22.975C115.148 23.135 115.148 23.295 115.148 23.455C115.148 23.615 115.148 23.7633 115.148 23.9C115.148 24.0367 115.148 24.1533 115.148 24.25C115.148 24.3433 115.148 24.4033 115.148 24.43C115.148 24.4667 115.148 24.5167 115.148 24.58C115.148 24.6433 115.148 24.7067 115.148 24.77C115.151 24.8333 115.153 24.89 115.153 24.94C115.156 24.9867 115.158 25.0183 115.158 25.035H114.728C114.728 25.015 114.728 24.975 114.728 24.915C114.731 24.8517 114.733 24.7817 114.733 24.705C114.736 24.625 114.738 24.55 114.738 24.48C114.738 24.4567 114.738 24.3933 114.738 24.29C114.738 24.1867 114.738 24.06 114.738 23.91C114.738 23.7567 114.738 23.5933 114.738 23.42C114.738 23.2433 114.738 23.0717 114.738 22.905C114.738 22.735 114.738 22.58 114.738 22.44C114.738 22.3 114.738 22.1883 114.738 22.105C114.738 22.0217 114.738 21.98 114.738 21.98H112.003C112.003 21.98 112.003 22.0217 112.003 22.105C112.003 22.185 112.003 22.295 112.003 22.435C112.003 22.575 112.003 22.73 112.003 22.9C112.003 23.0667 112.003 23.2367 112.003 23.41C112.003 23.5833 112.003 23.7467 112.003 23.9C112.003 24.05 112.003 24.1767 112.003 24.28C112.003 24.3833 112.003 24.45 112.003 24.48C112.003 24.5233 112.003 24.5733 112.003 24.63C112.003 24.6867 112.003 24.7433 112.003 24.8C112.006 24.8533 112.008 24.9017 112.008 24.945C112.011 24.9883 112.013 25.0183 112.013 25.035H111.583C111.583 25.0183 111.583 24.9867 111.583 24.94C111.586 24.89 111.588 24.8333 111.588 24.77C111.591 24.7067 111.593 24.645 111.593 24.585C111.593 24.5217 111.593 24.4683 111.593 24.425C111.593 24.3983 111.593 24.3367 111.593 24.24C111.593 24.1433 111.593 24.025 111.593 23.885C111.593 23.745 111.593 23.595 111.593 23.435C111.593 23.2717 111.593 23.11 111.593 22.95C111.593 22.7867 111.593 22.6367 111.593 22.5C111.593 22.36 111.593 22.2433 111.593 22.15C111.593 22.0533 111.593 21.9917 111.593 21.965C111.593 21.905 111.593 21.84 111.593 21.77C111.593 21.7 111.591 21.635 111.588 21.575ZM114.898 24.355V24.745H111.808V24.355H114.898ZM116.273 22.835C116.323 22.8383 116.384 22.8433 116.458 22.85C116.531 22.8533 116.611 22.8567 116.698 22.86C116.788 22.86 116.878 22.86 116.968 22.86C117.021 22.86 117.103 22.86 117.213 22.86C117.326 22.86 117.458 22.86 117.608 22.86C117.758 22.86 117.916 22.86 118.083 22.86C118.253 22.86 118.421 22.86 118.588 22.86C118.758 22.86 118.918 22.86 119.068 22.86C119.221 22.86 119.353 22.86 119.463 22.86C119.573 22.86 119.654 22.86 119.708 22.86C119.834 22.86 119.943 22.8567 120.033 22.85C120.123 22.8433 120.194 22.8383 120.248 22.835V23.325C120.198 23.3217 120.123 23.3167 120.023 23.31C119.926 23.3033 119.823 23.3 119.713 23.3C119.659 23.3 119.576 23.3 119.463 23.3C119.349 23.3 119.218 23.3 119.068 23.3C118.921 23.3 118.763 23.3 118.593 23.3C118.423 23.3 118.253 23.3 118.083 23.3C117.916 23.3 117.758 23.3 117.608 23.3C117.461 23.3 117.331 23.3 117.218 23.3C117.104 23.3 117.021 23.3 116.968 23.3C116.831 23.3 116.701 23.3033 116.578 23.31C116.454 23.3133 116.353 23.3183 116.273 23.325V22.835ZM93.7375 30.57C93.8375 30.57 93.9275 30.5933 94.0075 30.64C94.0875 30.6867 94.1508 30.75 94.1975 30.83C94.2442 30.91 94.2675 31 94.2675 31.1C94.2675 31.1967 94.2442 31.2867 94.1975 31.37C94.1508 31.45 94.0875 31.5133 94.0075 31.56C93.9275 31.6067 93.8375 31.63 93.7375 31.63C93.6408 31.63 93.5508 31.6067 93.4675 31.56C93.3875 31.5133 93.3242 31.45 93.2775 31.37C93.2308 31.2867 93.2075 31.1967 93.2075 31.1C93.2075 31 93.2308 30.91 93.2775 30.83C93.3242 30.75 93.3875 30.6867 93.4675 30.64C93.5508 30.5933 93.6408 30.57 93.7375 30.57ZM98.3175 29.1H100.778V29.46H98.3175V29.1ZM99.7825 30.59H100.163V32.92C100.163 33.0367 100.146 33.125 100.113 33.185C100.079 33.2483 100.021 33.2967 99.9375 33.33C99.8508 33.3567 99.7325 33.3717 99.5825 33.375C99.4358 33.3817 99.2392 33.385 98.9925 33.385C98.9858 33.335 98.9708 33.275 98.9475 33.205C98.9242 33.135 98.8975 33.0717 98.8675 33.015C98.9875 33.0183 99.1008 33.0217 99.2075 33.025C99.3142 33.0283 99.4075 33.0283 99.4875 33.025C99.5675 33.025 99.6225 33.025 99.6525 33.025C99.6992 33.0217 99.7325 33.0133 99.7525 33C99.7725 32.9833 99.7825 32.955 99.7825 32.915V30.59ZM98.0975 30.48H100.918V30.84H98.0975V30.48ZM97.1025 30.87L97.4325 30.54L97.4725 30.56V33.415H97.1025V30.87ZM97.6775 29.87L98.0325 30C97.9058 30.21 97.7592 30.42 97.5925 30.63C97.4258 30.84 97.2508 31.0367 97.0675 31.22C96.8875 31.4 96.7092 31.5617 96.5325 31.705C96.5125 31.6783 96.4858 31.645 96.4525 31.605C96.4225 31.565 96.3908 31.525 96.3575 31.485C96.3242 31.445 96.2942 31.4133 96.2675 31.39C96.4408 31.2667 96.6125 31.1233 96.7825 30.96C96.9558 30.7967 97.1192 30.6217 97.2725 30.435C97.4292 30.2483 97.5642 30.06 97.6775 29.87ZM97.4775 28.795L97.8375 28.945C97.7275 29.0883 97.5992 29.2367 97.4525 29.39C97.3092 29.54 97.1575 29.685 96.9975 29.825C96.8408 29.9617 96.6875 30.0833 96.5375 30.19C96.5208 30.1633 96.4992 30.1317 96.4725 30.095C96.4492 30.055 96.4225 30.0167 96.3925 29.98C96.3658 29.94 96.3408 29.91 96.3175 29.89C96.4575 29.7933 96.5992 29.6833 96.7425 29.56C96.8892 29.4367 97.0258 29.3083 97.1525 29.175C97.2825 29.0417 97.3908 28.915 97.4775 28.795ZM101.393 32.065H103.673V32.355H101.393V32.065ZM101.258 29.655H103.758V29.95H101.258V29.655ZM102.343 29.205H102.688V32.88H102.343V29.205ZM101.258 32.89C101.461 32.87 101.694 32.8483 101.958 32.825C102.224 32.8017 102.506 32.775 102.803 32.745C103.103 32.715 103.399 32.6833 103.693 32.65L103.698 32.945C103.414 32.9783 103.129 33.0117 102.843 33.045C102.556 33.0817 102.281 33.1133 102.018 33.14C101.758 33.17 101.521 33.1967 101.308 33.22L101.258 32.89ZM101.718 31.135V31.5H103.343V31.135H101.718ZM101.718 30.525V30.885H103.343V30.525H101.718ZM101.408 30.265H103.663V31.76H101.408V30.265ZM103.483 28.85L103.668 29.14C103.471 29.18 103.244 29.2167 102.988 29.25C102.731 29.2833 102.464 29.3117 102.188 29.335C101.914 29.355 101.653 29.3683 101.403 29.375C101.396 29.335 101.383 29.2883 101.363 29.235C101.346 29.1817 101.329 29.135 101.313 29.095C101.499 29.085 101.691 29.0733 101.888 29.06C102.088 29.0433 102.284 29.025 102.478 29.005C102.674 28.985 102.858 28.9617 103.028 28.935C103.201 28.9083 103.353 28.88 103.483 28.85ZM103.718 29.97H105.523V30.315H103.718V29.97ZM105.378 29.97H105.738C105.738 29.97 105.738 29.9833 105.738 30.01C105.738 30.0333 105.738 30.06 105.738 30.09C105.738 30.1167 105.738 30.1383 105.738 30.155C105.724 30.685 105.709 31.1317 105.693 31.495C105.679 31.855 105.663 32.15 105.643 32.38C105.623 32.61 105.598 32.7883 105.568 32.915C105.541 33.0383 105.506 33.1267 105.463 33.18C105.419 33.2467 105.371 33.2933 105.318 33.32C105.264 33.3467 105.201 33.3633 105.128 33.37C105.058 33.38 104.968 33.3833 104.858 33.38C104.748 33.38 104.633 33.3783 104.513 33.375C104.509 33.3217 104.498 33.26 104.478 33.19C104.458 33.1233 104.433 33.065 104.403 33.015C104.526 33.025 104.639 33.03 104.743 33.03C104.846 33.0333 104.921 33.035 104.968 33.035C105.008 33.035 105.041 33.03 105.068 33.02C105.094 33.01 105.119 32.99 105.143 32.96C105.176 32.92 105.204 32.8417 105.228 32.725C105.251 32.605 105.271 32.4333 105.288 32.21C105.304 31.9867 105.319 31.6983 105.333 31.345C105.349 30.9917 105.364 30.5617 105.378 30.055V29.97ZM104.323 28.865H104.688C104.684 29.2617 104.678 29.645 104.668 30.015C104.661 30.385 104.639 30.7367 104.603 31.07C104.566 31.4033 104.504 31.715 104.418 32.005C104.334 32.295 104.216 32.56 104.063 32.8C103.913 33.0367 103.718 33.245 103.478 33.425C103.461 33.395 103.436 33.3633 103.403 33.33C103.369 33.2967 103.334 33.2633 103.298 33.23C103.264 33.2 103.233 33.175 103.203 33.155C103.429 32.9917 103.614 32.8 103.758 32.58C103.901 32.3567 104.011 32.11 104.088 31.84C104.168 31.5667 104.223 31.2733 104.253 30.96C104.286 30.6433 104.306 30.31 104.313 29.96C104.319 29.6067 104.323 29.2417 104.323 28.865ZM110.258 29.675C110.241 29.7117 110.226 29.75 110.213 29.79C110.203 29.83 110.193 29.875 110.183 29.925C110.156 30.0583 110.121 30.205 110.078 30.365C110.034 30.5217 109.981 30.685 109.918 30.855C109.858 31.0217 109.786 31.185 109.703 31.345C109.623 31.5017 109.534 31.6433 109.438 31.77C109.284 31.9633 109.114 32.145 108.928 32.315C108.741 32.4817 108.528 32.6317 108.288 32.765C108.048 32.8983 107.774 33.0133 107.468 33.11L107.128 32.735C107.454 32.6517 107.736 32.5517 107.973 32.435C108.213 32.315 108.423 32.1783 108.603 32.025C108.783 31.8717 108.941 31.7067 109.078 31.53C109.198 31.38 109.301 31.2083 109.388 31.015C109.478 30.8217 109.551 30.6283 109.608 30.435C109.668 30.2383 109.709 30.06 109.733 29.9C109.686 29.9 109.598 29.9 109.468 29.9C109.338 29.9 109.184 29.9 109.008 29.9C108.831 29.9 108.646 29.9 108.453 29.9C108.263 29.9 108.079 29.9 107.903 29.9C107.726 29.9 107.573 29.9 107.443 29.9C107.313 29.9 107.224 29.9 107.178 29.9C107.078 29.9 106.986 29.9017 106.903 29.905C106.819 29.9083 106.744 29.9117 106.678 29.915V29.475C106.724 29.4783 106.776 29.4833 106.833 29.49C106.889 29.4967 106.948 29.5017 107.008 29.505C107.068 29.505 107.124 29.505 107.178 29.505C107.218 29.505 107.289 29.505 107.393 29.505C107.496 29.505 107.618 29.505 107.758 29.505C107.901 29.505 108.053 29.505 108.213 29.505C108.376 29.505 108.536 29.505 108.693 29.505C108.853 29.505 109.001 29.505 109.138 29.505C109.278 29.505 109.396 29.505 109.493 29.505C109.589 29.505 109.654 29.505 109.688 29.505C109.724 29.505 109.766 29.505 109.813 29.505C109.859 29.5017 109.906 29.4933 109.953 29.48L110.258 29.675ZM111.588 29.575C111.688 29.5783 111.773 29.5817 111.843 29.585C111.913 29.585 111.976 29.585 112.033 29.585C112.073 29.585 112.146 29.585 112.253 29.585C112.359 29.585 112.488 29.585 112.638 29.585C112.791 29.585 112.954 29.585 113.128 29.585C113.301 29.585 113.473 29.585 113.643 29.585C113.816 29.585 113.978 29.585 114.128 29.585C114.278 29.585 114.404 29.585 114.508 29.585C114.611 29.585 114.681 29.585 114.718 29.585C114.771 29.585 114.838 29.585 114.918 29.585C115.001 29.5817 115.081 29.5783 115.158 29.575C115.154 29.635 115.151 29.7 115.148 29.77C115.148 29.8367 115.148 29.9017 115.148 29.965C115.148 29.9983 115.148 30.065 115.148 30.165C115.148 30.2617 115.148 30.38 115.148 30.52C115.148 30.66 115.148 30.8117 115.148 30.975C115.148 31.135 115.148 31.295 115.148 31.455C115.148 31.615 115.148 31.7633 115.148 31.9C115.148 32.0367 115.148 32.1533 115.148 32.25C115.148 32.3433 115.148 32.4033 115.148 32.43C115.148 32.4667 115.148 32.5167 115.148 32.58C115.148 32.6433 115.148 32.7067 115.148 32.77C115.151 32.8333 115.153 32.89 115.153 32.94C115.156 32.9867 115.158 33.0183 115.158 33.035H114.728C114.728 33.015 114.728 32.975 114.728 32.915C114.731 32.8517 114.733 32.7817 114.733 32.705C114.736 32.625 114.738 32.55 114.738 32.48C114.738 32.4567 114.738 32.3933 114.738 32.29C114.738 32.1867 114.738 32.06 114.738 31.91C114.738 31.7567 114.738 31.5933 114.738 31.42C114.738 31.2433 114.738 31.0717 114.738 30.905C114.738 30.735 114.738 30.58 114.738 30.44C114.738 30.3 114.738 30.1883 114.738 30.105C114.738 30.0217 114.738 29.98 114.738 29.98H112.003C112.003 29.98 112.003 30.0217 112.003 30.105C112.003 30.185 112.003 30.295 112.003 30.435C112.003 30.575 112.003 30.73 112.003 30.9C112.003 31.0667 112.003 31.2367 112.003 31.41C112.003 31.5833 112.003 31.7467 112.003 31.9C112.003 32.05 112.003 32.1767 112.003 32.28C112.003 32.3833 112.003 32.45 112.003 32.48C112.003 32.5233 112.003 32.5733 112.003 32.63C112.003 32.6867 112.003 32.7433 112.003 32.8C112.006 32.8533 112.008 32.9017 112.008 32.945C112.011 32.9883 112.013 33.0183 112.013 33.035H111.583C111.583 33.0183 111.583 32.9867 111.583 32.94C111.586 32.89 111.588 32.8333 111.588 32.77C111.591 32.7067 111.593 32.645 111.593 32.585C111.593 32.5217 111.593 32.4683 111.593 32.425C111.593 32.3983 111.593 32.3367 111.593 32.24C111.593 32.1433 111.593 32.025 111.593 31.885C111.593 31.745 111.593 31.595 111.593 31.435C111.593 31.2717 111.593 31.11 111.593 30.95C111.593 30.7867 111.593 30.6367 111.593 30.5C111.593 30.36 111.593 30.2433 111.593 30.15C111.593 30.0533 111.593 29.9917 111.593 29.965C111.593 29.905 111.593 29.84 111.593 29.77C111.593 29.7 111.591 29.635 111.588 29.575ZM114.898 32.355V32.745H111.808V32.355H114.898ZM116.273 30.835C116.323 30.8383 116.384 30.8433 116.458 30.85C116.531 30.8533 116.611 30.8567 116.698 30.86C116.788 30.86 116.878 30.86 116.968 30.86C117.021 30.86 117.103 30.86 117.213 30.86C117.326 30.86 117.458 30.86 117.608 30.86C117.758 30.86 117.916 30.86 118.083 30.86C118.253 30.86 118.421 30.86 118.588 30.86C118.758 30.86 118.918 30.86 119.068 30.86C119.221 30.86 119.353 30.86 119.463 30.86C119.573 30.86 119.654 30.86 119.708 30.86C119.834 30.86 119.943 30.8567 120.033 30.85C120.123 30.8433 120.194 30.8383 120.248 30.835V31.325C120.198 31.3217 120.123 31.3167 120.023 31.31C119.926 31.3033 119.823 31.3 119.713 31.3C119.659 31.3 119.576 31.3 119.463 31.3C119.349 31.3 119.218 31.3 119.068 31.3C118.921 31.3 118.763 31.3 118.593 31.3C118.423 31.3 118.253 31.3 118.083 31.3C117.916 31.3 117.758 31.3 117.608 31.3C117.461 31.3 117.331 31.3 117.218 31.3C117.104 31.3 117.021 31.3 116.968 31.3C116.831 31.3 116.701 31.3033 116.578 31.31C116.454 31.3133 116.353 31.3183 116.273 31.325V30.835ZM93.7375 38.57C93.8375 38.57 93.9275 38.5933 94.0075 38.64C94.0875 38.6867 94.1508 38.75 94.1975 38.83C94.2442 38.91 94.2675 39 94.2675 39.1C94.2675 39.1967 94.2442 39.2867 94.1975 39.37C94.1508 39.45 94.0875 39.5133 94.0075 39.56C93.9275 39.6067 93.8375 39.63 93.7375 39.63C93.6408 39.63 93.5508 39.6067 93.4675 39.56C93.3875 39.5133 93.3242 39.45 93.2775 39.37C93.2308 39.2867 93.2075 39.1967 93.2075 39.1C93.2075 39 93.2308 38.91 93.2775 38.83C93.3242 38.75 93.3875 38.6867 93.4675 38.64C93.5508 38.5933 93.6408 38.57 93.7375 38.57ZM96.7875 40.73H100.498V41.085H96.7875V40.73ZM96.4325 37.125H100.858V37.48H96.4325V37.125ZM96.5875 37.98H96.9525V41.4H96.5875V37.98ZM100.348 37.98H100.713V41.385H100.348V37.98ZM98.4325 37.235H98.8125V38.2H98.4325V37.235ZM98.4575 38.175H98.7925V40.155H98.4575V38.175ZM97.7475 39.31V39.97H99.5075V39.31H97.7475ZM97.7475 38.355V39.01H99.5075V38.355H97.7475ZM97.4275 38.04H99.8375V40.29H97.4275V38.04ZM102.823 39.025H104.198V39.33H102.823V39.025ZM102.823 39.895H104.208V40.2H102.823V39.895ZM101.798 40.785H105.328V41.135H101.798V40.785ZM101.568 38.12H105.528V41.4H105.148V38.47H101.928V41.4H101.568V38.12ZM102.648 38.335H102.993V40.95H102.648V38.335ZM104.053 38.335H104.398V40.935H104.053V38.335ZM103.298 37.295L103.738 37.4C103.684 37.5667 103.631 37.7383 103.578 37.915C103.524 38.0917 103.473 38.2433 103.423 38.37L103.083 38.27C103.109 38.18 103.136 38.0783 103.163 37.965C103.193 37.8517 103.219 37.7367 103.243 37.62C103.269 37.5 103.288 37.3917 103.298 37.295ZM101.338 37.13H105.773V37.49H101.338V37.13ZM107.168 38.785V40.56H106.813V39.135H106.178V38.785H107.168ZM107.168 40.355C107.284 40.5517 107.449 40.7 107.663 40.8C107.879 40.9 108.141 40.955 108.448 40.965C108.584 40.9683 108.753 40.9717 108.953 40.975C109.153 40.975 109.364 40.975 109.588 40.975C109.811 40.9717 110.024 40.9667 110.228 40.96C110.434 40.9533 110.613 40.945 110.763 40.935C110.749 40.9617 110.734 40.9967 110.718 41.04C110.701 41.0833 110.686 41.1267 110.673 41.17C110.659 41.2133 110.649 41.2533 110.643 41.29C110.506 41.2967 110.341 41.3017 110.148 41.305C109.958 41.3117 109.758 41.315 109.548 41.315C109.341 41.315 109.141 41.3133 108.948 41.31C108.758 41.31 108.591 41.3083 108.448 41.305C108.108 41.2917 107.823 41.2333 107.593 41.13C107.363 41.03 107.169 40.8767 107.013 40.67C106.906 40.7833 106.796 40.8967 106.683 41.01C106.573 41.1267 106.459 41.2433 106.343 41.36L106.138 41.01C106.244 40.9233 106.361 40.8217 106.488 40.705C106.614 40.5883 106.733 40.4717 106.843 40.355H107.168ZM106.208 37.09L106.498 36.9C106.598 36.98 106.699 37.07 106.803 37.17C106.906 37.27 106.999 37.37 107.083 37.47C107.166 37.57 107.231 37.665 107.278 37.755L106.968 37.965C106.924 37.8783 106.861 37.7833 106.778 37.68C106.698 37.5767 106.608 37.4733 106.508 37.37C106.411 37.2667 106.311 37.1733 106.208 37.09ZM107.913 37.785V38.21H110.138V37.785H107.913ZM107.578 37.545H110.483V38.45H107.578V37.545ZM107.413 36.99H110.673V37.265H107.413V36.99ZM107.353 38.715H110.693V38.995H107.353V38.715ZM108.423 37.09H108.728V38.37H108.423V37.09ZM109.258 37.09H109.563V38.37H109.258V37.09ZM108.508 38.305L108.843 38.37C108.716 38.7167 108.529 39.015 108.283 39.265C108.036 39.5117 107.761 39.7133 107.458 39.87C107.441 39.8467 107.418 39.82 107.388 39.79C107.358 39.76 107.326 39.73 107.293 39.7C107.263 39.67 107.234 39.6467 107.208 39.63C107.508 39.4933 107.773 39.3133 108.003 39.09C108.233 38.8667 108.401 38.605 108.508 38.305ZM109.668 38.78C109.744 38.8933 109.843 39.005 109.963 39.115C110.086 39.225 110.219 39.3233 110.363 39.41C110.506 39.4967 110.649 39.5667 110.793 39.62C110.756 39.65 110.716 39.6917 110.673 39.745C110.629 39.795 110.594 39.8417 110.568 39.885C110.421 39.8183 110.273 39.7333 110.123 39.63C109.976 39.5233 109.839 39.4067 109.713 39.28C109.586 39.15 109.479 39.0167 109.393 38.88L109.668 38.78ZM108.178 39.825H109.488V39.51H108.068V39.28H109.808V40.055H108.178V39.825ZM108.008 39.825H108.348V40.31C108.348 40.37 108.369 40.4083 108.413 40.425C108.459 40.4417 108.559 40.45 108.713 40.45C108.739 40.45 108.788 40.45 108.858 40.45C108.931 40.45 109.013 40.45 109.103 40.45C109.196 40.45 109.289 40.45 109.383 40.45C109.476 40.45 109.561 40.45 109.638 40.45C109.714 40.45 109.773 40.45 109.813 40.45C109.889 40.45 109.946 40.4417 109.983 40.425C110.023 40.4083 110.051 40.3717 110.068 40.315C110.084 40.255 110.096 40.1683 110.103 40.055C110.139 40.0783 110.186 40.1 110.243 40.12C110.299 40.1367 110.349 40.15 110.393 40.16C110.383 40.31 110.359 40.4267 110.323 40.51C110.289 40.59 110.234 40.645 110.158 40.675C110.084 40.705 109.981 40.72 109.848 40.72C109.824 40.72 109.774 40.72 109.698 40.72C109.621 40.72 109.531 40.72 109.428 40.72C109.324 40.72 109.221 40.72 109.118 40.72C109.014 40.72 108.924 40.72 108.848 40.72C108.771 40.72 108.721 40.72 108.698 40.72C108.521 40.72 108.383 40.71 108.283 40.69C108.183 40.6667 108.111 40.625 108.068 40.565C108.028 40.505 108.008 40.4217 108.008 40.315V39.825ZM114.068 36.8L114.443 36.87C114.299 37.1133 114.113 37.35 113.883 37.58C113.653 37.81 113.369 38.0183 113.033 38.205C113.016 38.175 112.993 38.145 112.963 38.115C112.936 38.0817 112.908 38.05 112.878 38.02C112.848 37.9867 112.819 37.9617 112.793 37.945C113.103 37.7883 113.364 37.6067 113.578 37.4C113.794 37.1933 113.958 36.9933 114.068 36.8ZM113.953 37.235H115.163V37.55H113.728L113.953 37.235ZM115.033 37.235H115.103L115.173 37.22L115.408 37.335C115.311 37.595 115.181 37.83 115.018 38.04C114.858 38.2467 114.674 38.4283 114.468 38.585C114.264 38.7417 114.044 38.8767 113.808 38.99C113.571 39.1033 113.326 39.195 113.073 39.265C113.056 39.2183 113.028 39.165 112.988 39.105C112.951 39.045 112.914 38.9983 112.878 38.965C113.111 38.9083 113.338 38.83 113.558 38.73C113.781 38.63 113.989 38.5117 114.183 38.375C114.376 38.235 114.546 38.075 114.693 37.895C114.839 37.715 114.953 37.5167 115.033 37.3V37.235ZM113.428 37.905L113.668 37.71C113.761 37.7633 113.856 37.825 113.953 37.895C114.049 37.965 114.139 38.035 114.223 38.105C114.309 38.175 114.379 38.2417 114.433 38.305L114.183 38.52C114.133 38.4567 114.064 38.3883 113.978 38.315C113.894 38.2417 113.804 38.1683 113.708 38.095C113.614 38.0217 113.521 37.9583 113.428 37.905ZM114.338 38.685L114.713 38.75C114.556 39.02 114.344 39.2833 114.078 39.54C113.814 39.7967 113.486 40.025 113.093 40.225C113.079 40.1983 113.058 40.1683 113.028 40.135C113.001 40.1017 112.973 40.07 112.943 40.04C112.913 40.0067 112.884 39.9817 112.858 39.965C113.101 39.8483 113.318 39.72 113.508 39.58C113.701 39.4367 113.868 39.2883 114.008 39.135C114.148 38.9783 114.258 38.8283 114.338 38.685ZM114.198 39.155H115.393V39.475H113.973L114.198 39.155ZM115.283 39.155H115.358L115.428 39.14L115.668 39.245C115.561 39.565 115.418 39.845 115.238 40.085C115.058 40.3217 114.848 40.5267 114.608 40.7C114.371 40.87 114.113 41.0117 113.833 41.125C113.556 41.2417 113.266 41.3333 112.963 41.4C112.946 41.3567 112.919 41.3017 112.883 41.235C112.846 41.1717 112.809 41.12 112.773 41.08C113.056 41.0267 113.328 40.95 113.588 40.85C113.851 40.75 114.093 40.6233 114.313 40.47C114.536 40.3167 114.731 40.1367 114.898 39.93C115.064 39.7233 115.193 39.4867 115.283 39.22V39.155ZM113.538 39.91L113.798 39.695C113.901 39.755 114.009 39.8233 114.123 39.9C114.236 39.9767 114.341 40.055 114.438 40.135C114.534 40.215 114.613 40.2883 114.673 40.355L114.403 40.59C114.346 40.52 114.269 40.445 114.173 40.365C114.079 40.285 113.978 40.205 113.868 40.125C113.758 40.0417 113.648 39.97 113.538 39.91ZM111.918 37.215H112.288V41.39H111.918V37.215ZM111.103 38.21H112.913V38.56H111.103V38.21ZM111.938 38.345L112.173 38.445C112.123 38.6217 112.061 38.805 111.988 38.995C111.914 39.1817 111.834 39.3683 111.748 39.555C111.664 39.7383 111.574 39.9117 111.478 40.075C111.384 40.235 111.289 40.3717 111.193 40.485C111.173 40.435 111.143 40.3767 111.103 40.31C111.066 40.2433 111.031 40.1867 110.998 40.14C111.091 40.04 111.183 39.92 111.273 39.78C111.363 39.64 111.449 39.4883 111.533 39.325C111.619 39.1617 111.698 38.9967 111.768 38.83C111.838 38.66 111.894 38.4983 111.938 38.345ZM112.663 36.87L112.923 37.16C112.769 37.22 112.594 37.2767 112.398 37.33C112.201 37.3833 111.998 37.43 111.788 37.47C111.581 37.5067 111.379 37.5383 111.183 37.565C111.176 37.525 111.161 37.4783 111.138 37.425C111.114 37.3683 111.093 37.32 111.073 37.28C111.259 37.2467 111.451 37.21 111.648 37.17C111.848 37.13 112.036 37.085 112.213 37.035C112.389 36.9817 112.539 36.9267 112.663 36.87ZM112.268 38.85C112.301 38.88 112.349 38.9283 112.413 38.995C112.479 39.0583 112.551 39.1283 112.628 39.205C112.704 39.2783 112.773 39.3483 112.833 39.415C112.896 39.4817 112.941 39.53 112.968 39.56L112.743 39.855C112.713 39.805 112.669 39.7417 112.613 39.665C112.559 39.5883 112.499 39.5067 112.433 39.42C112.366 39.3333 112.303 39.2533 112.243 39.18C112.183 39.1067 112.133 39.0483 112.093 39.005L112.268 38.85ZM119.258 37.75L119.608 37.85C119.338 38.4967 118.981 39.0533 118.538 39.52C118.098 39.9867 117.588 40.365 117.008 40.655C116.991 40.6283 116.968 40.5967 116.938 40.56C116.908 40.52 116.876 40.4817 116.843 40.445C116.809 40.4083 116.779 40.3783 116.753 40.355C117.329 40.095 117.829 39.745 118.253 39.305C118.679 38.865 119.014 38.3467 119.258 37.75ZM116.933 39.05L117.138 38.8C117.358 38.89 117.586 38.9917 117.823 39.105C118.059 39.2183 118.289 39.3383 118.513 39.465C118.739 39.5917 118.949 39.72 119.143 39.85C119.336 39.9767 119.498 40.0983 119.628 40.215L119.403 40.515C119.276 40.395 119.118 40.27 118.928 40.14C118.738 40.0067 118.531 39.875 118.308 39.745C118.084 39.6117 117.854 39.4867 117.618 39.37C117.384 39.25 117.156 39.1433 116.933 39.05ZM116.888 37.875L117.168 37.75C117.268 37.8833 117.363 38.0317 117.453 38.195C117.546 38.355 117.609 38.495 117.643 38.615L117.343 38.755C117.309 38.635 117.249 38.4933 117.163 38.33C117.076 38.1633 116.984 38.0117 116.888 37.875ZM117.843 37.7L118.138 37.595C118.224 37.7417 118.304 37.9033 118.378 38.08C118.451 38.2533 118.499 38.4033 118.523 38.53L118.203 38.645C118.193 38.5617 118.168 38.4667 118.128 38.36C118.091 38.25 118.048 38.1383 117.998 38.025C117.951 37.9083 117.899 37.8 117.843 37.7ZM116.203 37.035H120.338V41.385H119.953V37.395H116.578V41.385H116.203V37.035ZM116.418 40.78H120.113V41.145H116.418V40.78Z" fill="black"/>
<path d="M185.65 52H135.546C132.023 52 130.259 56.259 132.75 58.7499L147.917 73.9167C149.461 75.4609 149.461 77.9644 147.917 79.5086L132.75 94.6754C130.259 97.1662 132.023 101.425 135.546 101.425H185.65C186.698 101.425 187.704 101.009 188.445 100.267L209.204 79.5086C210.748 77.9644 210.748 75.4609 209.204 73.9167L188.445 53.1581C187.704 52.4166 186.698 52 185.65 52Z" fill="#F1F0EC"/>
<path d="M154.852 74.152C154.969 74.1627 155.087 74.1733 155.204 74.184C155.327 74.1947 155.452 74.2 155.58 74.2C155.671 74.2 155.809 74.2 155.996 74.2C156.183 74.2 156.391 74.2 156.62 74.2C156.855 74.2 157.087 74.2 157.316 74.2C157.545 74.2 157.751 74.2 157.932 74.2C158.119 74.2 158.257 74.2 158.348 74.2C158.46 74.2 158.583 74.1973 158.716 74.192C158.855 74.1813 158.98 74.168 159.092 74.152V74.816C158.975 74.8053 158.849 74.8 158.716 74.8C158.588 74.7947 158.465 74.792 158.348 74.792C158.257 74.792 158.119 74.792 157.932 74.792C157.751 74.792 157.545 74.792 157.316 74.792C157.087 74.792 156.857 74.792 156.628 74.792C156.399 74.792 156.191 74.792 156.004 74.792C155.817 74.792 155.679 74.792 155.588 74.792C155.455 74.792 155.324 74.7947 155.196 74.8C155.073 74.8 154.959 74.8053 154.852 74.816V74.152ZM153.908 76.16C154.015 76.1707 154.124 76.1813 154.236 76.192C154.353 76.1973 154.473 76.2 154.596 76.2C154.665 76.2 154.801 76.2 155.004 76.2C155.212 76.2 155.463 76.2 155.756 76.2C156.055 76.2 156.375 76.2 156.716 76.2C157.057 76.2 157.399 76.2 157.74 76.2C158.081 76.2 158.399 76.2 158.692 76.2C158.991 76.2 159.241 76.2 159.444 76.2C159.647 76.2 159.777 76.2 159.836 76.2C159.921 76.2 160.023 76.1973 160.14 76.192C160.257 76.1867 160.364 76.176 160.46 76.16V76.824C160.375 76.8187 160.273 76.816 160.156 76.816C160.044 76.8107 159.937 76.808 159.836 76.808C159.777 76.808 159.647 76.808 159.444 76.808C159.241 76.808 158.991 76.808 158.692 76.808C158.399 76.808 158.081 76.808 157.74 76.808C157.399 76.808 157.057 76.808 156.716 76.808C156.375 76.808 156.055 76.808 155.756 76.808C155.463 76.808 155.212 76.808 155.004 76.808C154.801 76.808 154.665 76.808 154.596 76.808C154.479 76.808 154.361 76.808 154.244 76.808C154.127 76.808 154.015 76.8133 153.908 76.824V76.16ZM157.668 76.488C157.668 76.9893 157.631 77.4507 157.556 77.872C157.487 78.288 157.364 78.664 157.188 79C157.092 79.176 156.961 79.3547 156.796 79.536C156.636 79.712 156.455 79.88 156.252 80.04C156.055 80.2 155.841 80.3387 155.612 80.456L155.02 80.016C155.329 79.888 155.62 79.7147 155.892 79.496C156.164 79.2773 156.377 79.0427 156.532 78.792C156.735 78.472 156.863 78.12 156.916 77.736C156.969 77.3467 156.996 76.9307 156.996 76.488H157.668ZM159.508 73.504C159.577 73.5947 159.652 73.7067 159.732 73.84C159.812 73.968 159.889 74.0987 159.964 74.232C160.044 74.3653 160.111 74.488 160.164 74.6L159.732 74.792C159.652 74.6267 159.551 74.44 159.428 74.232C159.305 74.0187 159.191 73.8347 159.084 73.68L159.508 73.504ZM160.388 73.184C160.457 73.28 160.535 73.3947 160.62 73.528C160.705 73.6613 160.788 73.7947 160.868 73.928C160.948 74.056 161.012 74.1707 161.06 74.272L160.628 74.464C160.543 74.288 160.439 74.0987 160.316 73.896C160.199 73.688 160.081 73.5093 159.964 73.36L160.388 73.184ZM167.452 73.896C167.5 73.992 167.553 74.1067 167.612 74.24C167.671 74.3733 167.727 74.5093 167.78 74.648C167.839 74.7813 167.884 74.9013 167.916 75.008L167.524 75.144C167.487 75.0267 167.441 74.9013 167.388 74.768C167.335 74.6347 167.281 74.5013 167.228 74.368C167.175 74.2347 167.121 74.1173 167.068 74.016L167.452 73.896ZM168.244 73.656C168.297 73.752 168.353 73.8667 168.412 74C168.471 74.128 168.529 74.2587 168.588 74.392C168.647 74.5253 168.692 74.648 168.724 74.76L168.332 74.888C168.268 74.712 168.193 74.52 168.108 74.312C168.023 74.104 167.94 73.9253 167.86 73.776L168.244 73.656ZM166.692 76.464C166.692 76.9973 166.657 77.472 166.588 77.888C166.519 78.2987 166.399 78.664 166.228 78.984C166.063 79.2987 165.831 79.5813 165.532 79.832C165.239 80.0773 164.863 80.304 164.404 80.512L163.868 80C164.231 79.8613 164.548 79.7067 164.82 79.536C165.092 79.36 165.319 79.144 165.5 78.888C165.681 78.632 165.817 78.3147 165.908 77.936C165.999 77.552 166.044 77.08 166.044 76.52V74.576C166.044 74.416 166.039 74.2773 166.028 74.16C166.023 74.0373 166.017 73.9573 166.012 73.92H166.732C166.727 73.9573 166.719 74.0373 166.708 74.16C166.697 74.2773 166.692 74.416 166.692 74.576V76.464ZM163.804 73.968C163.804 74.0053 163.799 74.0773 163.788 74.184C163.777 74.2853 163.772 74.4053 163.772 74.544V77.48C163.772 77.576 163.775 77.6773 163.78 77.784C163.785 77.8853 163.788 77.9733 163.788 78.048C163.793 78.1227 163.799 78.1733 163.804 78.2H163.092C163.097 78.1733 163.103 78.1227 163.108 78.048C163.113 77.9733 163.119 77.8853 163.124 77.784C163.129 77.6827 163.132 77.5813 163.132 77.48V74.552C163.132 74.4613 163.129 74.3653 163.124 74.264C163.119 74.1573 163.108 74.0587 163.092 73.968H163.804ZM161.468 75.52C161.489 75.5253 161.543 75.5333 161.628 75.544C161.713 75.5493 161.812 75.5573 161.924 75.568C162.041 75.5733 162.156 75.576 162.268 75.576H167.564C167.745 75.576 167.9 75.5707 168.028 75.56C168.156 75.5493 168.247 75.5387 168.3 75.528V76.208C168.257 76.2027 168.169 76.1973 168.036 76.192C167.903 76.1867 167.748 76.184 167.572 76.184H162.268C162.151 76.184 162.036 76.1867 161.924 76.192C161.817 76.192 161.721 76.1947 161.636 76.2C161.556 76.2053 161.5 76.2107 161.468 76.216V75.52ZM169.612 77.112C170.305 76.9253 170.951 76.6987 171.548 76.432C172.145 76.1653 172.665 75.8933 173.108 75.616C173.385 75.44 173.655 75.2507 173.916 75.048C174.183 74.84 174.433 74.624 174.668 74.4C174.903 74.176 175.111 73.9547 175.292 73.736L175.828 74.232C175.604 74.472 175.361 74.7067 175.1 74.936C174.839 75.1653 174.561 75.3867 174.268 75.6C173.98 75.808 173.679 76.0107 173.364 76.208C173.071 76.384 172.74 76.5653 172.372 76.752C172.004 76.9387 171.612 77.1147 171.196 77.28C170.78 77.4453 170.359 77.5973 169.932 77.736L169.612 77.112ZM172.98 75.952L173.668 75.744V79.392C173.668 79.4933 173.668 79.6 173.668 79.712C173.673 79.824 173.679 79.928 173.684 80.024C173.695 80.12 173.705 80.1947 173.716 80.248H172.932C172.937 80.1947 172.943 80.12 172.948 80.024C172.959 79.928 172.967 79.824 172.972 79.712C172.977 79.6 172.98 79.4933 172.98 79.392V75.952ZM178.588 74.136C178.732 74.232 178.897 74.352 179.084 74.496C179.271 74.6347 179.46 74.784 179.652 74.944C179.849 75.0987 180.033 75.2507 180.204 75.4C180.375 75.5493 180.516 75.68 180.628 75.792L180.124 76.296C180.023 76.1947 179.892 76.0693 179.732 75.92C179.572 75.7707 179.396 75.616 179.204 75.456C179.012 75.2907 178.823 75.136 178.636 74.992C178.449 74.8427 178.281 74.72 178.132 74.624L178.588 74.136ZM177.9 79.496C178.369 79.4267 178.796 79.3307 179.18 79.208C179.569 79.0853 179.924 78.9467 180.244 78.792C180.564 78.6373 180.849 78.4827 181.1 78.328C181.511 78.072 181.889 77.7787 182.236 77.448C182.583 77.112 182.887 76.7653 183.148 76.408C183.409 76.0507 183.617 75.7093 183.772 75.384L184.156 76.064C183.975 76.3947 183.751 76.7307 183.484 77.072C183.217 77.4133 182.916 77.7413 182.58 78.056C182.244 78.3707 181.873 78.656 181.468 78.912C181.201 79.0773 180.908 79.24 180.588 79.4C180.273 79.56 179.927 79.7067 179.548 79.84C179.175 79.968 178.767 80.072 178.324 80.152L177.9 79.496Z" fill="black"/>
<path d="M248.65 52H198.546C195.023 52 193.259 56.259 195.75 58.7499L210.917 73.9167C212.461 75.4609 212.461 77.9644 210.917 79.5086L195.75 94.6754C193.259 97.1662 195.023 101.425 198.546 101.425H248.65C249.698 101.425 250.704 101.009 251.445 100.267L272.204 79.5086C273.748 77.9644 273.748 75.4609 272.204 73.9167L251.445 53.1581C250.704 52.4166 249.698 52 248.65 52Z" fill="#F1F0EC"/>
<path d="M223.352 67.352C223.416 67.4427 223.488 67.552 223.568 67.68C223.648 67.808 223.725 67.936 223.8 68.064C223.875 68.1867 223.936 68.3013 223.984 68.408L223.544 68.6C223.491 68.4933 223.427 68.376 223.352 68.248C223.283 68.12 223.208 67.9947 223.128 67.872C223.053 67.744 222.981 67.632 222.912 67.536L223.352 67.352ZM224.376 67.144C224.445 67.2347 224.52 67.344 224.6 67.472C224.68 67.5947 224.757 67.7227 224.832 67.856C224.912 67.984 224.979 68.0987 225.032 68.2L224.592 68.392C224.501 68.2267 224.397 68.0427 224.28 67.84C224.163 67.6373 224.048 67.4667 223.936 67.328L224.376 67.144ZM224.072 68.792C224.045 68.8453 224.021 68.9067 224 68.976C223.984 69.04 223.968 69.112 223.952 69.192C223.909 69.4 223.853 69.632 223.784 69.888C223.715 70.144 223.629 70.408 223.528 70.68C223.432 70.9467 223.317 71.2053 223.184 71.456C223.056 71.7067 222.915 71.936 222.76 72.144C222.515 72.4533 222.24 72.7413 221.936 73.008C221.637 73.2747 221.296 73.5147 220.912 73.728C220.533 73.9413 220.099 74.1253 219.608 74.28L219.064 73.68C219.581 73.552 220.029 73.392 220.408 73.2C220.792 73.008 221.128 72.792 221.416 72.552C221.704 72.3067 221.96 72.0427 222.184 71.76C222.376 71.5147 222.541 71.24 222.68 70.936C222.824 70.6267 222.941 70.3173 223.032 70.008C223.128 69.6933 223.195 69.408 223.232 69.152C223.152 69.152 223.008 69.152 222.8 69.152C222.597 69.152 222.355 69.152 222.072 69.152C221.789 69.152 221.493 69.152 221.184 69.152C220.875 69.152 220.579 69.152 220.296 69.152C220.019 69.152 219.776 69.152 219.568 69.152C219.36 69.152 219.216 69.152 219.136 69.152C218.981 69.152 218.835 69.1547 218.696 69.16C218.563 69.1653 218.445 69.1707 218.344 69.176V68.464C218.419 68.4747 218.499 68.4853 218.584 68.496C218.675 68.5013 218.768 68.5067 218.864 68.512C218.965 68.5173 219.059 68.52 219.144 68.52C219.208 68.52 219.32 68.52 219.48 68.52C219.645 68.52 219.843 68.52 220.072 68.52C220.301 68.52 220.544 68.52 220.8 68.52C221.056 68.52 221.312 68.52 221.568 68.52C221.824 68.52 222.061 68.52 222.28 68.52C222.504 68.52 222.693 68.52 222.848 68.52C223.003 68.52 223.104 68.52 223.152 68.52C223.216 68.52 223.285 68.5173 223.36 68.512C223.435 68.5067 223.509 68.496 223.584 68.48L224.072 68.792ZM227 68.04C227.107 68.056 227.221 68.0667 227.344 68.072C227.467 68.0773 227.592 68.08 227.72 68.08C227.8 68.08 227.944 68.08 228.152 68.08C228.365 68.08 228.605 68.08 228.872 68.08C229.144 68.08 229.413 68.08 229.68 68.08C229.952 68.08 230.195 68.08 230.408 68.08C230.621 68.08 230.773 68.08 230.864 68.08C230.992 68.08 231.12 68.0773 231.248 68.072C231.376 68.0667 231.491 68.056 231.592 68.04V68.704C231.496 68.6933 231.381 68.688 231.248 68.688C231.12 68.6827 230.989 68.68 230.856 68.68C230.765 68.68 230.613 68.68 230.4 68.68C230.192 68.68 229.955 68.68 229.688 68.68C229.421 68.68 229.152 68.68 228.88 68.68C228.613 68.68 228.373 68.68 228.16 68.68C227.952 68.68 227.805 68.68 227.72 68.68C227.597 68.68 227.475 68.6827 227.352 68.688C227.229 68.6933 227.112 68.6987 227 68.704V68.04ZM232.176 70.152C232.16 70.184 232.139 70.224 232.112 70.272C232.091 70.3147 232.077 70.352 232.072 70.384C231.965 70.7787 231.819 71.176 231.632 71.576C231.445 71.9707 231.203 72.3307 230.904 72.656C230.483 73.1147 230.027 73.472 229.536 73.728C229.051 73.984 228.552 74.184 228.04 74.328L227.544 73.76C228.109 73.6427 228.635 73.4587 229.12 73.208C229.605 72.9573 230.019 72.6533 230.36 72.296C230.605 72.04 230.805 71.7547 230.96 71.44C231.12 71.12 231.237 70.816 231.312 70.528C231.253 70.528 231.141 70.528 230.976 70.528C230.816 70.528 230.619 70.528 230.384 70.528C230.149 70.528 229.896 70.528 229.624 70.528C229.357 70.528 229.085 70.528 228.808 70.528C228.536 70.528 228.28 70.528 228.04 70.528C227.805 70.528 227.6 70.528 227.424 70.528C227.253 70.528 227.133 70.528 227.064 70.528C226.968 70.528 226.851 70.5307 226.712 70.536C226.573 70.536 226.429 70.5413 226.28 70.552V69.88C226.429 69.896 226.571 69.9093 226.704 69.92C226.837 69.9253 226.957 69.928 227.064 69.928C227.123 69.928 227.235 69.928 227.4 69.928C227.565 69.928 227.765 69.928 228 69.928C228.235 69.928 228.488 69.928 228.76 69.928C229.032 69.928 229.304 69.928 229.576 69.928C229.848 69.928 230.101 69.928 230.336 69.928C230.571 69.928 230.771 69.928 230.936 69.928C231.107 69.928 231.221 69.928 231.28 69.928C231.371 69.928 231.456 69.9227 231.536 69.912C231.616 69.9013 231.677 69.8853 231.72 69.864L232.176 70.152ZM236.864 69.392C236.901 69.472 236.949 69.592 237.008 69.752C237.067 69.9067 237.128 70.072 237.192 70.248C237.261 70.424 237.323 70.592 237.376 70.752C237.429 70.9067 237.469 71.0293 237.496 71.12L236.904 71.328C236.883 71.2373 236.845 71.1147 236.792 70.96C236.744 70.8053 236.688 70.64 236.624 70.464C236.56 70.2827 236.496 70.1147 236.432 69.96C236.368 69.8053 236.317 69.6827 236.28 69.592L236.864 69.392ZM239.76 69.84C239.733 69.92 239.709 69.9947 239.688 70.064C239.672 70.128 239.656 70.1867 239.64 70.24C239.533 70.6773 239.389 71.1067 239.208 71.528C239.027 71.944 238.792 72.3333 238.504 72.696C238.136 73.1653 237.72 73.5573 237.256 73.872C236.797 74.1867 236.344 74.4293 235.896 74.6L235.368 74.064C235.677 73.968 235.989 73.84 236.304 73.68C236.624 73.52 236.925 73.328 237.208 73.104C237.496 72.88 237.749 72.632 237.968 72.36C238.16 72.1253 238.331 71.8613 238.48 71.568C238.635 71.2747 238.763 70.9627 238.864 70.632C238.965 70.3013 239.035 69.9653 239.072 69.624L239.76 69.84ZM235.008 69.792C235.051 69.8827 235.104 70.0053 235.168 70.16C235.232 70.3147 235.299 70.4853 235.368 70.672C235.443 70.8533 235.512 71.0293 235.576 71.2C235.645 71.3653 235.699 71.4987 235.736 71.6L235.128 71.824C235.096 71.7227 235.048 71.5867 234.984 71.416C234.925 71.24 234.859 71.0587 234.784 70.872C234.709 70.6853 234.637 70.5147 234.568 70.36C234.504 70.2053 234.453 70.0933 234.416 70.024L235.008 69.792ZM243.256 67.856C243.373 67.92 243.512 68.0027 243.672 68.104C243.832 68.2053 243.997 68.312 244.168 68.424C244.339 68.536 244.496 68.6427 244.64 68.744C244.789 68.84 244.907 68.92 244.992 68.984L244.616 69.528C244.52 69.4587 244.4 69.3733 244.256 69.272C244.112 69.1707 243.957 69.0667 243.792 68.96C243.627 68.848 243.464 68.744 243.304 68.648C243.149 68.5467 243.013 68.4613 242.896 68.392L243.256 67.856ZM242.056 73.576C242.349 73.5227 242.651 73.4533 242.96 73.368C243.269 73.2773 243.576 73.1733 243.88 73.056C244.184 72.9333 244.469 72.7947 244.736 72.64C245.179 72.384 245.589 72.1013 245.968 71.792C246.347 71.4827 246.688 71.152 246.992 70.8C247.296 70.448 247.555 70.0853 247.768 69.712L248.152 70.368C247.805 70.9067 247.365 71.424 246.832 71.92C246.304 72.416 245.72 72.8533 245.08 73.232C244.808 73.3867 244.512 73.5307 244.192 73.664C243.877 73.792 243.565 73.904 243.256 74C242.952 74.096 242.675 74.1707 242.424 74.224L242.056 73.576ZM242.048 69.656C242.165 69.7147 242.307 69.7947 242.472 69.896C242.637 69.992 242.805 70.0933 242.976 70.2C243.147 70.3013 243.307 70.4 243.456 70.496C243.605 70.592 243.723 70.672 243.808 70.736L243.44 71.296C243.339 71.2213 243.213 71.136 243.064 71.04C242.92 70.9387 242.765 70.8373 242.6 70.736C242.435 70.6293 242.272 70.528 242.112 70.432C241.952 70.336 241.813 70.2587 241.696 70.2L242.048 69.656ZM254.592 70.192C254.581 70.2293 254.571 70.272 254.56 70.32C254.549 70.368 254.541 70.408 254.536 70.44C254.525 70.5627 254.504 70.728 254.472 70.936C254.445 71.144 254.413 71.3733 254.376 71.624C254.339 71.8747 254.301 72.1253 254.264 72.376C254.227 72.6213 254.192 72.848 254.16 73.056C254.133 73.2587 254.109 73.416 254.088 73.528H253.408C253.429 73.4373 253.453 73.2987 253.48 73.112C253.512 72.92 253.547 72.704 253.584 72.464C253.627 72.224 253.664 71.984 253.696 71.744C253.728 71.4987 253.755 71.2773 253.776 71.08C253.803 70.8773 253.819 70.7227 253.824 70.616C253.723 70.616 253.579 70.616 253.392 70.616C253.205 70.616 253 70.616 252.776 70.616C252.557 70.616 252.341 70.616 252.128 70.616C251.915 70.616 251.731 70.616 251.576 70.616C251.427 70.616 251.328 70.616 251.28 70.616C251.163 70.616 251.051 70.6187 250.944 70.624C250.843 70.6293 250.741 70.6347 250.64 70.64V69.968C250.704 69.9787 250.771 69.9867 250.84 69.992C250.915 69.9973 250.989 70.0027 251.064 70.008C251.139 70.0133 251.208 70.016 251.272 70.016C251.336 70.016 251.445 70.016 251.6 70.016C251.755 70.016 251.931 70.016 252.128 70.016C252.331 70.016 252.536 70.016 252.744 70.016C252.952 70.016 253.141 70.016 253.312 70.016C253.488 70.016 253.619 70.016 253.704 70.016C253.752 70.016 253.8 70.0133 253.848 70.008C253.901 70.0027 253.952 69.9973 254 69.992C254.048 69.9813 254.083 69.9707 254.104 69.96L254.592 70.192ZM249.888 73.272C249.984 73.2773 250.088 73.2853 250.2 73.296C250.312 73.3013 250.429 73.304 250.552 73.304C250.621 73.304 250.765 73.304 250.984 73.304C251.208 73.304 251.472 73.304 251.776 73.304C252.08 73.304 252.397 73.304 252.728 73.304C253.064 73.304 253.384 73.304 253.688 73.304C253.997 73.304 254.261 73.304 254.48 73.304C254.699 73.304 254.843 73.304 254.912 73.304C254.997 73.304 255.101 73.3013 255.224 73.296C255.352 73.2907 255.459 73.2853 255.544 73.28V73.928C255.496 73.9227 255.435 73.92 255.36 73.92C255.285 73.92 255.211 73.92 255.136 73.92C255.061 73.9147 254.995 73.912 254.936 73.912C254.861 73.912 254.712 73.912 254.488 73.912C254.264 73.912 253.997 73.912 253.688 73.912C253.379 73.912 253.056 73.912 252.72 73.912C252.384 73.912 252.064 73.912 251.76 73.912C251.456 73.912 251.195 73.912 250.976 73.912C250.757 73.912 250.616 73.912 250.552 73.912C250.429 73.912 250.317 73.9147 250.216 73.92C250.115 73.92 250.005 73.9253 249.888 73.936V73.272ZM232.6 80.592C232.568 80.6293 232.531 80.6747 232.488 80.728C232.451 80.7813 232.416 80.832 232.384 80.88C232.283 81.0613 232.131 81.2853 231.928 81.552C231.731 81.8133 231.501 82.0827 231.24 82.36C230.979 82.632 230.696 82.8747 230.392 83.088L229.864 82.664C230.051 82.5573 230.232 82.4293 230.408 82.28C230.589 82.1253 230.757 81.9653 230.912 81.8C231.072 81.6293 231.211 81.464 231.328 81.304C231.451 81.1387 231.547 80.9947 231.616 80.872C231.531 80.872 231.392 80.872 231.2 80.872C231.013 80.872 230.789 80.872 230.528 80.872C230.272 80.872 229.997 80.872 229.704 80.872C229.411 80.872 229.12 80.872 228.832 80.872C228.544 80.872 228.275 80.872 228.024 80.872C227.773 80.872 227.563 80.872 227.392 80.872C227.221 80.872 227.109 80.872 227.056 80.872C226.907 80.872 226.757 80.8773 226.608 80.888C226.459 80.8933 226.304 80.904 226.144 80.92V80.192C226.283 80.2133 226.432 80.232 226.592 80.248C226.752 80.2587 226.907 80.264 227.056 80.264C227.109 80.264 227.224 80.264 227.4 80.264C227.576 80.264 227.789 80.264 228.04 80.264C228.296 80.264 228.573 80.264 228.872 80.264C229.171 80.264 229.467 80.264 229.76 80.264C230.059 80.264 230.339 80.264 230.6 80.264C230.861 80.264 231.083 80.264 231.264 80.264C231.451 80.264 231.579 80.264 231.648 80.264C231.701 80.264 231.763 80.264 231.832 80.264C231.907 80.2587 231.979 80.2507 232.048 80.24C232.117 80.2293 232.171 80.2213 232.208 80.216L232.6 80.592ZM229.408 81.648C229.408 82.08 229.395 82.4853 229.368 82.864C229.341 83.2427 229.288 83.5973 229.208 83.928C229.128 84.2587 229.005 84.5653 228.84 84.848C228.68 85.1253 228.464 85.3867 228.192 85.632C227.92 85.872 227.581 86.0933 227.176 86.296L226.584 85.816C226.696 85.7787 226.816 85.7307 226.944 85.672C227.072 85.608 227.192 85.536 227.304 85.456C227.619 85.2693 227.869 85.0587 228.056 84.824C228.243 84.5893 228.381 84.336 228.472 84.064C228.568 83.7867 228.632 83.496 228.664 83.192C228.701 82.8827 228.72 82.5627 228.72 82.232C228.72 82.1307 228.717 82.0347 228.712 81.944C228.712 81.8533 228.704 81.7547 228.688 81.648H229.408ZM236.864 81.392C236.901 81.472 236.949 81.592 237.008 81.752C237.067 81.9067 237.128 82.072 237.192 82.248C237.261 82.424 237.323 82.592 237.376 82.752C237.429 82.9067 237.469 83.0293 237.496 83.12L236.904 83.328C236.883 83.2373 236.845 83.1147 236.792 82.96C236.744 82.8053 236.688 82.64 236.624 82.464C236.56 82.2827 236.496 82.1147 236.432 81.96C236.368 81.8053 236.317 81.6827 236.28 81.592L236.864 81.392ZM239.76 81.84C239.733 81.92 239.709 81.9947 239.688 82.064C239.672 82.128 239.656 82.1867 239.64 82.24C239.533 82.6773 239.389 83.1067 239.208 83.528C239.027 83.944 238.792 84.3333 238.504 84.696C238.136 85.1653 237.72 85.5573 237.256 85.872C236.797 86.1867 236.344 86.4293 235.896 86.6L235.368 86.064C235.677 85.968 235.989 85.84 236.304 85.68C236.624 85.52 236.925 85.328 237.208 85.104C237.496 84.88 237.749 84.632 237.968 84.36C238.16 84.1253 238.331 83.8613 238.48 83.568C238.635 83.2747 238.763 82.9627 238.864 82.632C238.965 82.3013 239.035 81.9653 239.072 81.624L239.76 81.84ZM235.008 81.792C235.051 81.8827 235.104 82.0053 235.168 82.16C235.232 82.3147 235.299 82.4853 235.368 82.672C235.443 82.8533 235.512 83.0293 235.576 83.2C235.645 83.3653 235.699 83.4987 235.736 83.6L235.128 83.824C235.096 83.7227 235.048 83.5867 234.984 83.416C234.925 83.24 234.859 83.0587 234.784 82.872C234.709 82.6853 234.637 82.5147 234.568 82.36C234.504 82.2053 234.453 82.0933 234.416 82.024L235.008 81.792ZM247.288 80.256C247.288 80.4 247.339 80.5253 247.44 80.632C247.547 80.7333 247.672 80.784 247.816 80.784C247.965 80.784 248.091 80.7333 248.192 80.632C248.299 80.5253 248.352 80.4 248.352 80.256C248.352 80.1067 248.299 79.9813 248.192 79.88C248.091 79.7733 247.965 79.72 247.816 79.72C247.672 79.72 247.547 79.7733 247.44 79.88C247.339 79.9813 247.288 80.1067 247.288 80.256ZM246.92 80.256C246.92 80.0907 246.96 79.9413 247.04 79.808C247.125 79.6693 247.235 79.56 247.368 79.48C247.501 79.3947 247.651 79.352 247.816 79.352C247.981 79.352 248.131 79.3947 248.264 79.48C248.403 79.56 248.512 79.6693 248.592 79.808C248.677 79.9413 248.72 80.0907 248.72 80.256C248.72 80.4213 248.677 80.5707 248.592 80.704C248.512 80.8373 248.403 80.9467 248.264 81.032C248.131 81.112 247.981 81.152 247.816 81.152C247.651 81.152 247.501 81.112 247.368 81.032C247.235 80.9467 247.125 80.8373 247.04 80.704C246.96 80.5707 246.92 80.4213 246.92 80.256ZM247.616 80.792C247.589 80.8453 247.565 80.9067 247.544 80.976C247.528 81.04 247.512 81.112 247.496 81.192C247.453 81.4 247.397 81.632 247.328 81.888C247.259 82.144 247.173 82.408 247.072 82.68C246.976 82.9467 246.864 83.2053 246.736 83.456C246.608 83.7067 246.464 83.936 246.304 84.144C246.059 84.4533 245.787 84.7413 245.488 85.008C245.189 85.2747 244.848 85.5147 244.464 85.728C244.08 85.9413 243.643 86.1253 243.152 86.28L242.608 85.68C243.131 85.552 243.581 85.392 243.96 85.2C244.344 85.008 244.68 84.792 244.968 84.552C245.256 84.3067 245.509 84.0427 245.728 83.76C245.92 83.5147 246.085 83.24 246.224 82.936C246.368 82.6267 246.488 82.3173 246.584 82.008C246.68 81.6933 246.744 81.408 246.776 81.152C246.701 81.152 246.56 81.152 246.352 81.152C246.144 81.152 245.899 81.152 245.616 81.152C245.333 81.152 245.037 81.152 244.728 81.152C244.424 81.152 244.131 81.152 243.848 81.152C243.565 81.152 243.32 81.152 243.112 81.152C242.904 81.152 242.763 81.152 242.688 81.152C242.528 81.152 242.381 81.1547 242.248 81.16C242.115 81.1653 241.995 81.1707 241.888 81.176V80.464C241.963 80.4747 242.045 80.4853 242.136 80.496C242.227 80.5013 242.32 80.5067 242.416 80.512C242.512 80.5173 242.603 80.52 242.688 80.52C242.752 80.52 242.867 80.52 243.032 80.52C243.197 80.52 243.392 80.52 243.616 80.52C243.845 80.52 244.088 80.52 244.344 80.52C244.605 80.52 244.861 80.52 245.112 80.52C245.368 80.52 245.605 80.52 245.824 80.52C246.048 80.52 246.237 80.52 246.392 80.52C246.547 80.52 246.651 80.52 246.704 80.52C246.763 80.52 246.829 80.5173 246.904 80.512C246.979 80.5067 247.053 80.496 247.128 80.48L247.616 80.792Z" fill="black"/>
</svg>
