<svg width="642" height="226" viewBox="0 0 642 226" fill="none" xmlns="http://www.w3.org/2000/svg">
<path d="M42.6904 51.4139L1.31956 9.74171C-1.81549 5.81181 0.982742 0 6.00993 0H132.638C134.363 0 136.005 0.742483 137.144 2.03793L182.358 51.1936C184.35 53.4593 184.35 56.852 182.358 59.1177L137.144 108.273C136.005 109.569 134.363 110.311 132.638 110.311H6.00993C0.982741 110.311 -1.81549 104.499 1.31956 100.57L42.6904 58.8974C44.4365 56.7085 44.4365 53.6028 42.6904 51.4139Z" fill="#F1F0EC"/>
<path d="M67.5731 48.9236H68.5391V50.4776H67.5731V48.9236ZM65.2351 49.9876H70.8911V50.8136H65.2351V49.9876ZM64.9271 52.3816H71.0171V53.2496H64.9271V52.3816ZM71.3531 52.3816H77.7371V53.2496H71.3531V52.3816ZM73.8591 48.9236H74.8531V50.4776H73.8591V48.9236ZM71.5491 49.9876H77.4851V50.8136H71.5491V49.9876ZM66.4951 54.8176V56.5536H69.5191V54.8176H66.4951ZM65.5711 53.9776H70.4851V57.3936H65.5711V53.9776ZM72.8091 54.8036V56.5956H76.0151V54.8036H72.8091ZM71.8431 53.9776H77.0231V57.4356H71.8431V53.9776ZM68.4831 57.1556H69.4211V60.1236L68.4831 60.4876V57.1556ZM68.0771 60.1376C68.4504 60.0256 68.8891 59.881 69.3931 59.7036C69.9064 59.517 70.4384 59.3256 70.9891 59.1296L71.1571 59.9976C70.6717 60.1936 70.1911 60.3803 69.7151 60.5576C69.2391 60.735 68.7864 60.9076 68.3571 61.0756L68.0771 60.1376ZM66.0611 50.8976L66.8731 50.7296C66.9944 50.9816 67.0971 51.257 67.1811 51.5556C67.2744 51.845 67.3351 52.097 67.3631 52.3116L66.5091 52.4936C66.4904 52.279 66.4391 52.0223 66.3551 51.7236C66.2711 51.425 66.1731 51.1496 66.0611 50.8976ZM69.2111 50.6876L70.1071 50.9116C69.9951 51.2103 69.8877 51.4996 69.7851 51.7796C69.6917 52.0596 69.5937 52.307 69.4911 52.5216L68.6791 52.3116C68.7631 52.0876 68.8564 51.8216 68.9591 51.5136C69.0711 51.2056 69.1551 50.9303 69.2111 50.6876ZM72.3471 50.8976L73.1731 50.7016C73.3037 50.9443 73.4157 51.2196 73.5091 51.5276C73.6117 51.8263 73.6817 52.0876 73.7191 52.3116L72.8371 52.5216C72.8091 52.307 72.7484 52.0456 72.6551 51.7376C72.5711 51.4296 72.4684 51.1496 72.3471 50.8976ZM75.6511 50.6456L76.6031 50.8836C76.4631 51.173 76.3277 51.467 76.1971 51.7656C76.0664 52.055 75.9404 52.307 75.8191 52.5216L75.0071 52.2976C75.1191 52.0643 75.2357 51.789 75.3571 51.4716C75.4784 51.1543 75.5764 50.879 75.6511 50.6456ZM72.6971 57.1976H73.6351C73.5884 57.963 73.4764 58.6396 73.2991 59.2276C73.1311 59.8156 72.8464 60.3196 72.4451 60.7396C72.0531 61.1596 71.4931 61.5096 70.7651 61.7896C70.7091 61.6683 70.6251 61.5283 70.5131 61.3696C70.4011 61.211 70.2937 61.0896 70.1911 61.0056C70.8444 60.7816 71.3437 60.497 71.6891 60.1516C72.0344 59.8063 72.2771 59.391 72.4171 58.9056C72.5664 58.411 72.6597 57.8416 72.6971 57.1976ZM66.5091 57.1556H67.4331C67.3957 57.893 67.3117 58.5556 67.1811 59.1436C67.0597 59.7223 66.8544 60.231 66.5651 60.6696C66.2757 61.1083 65.8557 61.477 65.3051 61.7756C65.2677 61.701 65.2117 61.6123 65.1371 61.5096C65.0717 61.4163 64.9971 61.323 64.9131 61.2296C64.8384 61.1456 64.7637 61.0756 64.6891 61.0196C65.1744 60.777 65.5384 60.4736 65.7811 60.1096C66.0331 59.7456 66.2104 59.321 66.3131 58.8356C66.4157 58.341 66.4811 57.781 66.5091 57.1556ZM74.6711 57.1696H75.6231V60.3336C75.6231 60.3896 75.6277 60.4363 75.6371 60.4736C75.6557 60.511 75.6837 60.539 75.7211 60.5576C75.8051 60.6043 75.9077 60.6276 76.0291 60.6276C76.0851 60.6276 76.1597 60.6276 76.2531 60.6276C76.3557 60.6276 76.4397 60.6276 76.5051 60.6276C76.6824 60.6276 76.8131 60.6043 76.8971 60.5576C76.9251 60.5296 76.9577 60.4923 76.9951 60.4456C77.0324 60.399 77.0557 60.3383 77.0651 60.2636C77.0837 60.1423 77.0977 59.9556 77.1071 59.7036C77.1257 59.4423 77.1304 59.153 77.1211 58.8356C77.2144 58.9196 77.3404 59.0083 77.4991 59.1016C77.6671 59.195 77.8211 59.2603 77.9611 59.2976C77.9517 59.6336 77.9331 59.9603 77.9051 60.2776C77.8771 60.5856 77.8444 60.8003 77.8071 60.9216C77.7231 61.1736 77.5737 61.3556 77.3591 61.4676C77.2751 61.5143 77.1631 61.5516 77.0231 61.5796C76.8831 61.6076 76.7431 61.6216 76.6031 61.6216C76.5097 61.6216 76.3744 61.6216 76.1971 61.6216C76.0197 61.6216 75.8891 61.6216 75.8051 61.6216C75.6557 61.6216 75.5017 61.603 75.3431 61.5656C75.1937 61.5283 75.0631 61.4676 74.9511 61.3836C74.8484 61.281 74.7737 61.1596 74.7271 61.0196C74.6897 60.8796 74.6711 60.651 74.6711 60.3336V57.1696ZM81.5311 53.4736H88.6011V54.4116H81.5311V53.4736ZM81.2791 60.2636H88.7831V61.2016H81.2791V60.2636ZM80.8031 56.1756H89.3711V61.7896H88.3071V57.1276H81.8391V61.7896H80.8031V56.1756ZM85.0311 49.9596C84.6484 50.529 84.1491 51.117 83.5331 51.7236C82.9264 52.3303 82.2497 52.9136 81.5031 53.4736C80.7657 54.0336 79.9957 54.5283 79.1931 54.9576C79.1464 54.883 79.0857 54.7943 79.0111 54.6916C78.9364 54.589 78.8571 54.4863 78.7731 54.3836C78.6891 54.281 78.6097 54.197 78.5351 54.1316C79.3564 53.7116 80.1451 53.2123 80.9011 52.6336C81.6664 52.055 82.3524 51.4436 82.9591 50.7996C83.5751 50.1556 84.0651 49.5303 84.4291 48.9236H85.5071C85.8804 49.4463 86.3051 49.955 86.7811 50.4496C87.2664 50.9443 87.7797 51.411 88.3211 51.8496C88.8717 52.2883 89.4317 52.6896 90.0011 53.0536C90.5797 53.4083 91.1444 53.707 91.6951 53.9496C91.5737 54.0803 91.4524 54.2296 91.3311 54.3976C91.2097 54.5656 91.0977 54.729 90.9951 54.8876C90.4444 54.589 89.8891 54.253 89.3291 53.8796C88.7691 53.5063 88.2231 53.105 87.6911 52.6756C87.1591 52.237 86.6644 51.789 86.2071 51.3316C85.7497 50.865 85.3577 50.4076 85.0311 49.9596ZM99.2551 51.8776H103.049V52.7036H99.2551V51.8776ZM99.1291 54.0336H103.245V54.8596H99.1291V54.0336ZM100.697 50.6736H101.551V54.5236H100.697V50.6736ZM98.1071 49.4836H104.225V50.3936H98.1071V49.4836ZM99.7731 55.9236H102.965V59.5496H99.7731V58.7376H102.153V56.7356H99.7731V55.9236ZM99.3391 55.9236H100.137V60.1096H99.3391V55.9236ZM103.833 49.4836H104.813V60.4456C104.813 60.7536 104.776 60.9963 104.701 61.1736C104.626 61.351 104.486 61.4863 104.281 61.5796C104.094 61.6636 103.824 61.715 103.469 61.7336C103.114 61.7523 102.676 61.7616 102.153 61.7616C102.134 61.6776 102.106 61.5703 102.069 61.4396C102.041 61.3183 102.004 61.1923 101.957 61.0616C101.92 60.931 101.878 60.819 101.831 60.7256C102.214 60.735 102.568 60.7396 102.895 60.7396C103.222 60.7396 103.441 60.7396 103.553 60.7396C103.665 60.7303 103.74 60.707 103.777 60.6696C103.814 60.6323 103.833 60.5576 103.833 60.4456V49.4836ZM97.5751 49.4836H98.5271V54.5096C98.5271 55.0603 98.5131 55.653 98.4851 56.2876C98.4571 56.9223 98.3964 57.571 98.3031 58.2336C98.2191 58.887 98.0884 59.5263 97.9111 60.1516C97.7337 60.777 97.5004 61.3463 97.2111 61.8596C97.1551 61.8036 97.0757 61.7336 96.9731 61.6496C96.8704 61.575 96.7631 61.505 96.6511 61.4396C96.5484 61.3743 96.4597 61.323 96.3851 61.2856C96.7584 60.6323 97.0244 59.9136 97.1831 59.1296C97.3511 58.3456 97.4584 57.5523 97.5051 56.7496C97.5517 55.9376 97.5751 55.191 97.5751 54.5096V49.4836ZM92.8991 53.1376H96.4971V53.9636H92.8991V53.1376ZM92.9971 49.3856H96.4691V50.2256H92.9971V49.3856ZM92.8991 54.9996H96.4971V55.8396H92.8991V54.9996ZM92.3251 51.2196H96.8611V52.1016H92.3251V51.2196ZM93.3891 56.8896H96.4831V60.9636H93.3891V60.0956H95.6151V57.7576H93.3891V56.8896ZM92.8851 56.8896H93.7531V61.6216H92.8851V56.8896ZM106.283 60.5296H118.799V61.4816H106.283V60.5296ZM109.153 56.9176H115.915V57.7016H109.153V56.9176ZM109.153 58.7096H115.915V59.5076H109.153V58.7096ZM108.635 55.0276H116.447V61.0336H115.369V55.9096H109.671V61.0896H108.635V55.0276ZM106.325 50.6736H118.743V51.5976H106.325V50.6736ZM111.967 48.8956H113.003V54.5796H111.967V48.8956ZM111.365 50.9536L112.219 51.3036C111.911 51.7516 111.547 52.1903 111.127 52.6196C110.707 53.0396 110.25 53.4363 109.755 53.8096C109.26 54.1736 108.756 54.505 108.243 54.8036C107.73 55.1023 107.216 55.3496 106.703 55.5456C106.628 55.4243 106.526 55.2843 106.395 55.1256C106.264 54.9576 106.143 54.827 106.031 54.7336C106.526 54.5563 107.03 54.337 107.543 54.0756C108.056 53.805 108.551 53.5016 109.027 53.1656C109.503 52.8296 109.942 52.475 110.343 52.1016C110.744 51.7283 111.085 51.3456 111.365 50.9536ZM113.591 50.9816C113.871 51.3643 114.216 51.7376 114.627 52.1016C115.038 52.4656 115.481 52.8063 115.957 53.1236C116.442 53.441 116.946 53.7303 117.469 53.9916C117.992 54.2436 118.51 54.449 119.023 54.6076C118.948 54.673 118.864 54.757 118.771 54.8596C118.687 54.9623 118.608 55.065 118.533 55.1676C118.458 55.2703 118.393 55.3683 118.337 55.4616C117.814 55.2656 117.287 55.023 116.755 54.7336C116.232 54.4443 115.724 54.1223 115.229 53.7676C114.744 53.4036 114.286 53.0163 113.857 52.6056C113.428 52.195 113.059 51.7656 112.751 51.3176L113.591 50.9816Z" fill="black" fill-opacity="0.8"/>
<path d="M189.935 51.4139L148.564 9.74171C145.429 5.81181 148.227 0 153.254 0H279.883C281.608 0 283.249 0.742483 284.388 2.03793L329.602 51.1936C331.594 53.4593 331.594 56.852 329.602 59.1177L284.388 108.273C283.249 109.569 281.608 110.311 279.883 110.311H153.254C148.227 110.311 145.429 104.499 148.564 100.57L189.935 58.8974C191.681 56.7085 191.681 53.6028 189.935 51.4139Z" fill="#F1F0EC"/>
<path d="M217.547 39.9176H223.133V40.7156H217.547V39.9176ZM216.245 32.9876H224.561V33.7996H216.245V32.9876ZM216.581 34.6956H224.211V35.4656H216.581V34.6956ZM215.825 36.4316H224.981V37.2436H215.825V36.4316ZM217.561 41.7796H223.175V42.5776H217.561V41.7796ZM216.833 38.0556H223.119V38.8676H217.813V44.7616H216.833V38.0556ZM222.881 38.0556H223.875V43.5996C223.875 43.861 223.838 44.0663 223.763 44.2156C223.698 44.365 223.567 44.477 223.371 44.5516C223.175 44.6356 222.914 44.6823 222.587 44.6916C222.261 44.7103 221.85 44.7196 221.355 44.7196C221.337 44.589 221.295 44.435 221.229 44.2576C221.173 44.0896 221.113 43.9403 221.047 43.8096C221.402 43.819 221.729 43.8236 222.027 43.8236C222.335 43.833 222.536 43.833 222.629 43.8236C222.797 43.8143 222.881 43.735 222.881 43.5856V38.0556ZM219.829 31.8956H220.865V36.6836H219.829V31.8956ZM213.697 31.8956H214.649V44.7616H213.697V31.8956ZM212.591 34.5976L213.375 34.6956C213.357 35.0596 213.319 35.4703 213.263 35.9276C213.217 36.3756 213.151 36.8236 213.067 37.2716C212.983 37.7196 212.885 38.121 212.773 38.4756L211.947 38.1956C212.059 37.8783 212.157 37.5096 212.241 37.0896C212.325 36.6696 212.395 36.2403 212.451 35.8016C212.517 35.363 212.563 34.9616 212.591 34.5976ZM214.775 34.2196L215.475 33.9396C215.634 34.257 215.788 34.607 215.937 34.9896C216.087 35.363 216.194 35.6756 216.259 35.9276L215.517 36.2916C215.452 36.021 215.349 35.6896 215.209 35.2976C215.069 34.9056 214.925 34.5463 214.775 34.2196ZM233.087 37.2996H237.679V38.1676H233.087V37.2996ZM232.569 32.5396H237.567V33.4916H233.535V44.7896H232.569V32.5396ZM237.063 32.5396H238.043V35.2416C238.043 35.503 238.006 35.7083 237.931 35.8576C237.866 36.007 237.726 36.1236 237.511 36.2076C237.297 36.2823 237.007 36.329 236.643 36.3476C236.289 36.357 235.836 36.3616 235.285 36.3616C235.267 36.2216 235.225 36.0676 235.159 35.8996C235.103 35.7223 235.038 35.5683 234.963 35.4376C235.262 35.447 235.533 35.4563 235.775 35.4656C236.027 35.4656 236.242 35.4656 236.419 35.4656C236.597 35.4656 236.718 35.461 236.783 35.4516C236.905 35.4423 236.979 35.4236 237.007 35.3956C237.045 35.3676 237.063 35.3163 237.063 35.2416V32.5396ZM234.459 37.8736C234.711 38.751 235.052 39.5863 235.481 40.3796C235.911 41.1636 236.41 41.8636 236.979 42.4796C237.558 43.0956 238.202 43.5763 238.911 43.9216C238.79 44.015 238.659 44.1456 238.519 44.3136C238.379 44.491 238.267 44.645 238.183 44.7756C237.465 44.365 236.811 43.8236 236.223 43.1516C235.645 42.4796 235.136 41.7096 234.697 40.8416C234.268 39.9736 233.913 39.059 233.633 38.0976L234.459 37.8736ZM237.357 37.2996H237.539L237.721 37.2576L238.379 37.4956C238.193 38.5036 237.913 39.4696 237.539 40.3936C237.175 41.3176 236.713 42.1576 236.153 42.9136C235.603 43.6603 234.954 44.2903 234.207 44.8036C234.123 44.6823 234.011 44.5516 233.871 44.4116C233.741 44.281 233.615 44.1736 233.493 44.0896C234.203 43.623 234.819 43.0443 235.341 42.3536C235.864 41.6536 236.293 40.8883 236.629 40.0576C236.975 39.227 237.217 38.387 237.357 37.5376V37.2996ZM226.381 33.3376H231.575V34.2336H226.381V33.3376ZM226.227 40.9816H231.757V41.8916H226.227V40.9816ZM225.891 35.6476H232.121V36.5576H225.891V35.6476ZM226.087 38.5456H231.939V39.4556H226.087V38.5456ZM228.537 31.9096H229.517V35.9696H228.537V31.9096ZM228.537 38.9376H229.517V44.7476H228.537V38.9376ZM230.427 36.5016L231.337 36.7256C231.197 37.0616 231.057 37.4023 230.917 37.7476C230.787 38.0836 230.651 38.373 230.511 38.6156L229.741 38.3916C229.816 38.2143 229.895 38.0136 229.979 37.7896C230.073 37.5656 230.157 37.3416 230.231 37.1176C230.315 36.8843 230.381 36.679 230.427 36.5016ZM226.857 36.7256L227.655 36.5156C227.823 36.8143 227.968 37.141 228.089 37.4956C228.211 37.8503 228.285 38.149 228.313 38.3916L227.473 38.6436C227.445 38.3916 227.371 38.0883 227.249 37.7336C227.137 37.3696 227.007 37.0336 226.857 36.7256ZM240.633 39.6656H251.497V40.5336H240.633V39.6656ZM239.835 32.8056H246.289V33.5756H239.835V32.8056ZM246.079 41.6116H250.573V42.4236H246.079V41.6116ZM239.695 43.5856H252.421V44.4676H239.695V43.5856ZM245.505 39.9876H246.541V44.0056H245.505V39.9876ZM242.593 31.8956H243.531V39.2876H242.593V31.8956ZM242.005 41.1636H243.013V44.0616H242.005V41.1636ZM241.109 34.9896V36.1516H245.057V34.9896H241.109ZM240.241 34.2896H245.953V36.8516H240.241V34.2896ZM243.531 36.8096C243.653 36.8656 243.83 36.9543 244.063 37.0756C244.297 37.1876 244.544 37.309 244.805 37.4396C245.076 37.5703 245.323 37.6963 245.547 37.8176C245.781 37.9296 245.949 38.0183 246.051 38.0836L245.533 38.7836C245.403 38.6903 245.225 38.5736 245.001 38.4336C244.787 38.2936 244.553 38.149 244.301 37.9996C244.049 37.8503 243.807 37.715 243.573 37.5936C243.34 37.463 243.149 37.3603 242.999 37.2856L243.531 36.8096ZM248.025 31.8956L248.977 32.1056C248.744 32.9176 248.417 33.683 247.997 34.4016C247.587 35.111 247.125 35.7083 246.611 36.1936C246.574 36.1283 246.509 36.049 246.415 35.9556C246.331 35.8623 246.243 35.7736 246.149 35.6896C246.056 35.5963 245.972 35.5216 245.897 35.4656C246.392 35.0456 246.821 34.523 247.185 33.8976C247.549 33.2723 247.829 32.605 248.025 31.8956ZM247.773 33.4636H252.365V34.3176H247.339L247.773 33.4636ZM250.573 33.8416L251.553 33.9536C251.208 35.3723 250.597 36.5063 249.719 37.3556C248.851 38.1956 247.764 38.8536 246.457 39.3296C246.42 39.255 246.364 39.171 246.289 39.0776C246.224 38.9843 246.149 38.8863 246.065 38.7836C245.981 38.681 245.902 38.6063 245.827 38.5596C247.087 38.177 248.119 37.6076 248.921 36.8516C249.733 36.0956 250.284 35.0923 250.573 33.8416ZM247.885 33.9676C248.091 34.5556 248.394 35.153 248.795 35.7596C249.197 36.357 249.71 36.903 250.335 37.3976C250.97 37.8923 251.726 38.275 252.603 38.5456C252.501 38.639 252.389 38.7696 252.267 38.9376C252.155 39.1056 252.067 39.2503 252.001 39.3716C251.124 39.045 250.363 38.6156 249.719 38.0836C249.085 37.5423 248.557 36.9543 248.137 36.3196C247.727 35.6756 247.414 35.0503 247.199 34.4436L247.885 33.9676ZM242.509 36.4876L243.195 36.7956C242.962 37.1036 242.677 37.4163 242.341 37.7336C242.005 38.051 241.651 38.3496 241.277 38.6296C240.904 38.9003 240.549 39.1196 240.213 39.2876C240.148 39.185 240.055 39.0683 239.933 38.9376C239.812 38.807 239.7 38.6996 239.597 38.6156C239.933 38.4756 240.283 38.289 240.647 38.0556C241.011 37.8223 241.357 37.5703 241.683 37.2996C242.019 37.029 242.295 36.7583 242.509 36.4876ZM259.435 36.0956V37.9016H264.629V36.0956H259.435ZM259.435 33.4636V35.2416H264.629V33.4636H259.435ZM258.469 32.5396H265.637V38.8116H258.469V32.5396ZM258.301 40.4636H265.833V41.4156H258.301V40.4636ZM257.223 43.3476H266.309V44.3136H257.223V43.3476ZM253.415 32.8336H257.783V33.8276H253.415V32.8336ZM253.555 36.8936H257.573V37.8736H253.555V36.8936ZM253.261 42.2556C253.644 42.1436 254.073 42.0176 254.549 41.8776C255.035 41.7283 255.543 41.565 256.075 41.3876C256.617 41.201 257.158 41.019 257.699 40.8416L257.881 41.8636C257.125 42.1156 256.365 42.3723 255.599 42.6336C254.834 42.8856 254.143 43.1143 253.527 43.3196L253.261 42.2556ZM255.151 33.2256H256.159V41.9056L255.151 42.1016V33.2256ZM261.577 32.9736H262.487V38.3636H262.571V43.7816H261.493V38.3636H261.577V32.9736ZM219.39 51.7676C219.55 51.7676 219.694 51.805 219.822 51.8796C219.95 51.9543 220.052 52.0556 220.126 52.1836C220.201 52.3116 220.238 52.4556 220.238 52.6156C220.238 52.7703 220.201 52.9143 220.126 53.0476C220.052 53.1756 219.95 53.277 219.822 53.3516C219.694 53.4263 219.55 53.4636 219.39 53.4636C219.236 53.4636 219.092 53.4263 218.958 53.3516C218.83 53.277 218.729 53.1756 218.654 53.0476C218.58 52.9143 218.542 52.7703 218.542 52.6156C218.542 52.4556 218.58 52.3116 218.654 52.1836C218.729 52.0556 218.83 51.9543 218.958 51.8796C219.092 51.805 219.236 51.7676 219.39 51.7676ZM223.814 53.8716H230.822V54.3836H223.814V53.8716ZM223.838 50.3596H230.79V50.8716H223.838V50.3596ZM224.166 51.7356H230.502V52.2316H224.166V51.7356ZM224.566 52.8156H230.11V53.2796H224.566V52.8156ZM226.99 51.9676H227.59V56.2956H226.99V51.9676ZM226.254 48.9276H226.822V50.6076H226.254V48.9276ZM227.774 48.9276H228.35V50.5756H227.774V48.9276ZM226.798 54.0796L227.278 54.3036C227.033 54.5756 226.729 54.8343 226.366 55.0796C226.004 55.3196 225.617 55.5303 225.206 55.7116C224.796 55.8983 224.39 56.0476 223.99 56.1596C223.964 56.1063 223.926 56.0476 223.878 55.9836C223.836 55.925 223.79 55.8636 223.742 55.7996C223.694 55.741 223.646 55.693 223.598 55.6556C223.993 55.565 224.393 55.4396 224.798 55.2796C225.204 55.1196 225.582 54.9356 225.934 54.7276C226.286 54.5196 226.574 54.3036 226.798 54.0796ZM227.774 54.0636C227.945 54.2396 228.15 54.4103 228.39 54.5756C228.636 54.741 228.902 54.893 229.19 55.0316C229.484 55.1703 229.785 55.293 230.094 55.3996C230.404 55.501 230.71 55.5863 231.014 55.6556C230.972 55.6983 230.924 55.749 230.87 55.8076C230.822 55.8716 230.774 55.9356 230.726 55.9996C230.678 56.069 230.641 56.1303 230.614 56.1836C230.31 56.0983 230.001 55.9916 229.686 55.8636C229.377 55.7356 229.076 55.589 228.782 55.4236C228.494 55.2583 228.222 55.077 227.966 54.8796C227.716 54.6823 227.497 54.477 227.31 54.2636L227.774 54.0636ZM229.63 49.0316L230.246 49.1996C230.129 49.413 230.004 49.6316 229.87 49.8556C229.737 50.0743 229.614 50.2636 229.502 50.4236L229.014 50.2556C229.089 50.1436 229.164 50.0156 229.238 49.8716C229.318 49.7276 229.393 49.581 229.462 49.4316C229.532 49.2823 229.588 49.149 229.63 49.0316ZM228.558 50.7196L229.174 50.8796C229.078 51.0556 228.98 51.2316 228.878 51.4076C228.777 51.5783 228.681 51.7303 228.59 51.8636L228.094 51.7116C228.174 51.5676 228.257 51.4023 228.342 51.2156C228.433 51.029 228.505 50.8636 228.558 50.7196ZM224.486 49.1916L224.998 49.0156C225.137 49.1916 225.27 49.3916 225.398 49.6156C225.532 49.8396 225.628 50.0343 225.686 50.1996L225.142 50.4076C225.089 50.2423 224.998 50.045 224.87 49.8156C224.748 49.5863 224.62 49.3783 224.486 49.1916ZM225.534 50.9276L226.102 50.8236C226.193 50.9516 226.278 51.0983 226.358 51.2636C226.444 51.4236 226.502 51.565 226.534 51.6876L225.942 51.8076C225.91 51.6903 225.854 51.549 225.774 51.3836C225.7 51.213 225.62 51.061 225.534 50.9276ZM231.67 49.3356H234.398V49.8556H231.67V49.3356ZM234.766 53.4236H238.23V53.9436H234.766V53.4236ZM231.582 51.7516H234.59V52.2876H231.582V51.7516ZM232.99 51.9676H233.566V55.5996C233.566 55.749 233.548 55.8663 233.51 55.9516C233.473 56.0423 233.401 56.1143 233.294 56.1676C233.193 56.2103 233.06 56.237 232.894 56.2476C232.734 56.2583 232.532 56.2636 232.286 56.2636C232.276 56.189 232.252 56.0956 232.214 55.9836C232.182 55.877 232.145 55.7836 232.102 55.7036C232.278 55.709 232.436 55.7116 232.574 55.7116C232.718 55.717 232.814 55.717 232.862 55.7116C232.91 55.7063 232.942 55.6956 232.958 55.6796C232.98 55.6636 232.99 55.6343 232.99 55.5916V51.9676ZM238.03 53.4236H238.638C238.638 53.4236 238.636 53.4556 238.63 53.5196C238.63 53.5836 238.628 53.6396 238.622 53.6876C238.574 54.1836 238.521 54.5916 238.462 54.9116C238.409 55.2263 238.353 55.4716 238.294 55.6476C238.236 55.8236 238.166 55.9516 238.086 56.0316C238.017 56.1063 237.942 56.157 237.862 56.1836C237.788 56.2156 237.694 56.237 237.582 56.2476C237.492 56.253 237.366 56.2556 237.206 56.2556C237.046 56.2556 236.873 56.2503 236.686 56.2396C236.681 56.1543 236.665 56.0583 236.638 55.9516C236.612 55.8503 236.574 55.7596 236.526 55.6796C236.702 55.6956 236.862 55.7063 237.006 55.7116C237.15 55.717 237.254 55.7196 237.318 55.7196C237.388 55.7196 237.441 55.7143 237.478 55.7036C237.521 55.693 237.561 55.6716 237.598 55.6396C237.652 55.581 237.705 55.4743 237.758 55.3196C237.812 55.165 237.86 54.941 237.902 54.6476C237.95 54.3543 237.993 53.9756 238.03 53.5116V53.4236ZM236.254 52.6316H236.854C236.817 53.0316 236.756 53.4156 236.67 53.7836C236.59 54.1516 236.465 54.493 236.294 54.8076C236.129 55.1223 235.902 55.405 235.614 55.6556C235.326 55.9063 234.956 56.1196 234.502 56.2956C234.47 56.2263 234.42 56.1436 234.35 56.0476C234.281 55.957 234.214 55.885 234.15 55.8316C234.566 55.677 234.905 55.4903 235.166 55.2716C235.428 55.0476 235.63 54.7996 235.774 54.5276C235.924 54.2503 236.033 53.9516 236.102 53.6316C236.172 53.3116 236.222 52.9783 236.254 52.6316ZM231.95 50.6716L232.326 50.2796C232.556 50.3703 232.79 50.4823 233.03 50.6156C233.276 50.7436 233.505 50.877 233.718 51.0156C233.937 51.149 234.113 51.277 234.246 51.3996L233.846 51.8396C233.718 51.717 233.548 51.5836 233.334 51.4396C233.126 51.2956 232.9 51.157 232.654 51.0236C232.414 50.885 232.18 50.7676 231.95 50.6716ZM234.43 51.7516H234.518L234.606 51.7196L234.982 51.8476C234.897 52.1836 234.796 52.5303 234.678 52.8876C234.566 53.2396 234.446 53.5383 234.318 53.7836L233.902 53.5756C234.004 53.3623 234.102 53.0956 234.198 52.7756C234.294 52.4503 234.372 52.1436 234.43 51.8556V51.7516ZM237.638 50.0156L238.262 50.1196C238.081 50.605 237.83 51.021 237.51 51.3676C237.196 51.7143 236.825 52.0076 236.398 52.2476C235.977 52.4876 235.513 52.6876 235.006 52.8476C234.985 52.805 234.953 52.7516 234.91 52.6876C234.868 52.6183 234.82 52.5543 234.766 52.4956C234.718 52.4316 234.673 52.381 234.63 52.3436C235.121 52.221 235.566 52.0583 235.966 51.8556C236.372 51.6476 236.716 51.3943 236.998 51.0956C237.286 50.7916 237.5 50.4316 237.638 50.0156ZM235.934 48.9276L236.502 49.0876C236.38 49.3703 236.23 49.645 236.054 49.9116C235.878 50.173 235.692 50.4183 235.494 50.6476C235.297 50.877 235.097 51.077 234.894 51.2476C234.857 51.2156 234.809 51.1783 234.75 51.1356C234.692 51.0876 234.63 51.0423 234.566 50.9996C234.502 50.957 234.446 50.9223 234.398 50.8956C234.713 50.661 235.006 50.373 235.278 50.0316C235.55 49.685 235.769 49.317 235.934 48.9276ZM235.79 50.1916C235.982 50.5383 236.236 50.8583 236.55 51.1516C236.865 51.445 237.228 51.6956 237.638 51.9036C238.054 52.1063 238.502 52.2583 238.982 52.3596C238.94 52.4023 238.892 52.453 238.838 52.5116C238.79 52.5703 238.745 52.6316 238.702 52.6956C238.66 52.7596 238.622 52.8183 238.59 52.8716C238.105 52.7383 237.652 52.5543 237.23 52.3196C236.809 52.0796 236.433 51.7943 236.102 51.4636C235.772 51.133 235.5 50.765 235.286 50.3596L235.79 50.1916ZM232.91 51.9196L233.318 52.0716C233.222 52.4236 233.094 52.7863 232.934 53.1596C232.78 53.533 232.606 53.8796 232.414 54.1996C232.228 54.5196 232.028 54.7836 231.814 54.9916C231.782 54.9116 231.734 54.8183 231.67 54.7116C231.612 54.5996 231.556 54.5063 231.502 54.4316C231.7 54.2503 231.889 54.0236 232.07 53.7516C232.252 53.4743 232.414 53.1783 232.558 52.8636C232.708 52.5436 232.825 52.229 232.91 51.9196ZM235.758 49.7756H238.806V50.2876H235.502L235.758 49.7756ZM234.254 49.3356H234.39L234.486 49.3116L234.878 49.5596C234.756 49.741 234.609 49.9276 234.438 50.1196C234.268 50.3063 234.086 50.485 233.894 50.6556C233.702 50.821 233.516 50.965 233.334 51.0876C233.281 51.0396 233.214 50.989 233.134 50.9356C233.054 50.877 232.985 50.8316 232.926 50.7996C233.097 50.6823 233.265 50.5463 233.43 50.3916C233.601 50.237 233.758 50.077 233.902 49.9116C234.052 49.741 234.169 49.5863 234.254 49.4476V49.3356ZM246.014 50.3356C245.988 50.3943 245.964 50.4556 245.942 50.5196C245.926 50.5836 245.91 50.6556 245.894 50.7356C245.852 50.949 245.796 51.1836 245.726 51.4396C245.657 51.6903 245.572 51.9516 245.47 52.2236C245.374 52.4903 245.26 52.7516 245.126 53.0076C244.998 53.2583 244.857 53.485 244.702 53.6876C244.457 53.997 244.185 54.2876 243.886 54.5596C243.588 54.8263 243.246 55.0663 242.862 55.2796C242.478 55.493 242.041 55.677 241.55 55.8316L241.006 55.2316C241.529 55.0983 241.98 54.9383 242.358 54.7516C242.742 54.5596 243.078 54.341 243.366 54.0956C243.654 53.8503 243.908 53.5863 244.126 53.3036C244.318 53.0636 244.484 52.789 244.622 52.4796C244.766 52.1703 244.884 51.861 244.974 51.5516C245.07 51.237 245.137 50.9516 245.174 50.6956C245.1 50.6956 244.958 50.6956 244.75 50.6956C244.542 50.6956 244.297 50.6956 244.014 50.6956C243.732 50.6956 243.436 50.6956 243.126 50.6956C242.822 50.6956 242.529 50.6956 242.246 50.6956C241.964 50.6956 241.718 50.6956 241.51 50.6956C241.302 50.6956 241.161 50.6956 241.086 50.6956C240.926 50.6956 240.78 50.6983 240.646 50.7036C240.513 50.709 240.393 50.7143 240.286 50.7196V50.0156C240.361 50.021 240.444 50.029 240.534 50.0396C240.625 50.0503 240.718 50.0583 240.814 50.0636C240.91 50.0636 241.001 50.0636 241.086 50.0636C241.15 50.0636 241.265 50.0636 241.43 50.0636C241.596 50.0636 241.79 50.0636 242.014 50.0636C242.244 50.0636 242.486 50.0636 242.742 50.0636C243.004 50.0636 243.26 50.0636 243.51 50.0636C243.766 50.0636 244.004 50.0636 244.222 50.0636C244.446 50.0636 244.636 50.0636 244.79 50.0636C244.945 50.0636 245.049 50.0636 245.102 50.0636C245.161 50.0636 245.228 50.0636 245.302 50.0636C245.377 50.0583 245.452 50.045 245.526 50.0236L246.014 50.3356ZM248.206 50.1756C248.366 50.181 248.502 50.1863 248.614 50.1916C248.726 50.1916 248.828 50.1916 248.918 50.1916C248.982 50.1916 249.1 50.1916 249.27 50.1916C249.441 50.1916 249.646 50.1916 249.886 50.1916C250.132 50.1916 250.393 50.1916 250.67 50.1916C250.948 50.1916 251.222 50.1916 251.494 50.1916C251.772 50.1916 252.03 50.1916 252.27 50.1916C252.51 50.1916 252.713 50.1916 252.878 50.1916C253.044 50.1916 253.156 50.1916 253.214 50.1916C253.3 50.1916 253.406 50.1916 253.534 50.1916C253.668 50.1863 253.796 50.181 253.918 50.1756C253.913 50.2716 253.908 50.3756 253.902 50.4876C253.902 50.5943 253.902 50.6983 253.902 50.7996C253.902 50.853 253.902 50.9596 253.902 51.1196C253.902 51.2743 253.902 51.4636 253.902 51.6876C253.902 51.9116 253.902 52.1543 253.902 52.4156C253.902 52.6716 253.902 52.9276 253.902 53.1836C253.902 53.4396 253.902 53.677 253.902 53.8956C253.902 54.1143 253.902 54.301 253.902 54.4556C253.902 54.605 253.902 54.701 253.902 54.7436C253.902 54.8023 253.902 54.8823 253.902 54.9836C253.902 55.085 253.902 55.1863 253.902 55.2876C253.908 55.389 253.91 55.4796 253.91 55.5596C253.916 55.6343 253.918 55.685 253.918 55.7116H253.23C253.23 55.6796 253.23 55.6156 253.23 55.5196C253.236 55.4183 253.238 55.3063 253.238 55.1836C253.244 55.0556 253.246 54.9356 253.246 54.8236C253.246 54.7863 253.246 54.685 253.246 54.5196C253.246 54.3543 253.246 54.1516 253.246 53.9116C253.246 53.6663 253.246 53.405 253.246 53.1276C253.246 52.845 253.246 52.5703 253.246 52.3036C253.246 52.0316 253.246 51.7836 253.246 51.5596C253.246 51.3356 253.246 51.157 253.246 51.0236C253.246 50.8903 253.246 50.8236 253.246 50.8236H248.87C248.87 50.8236 248.87 50.8903 248.87 51.0236C248.87 51.1516 248.87 51.3276 248.87 51.5516C248.87 51.7756 248.87 52.0236 248.87 52.2956C248.87 52.5623 248.87 52.8343 248.87 53.1116C248.87 53.389 248.87 53.6503 248.87 53.8956C248.87 54.1356 248.87 54.3383 248.87 54.5036C248.87 54.669 248.87 54.7756 248.87 54.8236C248.87 54.893 248.87 54.973 248.87 55.0636C248.87 55.1543 248.87 55.245 248.87 55.3356C248.876 55.421 248.878 55.4983 248.878 55.5676C248.884 55.637 248.886 55.685 248.886 55.7116H248.198C248.198 55.685 248.198 55.6343 248.198 55.5596C248.204 55.4796 248.206 55.389 248.206 55.2876C248.212 55.1863 248.214 55.0876 248.214 54.9916C248.214 54.8903 248.214 54.805 248.214 54.7356C248.214 54.693 248.214 54.5943 248.214 54.4396C248.214 54.285 248.214 54.0956 248.214 53.8716C248.214 53.6476 248.214 53.4076 248.214 53.1516C248.214 52.8903 248.214 52.6316 248.214 52.3756C248.214 52.1143 248.214 51.8743 248.214 51.6556C248.214 51.4316 248.214 51.245 248.214 51.0956C248.214 50.941 248.214 50.8423 248.214 50.7996C248.214 50.7036 248.214 50.5996 248.214 50.4876C248.214 50.3756 248.212 50.2716 248.206 50.1756ZM253.502 54.6236V55.2476H248.558V54.6236H253.502ZM255.766 52.1916C255.846 52.197 255.945 52.205 256.062 52.2156C256.18 52.221 256.308 52.2263 256.446 52.2316C256.59 52.2316 256.734 52.2316 256.878 52.2316C256.964 52.2316 257.094 52.2316 257.27 52.2316C257.452 52.2316 257.662 52.2316 257.902 52.2316C258.142 52.2316 258.396 52.2316 258.662 52.2316C258.934 52.2316 259.204 52.2316 259.47 52.2316C259.742 52.2316 259.998 52.2316 260.238 52.2316C260.484 52.2316 260.694 52.2316 260.87 52.2316C261.046 52.2316 261.177 52.2316 261.262 52.2316C261.465 52.2316 261.638 52.2263 261.782 52.2156C261.926 52.205 262.041 52.197 262.126 52.1916V52.9756C262.046 52.9703 261.926 52.9623 261.766 52.9516C261.612 52.941 261.446 52.9356 261.27 52.9356C261.185 52.9356 261.052 52.9356 260.87 52.9356C260.689 52.9356 260.478 52.9356 260.238 52.9356C260.004 52.9356 259.75 52.9356 259.478 52.9356C259.206 52.9356 258.934 52.9356 258.662 52.9356C258.396 52.9356 258.142 52.9356 257.902 52.9356C257.668 52.9356 257.46 52.9356 257.278 52.9356C257.097 52.9356 256.964 52.9356 256.878 52.9356C256.66 52.9356 256.452 52.941 256.254 52.9516C256.057 52.957 255.894 52.965 255.766 52.9756V52.1916ZM219.39 63.7676C219.55 63.7676 219.694 63.805 219.822 63.8796C219.95 63.9543 220.052 64.0556 220.126 64.1836C220.201 64.3116 220.238 64.4556 220.238 64.6156C220.238 64.7703 220.201 64.9143 220.126 65.0476C220.052 65.1756 219.95 65.277 219.822 65.3516C219.694 65.4263 219.55 65.4636 219.39 65.4636C219.236 65.4636 219.092 65.4263 218.958 65.3516C218.83 65.277 218.729 65.1756 218.654 65.0476C218.58 64.9143 218.542 64.7703 218.542 64.6156C218.542 64.4556 218.58 64.3116 218.654 64.1836C218.729 64.0556 218.83 63.9543 218.958 63.8796C219.092 63.805 219.236 63.7676 219.39 63.7676ZM226.782 61.4156H230.718V61.9916H226.782V61.4156ZM229.126 63.7996H229.734V67.5276C229.734 67.7143 229.708 67.8556 229.654 67.9516C229.601 68.053 229.508 68.1303 229.374 68.1836C229.236 68.2263 229.046 68.2503 228.806 68.2556C228.572 68.2663 228.257 68.2716 227.862 68.2716C227.852 68.1916 227.828 68.0956 227.79 67.9836C227.753 67.8716 227.71 67.7703 227.662 67.6796C227.854 67.685 228.036 67.6903 228.206 67.6956C228.377 67.701 228.526 67.701 228.654 67.6956C228.782 67.6956 228.87 67.6956 228.918 67.6956C228.993 67.6903 229.046 67.677 229.078 67.6556C229.11 67.629 229.126 67.5836 229.126 67.5196V63.7996ZM226.43 63.6236H230.942V64.1996H226.43V63.6236ZM224.838 64.2476L225.366 63.7196L225.43 63.7516V68.3196H224.838V64.2476ZM225.758 62.6476L226.326 62.8556C226.124 63.1916 225.889 63.5276 225.622 63.8636C225.356 64.1996 225.076 64.5143 224.782 64.8076C224.494 65.0956 224.209 65.3543 223.926 65.5836C223.894 65.541 223.852 65.4876 223.798 65.4236C223.75 65.3596 223.7 65.2956 223.646 65.2316C223.593 65.1676 223.545 65.117 223.502 65.0796C223.78 64.8823 224.054 64.653 224.326 64.3916C224.604 64.1303 224.865 63.8503 225.11 63.5516C225.361 63.253 225.577 62.9516 225.758 62.6476ZM225.438 60.9276L226.014 61.1676C225.838 61.397 225.633 61.6343 225.398 61.8796C225.169 62.1196 224.926 62.3516 224.67 62.5756C224.42 62.7943 224.174 62.989 223.934 63.1596C223.908 63.117 223.873 63.0663 223.83 63.0076C223.793 62.9436 223.75 62.8823 223.702 62.8236C223.66 62.7596 223.62 62.7116 223.582 62.6796C223.806 62.525 224.033 62.349 224.262 62.1516C224.497 61.9543 224.716 61.749 224.918 61.5356C225.126 61.3223 225.3 61.1196 225.438 60.9276ZM231.766 66.1596H235.414V66.6236H231.766V66.1596ZM231.55 62.3036H235.55V62.7756H231.55V62.3036ZM233.286 61.5836H233.838V67.4636H233.286V61.5836ZM231.55 67.4796C231.876 67.4476 232.249 67.413 232.67 67.3756C233.097 67.3383 233.548 67.2956 234.022 67.2476C234.502 67.1996 234.977 67.149 235.446 67.0956L235.454 67.5676C235.001 67.621 234.545 67.6743 234.086 67.7276C233.628 67.7863 233.188 67.837 232.766 67.8796C232.35 67.9276 231.972 67.9703 231.63 68.0076L231.55 67.4796ZM232.286 64.6716V65.2556H234.886V64.6716H232.286ZM232.286 63.6956V64.2716H234.886V63.6956H232.286ZM231.79 63.2796H235.398V65.6716H231.79V63.2796ZM235.11 61.0156L235.406 61.4796C235.092 61.5436 234.729 61.6023 234.318 61.6556C233.908 61.709 233.481 61.7543 233.038 61.7916C232.601 61.8236 232.182 61.845 231.782 61.8556C231.772 61.7916 231.75 61.717 231.718 61.6316C231.692 61.5463 231.665 61.4716 231.638 61.4076C231.937 61.3916 232.244 61.373 232.558 61.3516C232.878 61.325 233.193 61.2956 233.502 61.2636C233.817 61.2316 234.11 61.1943 234.382 61.1516C234.66 61.109 234.902 61.0636 235.11 61.0156ZM235.486 62.8076H238.374V63.3596H235.486V62.8076ZM238.142 62.8076H238.718C238.718 62.8076 238.718 62.829 238.718 62.8716C238.718 62.909 238.718 62.9516 238.718 62.9996C238.718 63.0423 238.718 63.077 238.718 63.1036C238.697 63.9516 238.673 64.6663 238.646 65.2476C238.625 65.8236 238.598 66.2956 238.566 66.6636C238.534 67.0316 238.494 67.317 238.446 67.5196C238.404 67.717 238.348 67.8583 238.278 67.9436C238.209 68.0503 238.132 68.125 238.046 68.1676C237.961 68.2103 237.86 68.237 237.742 68.2476C237.63 68.2636 237.486 68.269 237.31 68.2636C237.134 68.2636 236.95 68.261 236.758 68.2556C236.753 68.1703 236.734 68.0716 236.702 67.9596C236.67 67.853 236.63 67.7596 236.582 67.6796C236.78 67.6956 236.961 67.7036 237.126 67.7036C237.292 67.709 237.412 67.7116 237.486 67.7116C237.55 67.7116 237.604 67.7036 237.646 67.6876C237.689 67.6716 237.729 67.6396 237.766 67.5916C237.82 67.5276 237.865 67.4023 237.902 67.2156C237.94 67.0236 237.972 66.749 237.998 66.3916C238.025 66.0343 238.049 65.573 238.07 65.0076C238.097 64.4423 238.121 63.7543 238.142 62.9436V62.8076ZM236.454 61.0396H237.038C237.033 61.6743 237.022 62.2876 237.006 62.8796C236.996 63.4716 236.961 64.0343 236.902 64.5676C236.844 65.101 236.745 65.5996 236.606 66.0636C236.473 66.5276 236.284 66.9516 236.038 67.3356C235.798 67.7143 235.486 68.0476 235.102 68.3356C235.076 68.2876 235.036 68.237 234.982 68.1836C234.929 68.1303 234.873 68.077 234.814 68.0236C234.761 67.9756 234.71 67.9356 234.662 67.9036C235.025 67.6423 235.321 67.3356 235.55 66.9836C235.78 66.6263 235.956 66.2316 236.078 65.7996C236.206 65.3623 236.294 64.893 236.342 64.3916C236.396 63.885 236.428 63.3516 236.438 62.7916C236.449 62.2263 236.454 61.6423 236.454 61.0396ZM246.014 62.3356C245.988 62.3943 245.964 62.4556 245.942 62.5196C245.926 62.5836 245.91 62.6556 245.894 62.7356C245.852 62.949 245.796 63.1836 245.726 63.4396C245.657 63.6903 245.572 63.9516 245.47 64.2236C245.374 64.4903 245.26 64.7516 245.126 65.0076C244.998 65.2583 244.857 65.485 244.702 65.6876C244.457 65.997 244.185 66.2876 243.886 66.5596C243.588 66.8263 243.246 67.0663 242.862 67.2796C242.478 67.493 242.041 67.677 241.55 67.8316L241.006 67.2316C241.529 67.0983 241.98 66.9383 242.358 66.7516C242.742 66.5596 243.078 66.341 243.366 66.0956C243.654 65.8503 243.908 65.5863 244.126 65.3036C244.318 65.0636 244.484 64.789 244.622 64.4796C244.766 64.1703 244.884 63.861 244.974 63.5516C245.07 63.237 245.137 62.9516 245.174 62.6956C245.1 62.6956 244.958 62.6956 244.75 62.6956C244.542 62.6956 244.297 62.6956 244.014 62.6956C243.732 62.6956 243.436 62.6956 243.126 62.6956C242.822 62.6956 242.529 62.6956 242.246 62.6956C241.964 62.6956 241.718 62.6956 241.51 62.6956C241.302 62.6956 241.161 62.6956 241.086 62.6956C240.926 62.6956 240.78 62.6983 240.646 62.7036C240.513 62.709 240.393 62.7143 240.286 62.7196V62.0156C240.361 62.021 240.444 62.029 240.534 62.0396C240.625 62.0503 240.718 62.0583 240.814 62.0636C240.91 62.0636 241.001 62.0636 241.086 62.0636C241.15 62.0636 241.265 62.0636 241.43 62.0636C241.596 62.0636 241.79 62.0636 242.014 62.0636C242.244 62.0636 242.486 62.0636 242.742 62.0636C243.004 62.0636 243.26 62.0636 243.51 62.0636C243.766 62.0636 244.004 62.0636 244.222 62.0636C244.446 62.0636 244.636 62.0636 244.79 62.0636C244.945 62.0636 245.049 62.0636 245.102 62.0636C245.161 62.0636 245.228 62.0636 245.302 62.0636C245.377 62.0583 245.452 62.045 245.526 62.0236L246.014 62.3356ZM248.206 62.1756C248.366 62.181 248.502 62.1863 248.614 62.1916C248.726 62.1916 248.828 62.1916 248.918 62.1916C248.982 62.1916 249.1 62.1916 249.27 62.1916C249.441 62.1916 249.646 62.1916 249.886 62.1916C250.132 62.1916 250.393 62.1916 250.67 62.1916C250.948 62.1916 251.222 62.1916 251.494 62.1916C251.772 62.1916 252.03 62.1916 252.27 62.1916C252.51 62.1916 252.713 62.1916 252.878 62.1916C253.044 62.1916 253.156 62.1916 253.214 62.1916C253.3 62.1916 253.406 62.1916 253.534 62.1916C253.668 62.1863 253.796 62.181 253.918 62.1756C253.913 62.2716 253.908 62.3756 253.902 62.4876C253.902 62.5943 253.902 62.6983 253.902 62.7996C253.902 62.853 253.902 62.9596 253.902 63.1196C253.902 63.2743 253.902 63.4636 253.902 63.6876C253.902 63.9116 253.902 64.1543 253.902 64.4156C253.902 64.6716 253.902 64.9276 253.902 65.1836C253.902 65.4396 253.902 65.677 253.902 65.8956C253.902 66.1143 253.902 66.301 253.902 66.4556C253.902 66.605 253.902 66.701 253.902 66.7436C253.902 66.8023 253.902 66.8823 253.902 66.9836C253.902 67.085 253.902 67.1863 253.902 67.2876C253.908 67.389 253.91 67.4796 253.91 67.5596C253.916 67.6343 253.918 67.685 253.918 67.7116H253.23C253.23 67.6796 253.23 67.6156 253.23 67.5196C253.236 67.4183 253.238 67.3063 253.238 67.1836C253.244 67.0556 253.246 66.9356 253.246 66.8236C253.246 66.7863 253.246 66.685 253.246 66.5196C253.246 66.3543 253.246 66.1516 253.246 65.9116C253.246 65.6663 253.246 65.405 253.246 65.1276C253.246 64.845 253.246 64.5703 253.246 64.3036C253.246 64.0316 253.246 63.7836 253.246 63.5596C253.246 63.3356 253.246 63.157 253.246 63.0236C253.246 62.8903 253.246 62.8236 253.246 62.8236H248.87C248.87 62.8236 248.87 62.8903 248.87 63.0236C248.87 63.1516 248.87 63.3276 248.87 63.5516C248.87 63.7756 248.87 64.0236 248.87 64.2956C248.87 64.5623 248.87 64.8343 248.87 65.1116C248.87 65.389 248.87 65.6503 248.87 65.8956C248.87 66.1356 248.87 66.3383 248.87 66.5036C248.87 66.669 248.87 66.7756 248.87 66.8236C248.87 66.893 248.87 66.973 248.87 67.0636C248.87 67.1543 248.87 67.245 248.87 67.3356C248.876 67.421 248.878 67.4983 248.878 67.5676C248.884 67.637 248.886 67.685 248.886 67.7116H248.198C248.198 67.685 248.198 67.6343 248.198 67.5596C248.204 67.4796 248.206 67.389 248.206 67.2876C248.212 67.1863 248.214 67.0876 248.214 66.9916C248.214 66.8903 248.214 66.805 248.214 66.7356C248.214 66.693 248.214 66.5943 248.214 66.4396C248.214 66.285 248.214 66.0956 248.214 65.8716C248.214 65.6476 248.214 65.4076 248.214 65.1516C248.214 64.8903 248.214 64.6316 248.214 64.3756C248.214 64.1143 248.214 63.8743 248.214 63.6556C248.214 63.4316 248.214 63.245 248.214 63.0956C248.214 62.941 248.214 62.8423 248.214 62.7996C248.214 62.7036 248.214 62.5996 248.214 62.4876C248.214 62.3756 248.212 62.2716 248.206 62.1756ZM253.502 66.6236V67.2476H248.558V66.6236H253.502ZM255.766 64.1916C255.846 64.197 255.945 64.205 256.062 64.2156C256.18 64.221 256.308 64.2263 256.446 64.2316C256.59 64.2316 256.734 64.2316 256.878 64.2316C256.964 64.2316 257.094 64.2316 257.27 64.2316C257.452 64.2316 257.662 64.2316 257.902 64.2316C258.142 64.2316 258.396 64.2316 258.662 64.2316C258.934 64.2316 259.204 64.2316 259.47 64.2316C259.742 64.2316 259.998 64.2316 260.238 64.2316C260.484 64.2316 260.694 64.2316 260.87 64.2316C261.046 64.2316 261.177 64.2316 261.262 64.2316C261.465 64.2316 261.638 64.2263 261.782 64.2156C261.926 64.205 262.041 64.197 262.126 64.1916V64.9756C262.046 64.9703 261.926 64.9623 261.766 64.9516C261.612 64.941 261.446 64.9356 261.27 64.9356C261.185 64.9356 261.052 64.9356 260.87 64.9356C260.689 64.9356 260.478 64.9356 260.238 64.9356C260.004 64.9356 259.75 64.9356 259.478 64.9356C259.206 64.9356 258.934 64.9356 258.662 64.9356C258.396 64.9356 258.142 64.9356 257.902 64.9356C257.668 64.9356 257.46 64.9356 257.278 64.9356C257.097 64.9356 256.964 64.9356 256.878 64.9356C256.66 64.9356 256.452 64.941 256.254 64.9516C256.057 64.957 255.894 64.965 255.766 64.9756V64.1916ZM219.39 75.7676C219.55 75.7676 219.694 75.805 219.822 75.8796C219.95 75.9543 220.052 76.0556 220.126 76.1836C220.201 76.3116 220.238 76.4556 220.238 76.6156C220.238 76.7703 220.201 76.9143 220.126 77.0476C220.052 77.1756 219.95 77.277 219.822 77.3516C219.694 77.4263 219.55 77.4636 219.39 77.4636C219.236 77.4636 219.092 77.4263 218.958 77.3516C218.83 77.277 218.729 77.1756 218.654 77.0476C218.58 76.9143 218.542 76.7703 218.542 76.6156C218.542 76.4556 218.58 76.3116 218.654 76.1836C218.729 76.0556 218.83 75.9543 218.958 75.8796C219.092 75.805 219.236 75.7676 219.39 75.7676ZM224.334 79.2236H230.27V79.7916H224.334V79.2236ZM223.766 73.4556H230.846V74.0236H223.766V73.4556ZM224.014 74.8236H224.598V80.2956H224.014V74.8236ZM230.03 74.8236H230.614V80.2716H230.03V74.8236ZM226.966 73.6316H227.574V75.1756H226.966V73.6316ZM227.006 75.1356H227.542V78.3036H227.006V75.1356ZM225.87 76.9516V78.0076H228.686V76.9516H225.87ZM225.87 75.4236V76.4716H228.686V75.4236H225.87ZM225.358 74.9196H229.214V78.5196H225.358V74.9196ZM234.054 76.4956H236.254V76.9836H234.054V76.4956ZM234.054 77.8876H236.27V78.3756H234.054V77.8876ZM232.414 79.3116H238.062V79.8716H232.414V79.3116ZM232.046 75.0476H238.382V80.2956H237.774V75.6076H232.622V80.2956H232.046V75.0476ZM233.774 75.3916H234.326V79.5756H233.774V75.3916ZM236.022 75.3916H236.574V79.5516H236.022V75.3916ZM234.814 73.7276L235.518 73.8956C235.433 74.1623 235.348 74.437 235.262 74.7196C235.177 75.0023 235.094 75.245 235.014 75.4476L234.47 75.2876C234.513 75.1436 234.556 74.981 234.598 74.7996C234.646 74.6183 234.689 74.4343 234.726 74.2476C234.769 74.0556 234.798 73.8823 234.814 73.7276ZM231.678 73.4636H238.774V74.0396H231.678V73.4636ZM241.07 76.1116V78.9516H240.502V76.6716H239.486V76.1116H241.07ZM241.07 78.6236C241.257 78.9383 241.521 79.1756 241.862 79.3356C242.209 79.4956 242.628 79.5836 243.118 79.5996C243.337 79.605 243.606 79.6103 243.926 79.6156C244.246 79.6156 244.585 79.6156 244.942 79.6156C245.3 79.6103 245.641 79.6023 245.966 79.5916C246.297 79.581 246.582 79.5676 246.822 79.5516C246.801 79.5943 246.777 79.6503 246.75 79.7196C246.724 79.789 246.7 79.8583 246.678 79.9276C246.657 79.997 246.641 80.061 246.63 80.1196C246.412 80.1303 246.148 80.1383 245.838 80.1436C245.534 80.1543 245.214 80.1596 244.878 80.1596C244.548 80.1596 244.228 80.157 243.918 80.1516C243.614 80.1516 243.348 80.149 243.118 80.1436C242.574 80.1223 242.118 80.029 241.75 79.8636C241.382 79.7036 241.073 79.4583 240.822 79.1276C240.652 79.309 240.476 79.4903 240.294 79.6716C240.118 79.8583 239.937 80.045 239.75 80.2316L239.422 79.6716C239.593 79.533 239.78 79.3703 239.982 79.1836C240.185 78.997 240.374 78.8103 240.55 78.6236H241.07ZM239.534 73.3996L239.998 73.0956C240.158 73.2236 240.321 73.3676 240.486 73.5276C240.652 73.6876 240.801 73.8476 240.934 74.0076C241.068 74.1676 241.172 74.3196 241.246 74.4636L240.75 74.7996C240.681 74.661 240.58 74.509 240.446 74.3436C240.318 74.1783 240.174 74.013 240.014 73.8476C239.86 73.6823 239.7 73.533 239.534 73.3996ZM242.262 74.5116V75.1916H245.822V74.5116H242.262ZM241.726 74.1276H246.374V75.5756H241.726V74.1276ZM241.462 73.2396H246.678V73.6796H241.462V73.2396ZM241.366 75.9996H246.71V76.4476H241.366V75.9996ZM243.078 73.3996H243.566V75.4476H243.078V73.3996ZM244.414 73.3996H244.902V75.4476H244.414V73.3996ZM243.214 75.3436L243.75 75.4476C243.548 76.0023 243.249 76.4796 242.854 76.8796C242.46 77.2743 242.02 77.597 241.534 77.8476C241.508 77.8103 241.47 77.7676 241.422 77.7196C241.374 77.6716 241.324 77.6236 241.27 77.5756C241.222 77.5276 241.177 77.4903 241.134 77.4636C241.614 77.245 242.038 76.957 242.406 76.5996C242.774 76.2423 243.044 75.8236 243.214 75.3436ZM245.07 76.1036C245.193 76.285 245.35 76.4636 245.542 76.6396C245.74 76.8156 245.953 76.973 246.182 77.1116C246.412 77.2503 246.641 77.3623 246.87 77.4476C246.812 77.4956 246.748 77.5623 246.678 77.6476C246.609 77.7276 246.553 77.8023 246.51 77.8716C246.276 77.765 246.038 77.629 245.798 77.4636C245.564 77.293 245.345 77.1063 245.142 76.9036C244.94 76.6956 244.769 76.4823 244.63 76.2636L245.07 76.1036ZM242.686 77.7756H244.782V77.2716H242.51V76.9036H245.294V78.1436H242.686V77.7756ZM242.414 77.7756H242.958V78.5516C242.958 78.6476 242.993 78.709 243.062 78.7356C243.137 78.7623 243.297 78.7756 243.542 78.7756C243.585 78.7756 243.662 78.7756 243.774 78.7756C243.892 78.7756 244.022 78.7756 244.166 78.7756C244.316 78.7756 244.465 78.7756 244.614 78.7756C244.764 78.7756 244.9 78.7756 245.022 78.7756C245.145 78.7756 245.238 78.7756 245.302 78.7756C245.425 78.7756 245.516 78.7623 245.574 78.7356C245.638 78.709 245.684 78.6503 245.71 78.5596C245.737 78.4636 245.756 78.325 245.766 78.1436C245.825 78.181 245.9 78.2156 245.99 78.2476C246.081 78.2743 246.161 78.2956 246.23 78.3116C246.214 78.5516 246.177 78.7383 246.118 78.8716C246.065 78.9996 245.977 79.0876 245.854 79.1356C245.737 79.1836 245.572 79.2076 245.358 79.2076C245.321 79.2076 245.241 79.2076 245.118 79.2076C244.996 79.2076 244.852 79.2076 244.686 79.2076C244.521 79.2076 244.356 79.2076 244.19 79.2076C244.025 79.2076 243.881 79.2076 243.758 79.2076C243.636 79.2076 243.556 79.2076 243.518 79.2076C243.236 79.2076 243.014 79.1916 242.854 79.1596C242.694 79.1223 242.58 79.0556 242.51 78.9596C242.446 78.8636 242.414 78.7303 242.414 78.5596V77.7756ZM252.174 72.9356L252.774 73.0476C252.545 73.437 252.246 73.8156 251.878 74.1836C251.51 74.5516 251.057 74.885 250.518 75.1836C250.492 75.1356 250.454 75.0876 250.406 75.0396C250.364 74.9863 250.318 74.9356 250.27 74.8876C250.222 74.8343 250.177 74.7943 250.134 74.7676C250.63 74.517 251.049 74.2263 251.39 73.8956C251.737 73.565 251.998 73.245 252.174 72.9356ZM251.99 73.6316H253.926V74.1356H251.63L251.99 73.6316ZM253.718 73.6316H253.83L253.942 73.6076L254.318 73.7916C254.164 74.2076 253.956 74.5836 253.694 74.9196C253.438 75.2503 253.145 75.541 252.814 75.7916C252.489 76.0423 252.137 76.2583 251.758 76.4396C251.38 76.621 250.988 76.7676 250.582 76.8796C250.556 76.805 250.51 76.7196 250.446 76.6236C250.388 76.5276 250.329 76.453 250.27 76.3996C250.644 76.309 251.006 76.1836 251.358 76.0236C251.716 75.8636 252.049 75.6743 252.358 75.4556C252.668 75.2316 252.94 74.9756 253.174 74.6876C253.409 74.3996 253.59 74.0823 253.718 73.7356V73.6316ZM251.15 74.7036L251.534 74.3916C251.684 74.477 251.836 74.5756 251.99 74.6876C252.145 74.7996 252.289 74.9116 252.422 75.0236C252.561 75.1356 252.673 75.2423 252.758 75.3436L252.358 75.6876C252.278 75.5863 252.169 75.477 252.03 75.3596C251.897 75.2423 251.753 75.125 251.598 75.0076C251.449 74.8903 251.3 74.789 251.15 74.7036ZM252.606 75.9516L253.206 76.0556C252.956 76.4876 252.617 76.909 252.19 77.3196C251.769 77.7303 251.244 78.0956 250.614 78.4156C250.593 78.373 250.558 78.325 250.51 78.2716C250.468 78.2183 250.422 78.1676 250.374 78.1196C250.326 78.0663 250.281 78.0263 250.238 77.9996C250.628 77.813 250.974 77.6076 251.278 77.3836C251.588 77.1543 251.854 76.917 252.078 76.6716C252.302 76.421 252.478 76.181 252.606 75.9516ZM252.382 76.7036H254.294V77.2156H252.022L252.382 76.7036ZM254.118 76.7036H254.238L254.35 76.6796L254.734 76.8476C254.564 77.3596 254.334 77.8076 254.046 78.1916C253.758 78.5703 253.422 78.8983 253.038 79.1756C252.66 79.4476 252.246 79.6743 251.798 79.8556C251.356 80.0423 250.892 80.189 250.406 80.2956C250.38 80.2263 250.337 80.1383 250.278 80.0316C250.22 79.9303 250.161 79.8476 250.102 79.7836C250.556 79.6983 250.99 79.5756 251.406 79.4156C251.828 79.2556 252.214 79.053 252.566 78.8076C252.924 78.5623 253.236 78.2743 253.502 77.9436C253.769 77.613 253.974 77.2343 254.118 76.8076V76.7036ZM251.326 77.9116L251.742 77.5676C251.908 77.6636 252.081 77.773 252.262 77.8956C252.444 78.0183 252.612 78.1436 252.766 78.2716C252.921 78.3996 253.046 78.517 253.142 78.6236L252.71 78.9996C252.62 78.8876 252.497 78.7676 252.342 78.6396C252.193 78.5116 252.03 78.3836 251.854 78.2556C251.678 78.1223 251.502 78.0076 251.326 77.9116ZM248.734 73.5996H249.326V80.2796H248.734V73.5996ZM247.43 75.1916H250.326V75.7516H247.43V75.1916ZM248.766 75.4076L249.142 75.5676C249.062 75.8503 248.964 76.1436 248.846 76.4476C248.729 76.7463 248.601 77.045 248.462 77.3436C248.329 77.637 248.185 77.9143 248.03 78.1756C247.881 78.4316 247.729 78.6503 247.574 78.8316C247.542 78.7516 247.494 78.6583 247.43 78.5516C247.372 78.445 247.316 78.3543 247.262 78.2796C247.412 78.1196 247.558 77.9276 247.702 77.7036C247.846 77.4796 247.985 77.237 248.118 76.9756C248.257 76.7143 248.382 76.4503 248.494 76.1836C248.606 75.9116 248.697 75.653 248.766 75.4076ZM249.926 73.0476L250.342 73.5116C250.097 73.6076 249.817 73.6983 249.502 73.7836C249.188 73.869 248.862 73.9436 248.526 74.0076C248.196 74.0663 247.873 74.117 247.558 74.1596C247.548 74.0956 247.524 74.021 247.486 73.9356C247.449 73.845 247.414 73.7676 247.382 73.7036C247.681 73.6503 247.988 73.5916 248.302 73.5276C248.622 73.4636 248.924 73.3916 249.206 73.3116C249.489 73.2263 249.729 73.1383 249.926 73.0476ZM249.294 76.2156C249.348 76.2636 249.425 76.341 249.526 76.4476C249.633 76.549 249.748 76.661 249.87 76.7836C249.993 76.901 250.102 77.013 250.198 77.1196C250.3 77.2263 250.372 77.3036 250.414 77.3516L250.054 77.8236C250.006 77.7436 249.937 77.6423 249.846 77.5196C249.761 77.397 249.665 77.2663 249.558 77.1276C249.452 76.989 249.35 76.861 249.254 76.7436C249.158 76.6263 249.078 76.533 249.014 76.4636L249.294 76.2156ZM260.542 74.4556L261.102 74.6156C260.67 75.6503 260.1 76.541 259.39 77.2876C258.686 78.0343 257.87 78.6396 256.942 79.1036C256.916 79.061 256.878 79.0103 256.83 78.9516C256.782 78.8876 256.732 78.8263 256.678 78.7676C256.625 78.709 256.577 78.661 256.534 78.6236C257.457 78.2076 258.257 77.6476 258.934 76.9436C259.617 76.2396 260.153 75.4103 260.542 74.4556ZM256.822 76.5356L257.15 76.1356C257.502 76.2796 257.868 76.4423 258.246 76.6236C258.625 76.805 258.993 76.997 259.35 77.1996C259.713 77.4023 260.049 77.6076 260.358 77.8156C260.668 78.0183 260.926 78.213 261.134 78.3996L260.774 78.8796C260.572 78.6876 260.318 78.4876 260.014 78.2796C259.71 78.0663 259.38 77.8556 259.022 77.6476C258.665 77.4343 258.297 77.2343 257.918 77.0476C257.545 76.8556 257.18 76.685 256.822 76.5356ZM256.75 74.6556L257.198 74.4556C257.358 74.669 257.51 74.9063 257.654 75.1676C257.804 75.4236 257.905 75.6476 257.958 75.8396L257.478 76.0636C257.425 75.8716 257.329 75.645 257.19 75.3836C257.052 75.117 256.905 74.8743 256.75 74.6556ZM258.278 74.3756L258.75 74.2076C258.889 74.4423 259.017 74.701 259.134 74.9836C259.252 75.261 259.329 75.501 259.366 75.7036L258.854 75.8876C258.838 75.7543 258.798 75.6023 258.734 75.4316C258.676 75.2556 258.606 75.077 258.526 74.8956C258.452 74.709 258.369 74.5356 258.278 74.3756ZM255.654 73.3116H262.27V80.2716H261.654V73.8876H256.254V80.2716H255.654V73.3116ZM255.998 79.3036H261.91V79.8876H255.998V79.3036Z" fill="black" fill-opacity="0.8"/>
<path d="M189.935 166.978L148.564 125.306C145.429 121.376 148.227 115.564 153.254 115.564H279.883C281.608 115.564 283.249 116.307 284.388 117.602L329.602 166.758C331.594 169.023 331.594 172.416 329.602 174.682L284.388 223.837C283.249 225.133 281.608 225.875 279.883 225.875H153.254C148.227 225.875 145.429 220.064 148.564 216.134L189.935 174.461C191.681 172.273 191.681 169.167 189.935 166.978Z" fill="#F1F0EC"/>
<path d="M194.287 165.79C194.474 165.818 194.675 165.836 194.889 165.846C195.104 165.855 195.323 165.86 195.547 165.86C195.687 165.86 195.939 165.86 196.303 165.86C196.677 165.86 197.097 165.86 197.563 165.86C198.039 165.86 198.511 165.86 198.977 165.86C199.453 165.86 199.878 165.86 200.251 165.86C200.625 165.86 200.891 165.86 201.049 165.86C201.273 165.86 201.497 165.855 201.721 165.846C201.945 165.836 202.146 165.818 202.323 165.79V166.952C202.155 166.933 201.955 166.924 201.721 166.924C201.497 166.914 201.269 166.91 201.035 166.91C200.877 166.91 200.611 166.91 200.237 166.91C199.873 166.91 199.458 166.91 198.991 166.91C198.525 166.91 198.053 166.91 197.577 166.91C197.111 166.91 196.691 166.91 196.317 166.91C195.953 166.91 195.697 166.91 195.547 166.91C195.333 166.91 195.118 166.914 194.903 166.924C194.689 166.933 194.483 166.942 194.287 166.952V165.79ZM203.345 169.486C203.317 169.542 203.28 169.612 203.233 169.696C203.196 169.77 203.173 169.836 203.163 169.892C202.977 170.582 202.72 171.278 202.393 171.978C202.067 172.668 201.642 173.298 201.119 173.868C200.382 174.67 199.584 175.296 198.725 175.744C197.876 176.192 197.003 176.542 196.107 176.794L195.239 175.8C196.229 175.594 197.148 175.272 197.997 174.834C198.847 174.395 199.57 173.863 200.167 173.238C200.597 172.79 200.947 172.29 201.217 171.74C201.497 171.18 201.703 170.648 201.833 170.144C201.731 170.144 201.535 170.144 201.245 170.144C200.965 170.144 200.62 170.144 200.209 170.144C199.799 170.144 199.355 170.144 198.879 170.144C198.413 170.144 197.937 170.144 197.451 170.144C196.975 170.144 196.527 170.144 196.107 170.144C195.697 170.144 195.337 170.144 195.029 170.144C194.731 170.144 194.521 170.144 194.399 170.144C194.231 170.144 194.026 170.148 193.783 170.158C193.541 170.158 193.289 170.167 193.027 170.186V169.01C193.289 169.038 193.536 169.061 193.769 169.08C194.003 169.089 194.213 169.094 194.399 169.094C194.502 169.094 194.698 169.094 194.987 169.094C195.277 169.094 195.627 169.094 196.037 169.094C196.448 169.094 196.891 169.094 197.367 169.094C197.843 169.094 198.319 169.094 198.795 169.094C199.271 169.094 199.715 169.094 200.125 169.094C200.536 169.094 200.886 169.094 201.175 169.094C201.474 169.094 201.675 169.094 201.777 169.094C201.936 169.094 202.085 169.084 202.225 169.066C202.365 169.047 202.473 169.019 202.547 168.982L203.345 169.486ZM216.841 166.91C216.795 167.012 216.753 167.12 216.715 167.232C216.687 167.344 216.659 167.47 216.631 167.61C216.557 167.983 216.459 168.394 216.337 168.842C216.216 169.28 216.067 169.738 215.889 170.214C215.721 170.68 215.521 171.138 215.287 171.586C215.063 172.024 214.816 172.421 214.545 172.776C214.116 173.317 213.64 173.826 213.117 174.302C212.595 174.768 211.997 175.188 211.325 175.562C210.653 175.935 209.888 176.257 209.029 176.528L208.077 175.478C208.992 175.244 209.781 174.964 210.443 174.638C211.115 174.302 211.703 173.919 212.207 173.49C212.711 173.06 213.155 172.598 213.537 172.104C213.873 171.684 214.163 171.203 214.405 170.662C214.657 170.12 214.863 169.579 215.021 169.038C215.189 168.487 215.306 167.988 215.371 167.54C215.241 167.54 214.993 167.54 214.629 167.54C214.265 167.54 213.836 167.54 213.341 167.54C212.847 167.54 212.329 167.54 211.787 167.54C211.255 167.54 210.742 167.54 210.247 167.54C209.753 167.54 209.323 167.54 208.959 167.54C208.595 167.54 208.348 167.54 208.217 167.54C207.937 167.54 207.681 167.544 207.447 167.554C207.214 167.563 207.004 167.572 206.817 167.582V166.35C206.948 166.359 207.093 166.373 207.251 166.392C207.41 166.41 207.573 166.424 207.741 166.434C207.909 166.434 208.068 166.434 208.217 166.434C208.329 166.434 208.53 166.434 208.819 166.434C209.109 166.434 209.449 166.434 209.841 166.434C210.243 166.434 210.667 166.434 211.115 166.434C211.573 166.434 212.021 166.434 212.459 166.434C212.907 166.434 213.323 166.434 213.705 166.434C214.097 166.434 214.429 166.434 214.699 166.434C214.97 166.434 215.152 166.434 215.245 166.434C215.348 166.434 215.465 166.434 215.595 166.434C215.726 166.424 215.857 166.401 215.987 166.364L216.841 166.91ZM228.251 170.9C228.251 169.985 228.363 169.131 228.587 168.338C228.821 167.544 229.147 166.807 229.567 166.126C229.987 165.435 230.477 164.805 231.037 164.236L231.877 164.67C231.345 165.22 230.883 165.822 230.491 166.476C230.099 167.12 229.796 167.81 229.581 168.548C229.376 169.276 229.273 170.06 229.273 170.9C229.273 171.73 229.376 172.514 229.581 173.252C229.796 173.989 230.099 174.68 230.491 175.324C230.883 175.968 231.345 176.57 231.877 177.13L231.037 177.564C230.477 176.985 229.987 176.355 229.567 175.674C229.147 174.992 228.821 174.255 228.587 173.462C228.363 172.659 228.251 171.805 228.251 170.9ZM239.922 166.038H241.463V172.735C241.463 173.447 241.295 174.079 240.961 174.629C240.626 175.176 240.155 175.607 239.549 175.921C238.942 176.233 238.231 176.389 237.416 176.389C236.604 176.389 235.895 176.233 235.288 175.921C234.682 175.607 234.211 175.176 233.876 174.629C233.541 174.079 233.374 173.447 233.374 172.735V166.038H234.91V172.61C234.91 173.071 235.011 173.48 235.213 173.838C235.419 174.196 235.709 174.478 236.084 174.684C236.458 174.886 236.902 174.987 237.416 174.987C237.933 174.987 238.379 174.886 238.753 174.684C239.131 174.478 239.419 174.196 239.618 173.838C239.82 173.48 239.922 173.071 239.922 172.61V166.038ZM244.966 166.038V176.22H243.43V166.038H244.966ZM246.547 167.456H251.027V168.45H246.547V167.456ZM248.521 164.46H249.501V177.326H248.521V164.46ZM248.507 168.086L249.151 168.296C249.048 168.856 248.913 169.434 248.745 170.032C248.586 170.629 248.4 171.217 248.185 171.796C247.97 172.374 247.746 172.916 247.513 173.42C247.28 173.914 247.037 174.334 246.785 174.68C246.729 174.549 246.645 174.395 246.533 174.218C246.421 174.04 246.323 173.891 246.239 173.77C246.472 173.452 246.701 173.074 246.925 172.636C247.158 172.197 247.373 171.721 247.569 171.208C247.774 170.694 247.956 170.172 248.115 169.64C248.274 169.108 248.404 168.59 248.507 168.086ZM249.431 169.43C249.515 169.523 249.641 169.686 249.809 169.92C249.977 170.144 250.154 170.391 250.341 170.662C250.537 170.932 250.714 171.189 250.873 171.432C251.032 171.665 251.144 171.828 251.209 171.922L250.621 172.748C250.546 172.58 250.434 172.365 250.285 172.104C250.145 171.833 249.991 171.553 249.823 171.264C249.655 170.974 249.492 170.708 249.333 170.466C249.184 170.214 249.067 170.018 248.983 169.878L249.431 169.43ZM252.399 167.764H257.747V168.66H252.399V167.764ZM255.045 165.412C254.784 165.804 254.452 166.205 254.051 166.616C253.65 167.017 253.206 167.404 252.721 167.778C252.245 168.142 251.746 168.459 251.223 168.73C251.176 168.599 251.097 168.45 250.985 168.282C250.882 168.114 250.789 167.974 250.705 167.862C251.228 167.619 251.732 167.316 252.217 166.952C252.702 166.578 253.141 166.182 253.533 165.762C253.934 165.332 254.261 164.908 254.513 164.488H255.479C255.815 164.945 256.202 165.388 256.641 165.818C257.089 166.238 257.56 166.616 258.055 166.952C258.55 167.288 259.04 167.563 259.525 167.778C259.422 167.899 259.32 168.048 259.217 168.226C259.114 168.394 259.03 168.548 258.965 168.688C258.489 168.445 258.004 168.146 257.509 167.792C257.014 167.437 256.552 167.054 256.123 166.644C255.703 166.233 255.344 165.822 255.045 165.412ZM252.427 170.802V172.72H257.677V170.802H252.427ZM251.489 169.962H258.643V173.574H251.489V169.962ZM254.527 168.31H255.493V172.02C255.493 172.514 255.437 173.018 255.325 173.532C255.222 174.036 255.017 174.526 254.709 175.002C254.401 175.468 253.958 175.907 253.379 176.318C252.8 176.728 252.044 177.092 251.111 177.41C251.083 177.326 251.032 177.232 250.957 177.13C250.892 177.036 250.817 176.938 250.733 176.836C250.658 176.742 250.588 176.668 250.523 176.612C251.41 176.332 252.119 176.014 252.651 175.66C253.192 175.305 253.594 174.927 253.855 174.526C254.126 174.124 254.303 173.709 254.387 173.28C254.48 172.85 254.527 172.421 254.527 171.992V168.31ZM255.633 173.042C255.913 173.732 256.23 174.297 256.585 174.736C256.94 175.174 257.355 175.529 257.831 175.8C258.307 176.07 258.844 176.308 259.441 176.514C259.31 176.626 259.184 176.761 259.063 176.92C258.951 177.088 258.867 177.251 258.811 177.41C258.167 177.158 257.588 176.864 257.075 176.528C256.571 176.192 256.128 175.762 255.745 175.24C255.362 174.708 255.026 174.036 254.737 173.224L255.633 173.042ZM270.277 164.46H271.313V175.884C271.313 176.257 271.262 176.532 271.159 176.71C271.066 176.896 270.902 177.036 270.669 177.13C270.445 177.214 270.123 177.265 269.703 177.284C269.283 177.312 268.77 177.326 268.163 177.326C268.154 177.232 268.126 177.116 268.079 176.976C268.042 176.845 267.995 176.71 267.939 176.57C267.892 176.439 267.841 176.322 267.785 176.22C268.27 176.238 268.714 176.248 269.115 176.248C269.516 176.248 269.787 176.243 269.927 176.234C270.058 176.234 270.146 176.21 270.193 176.164C270.249 176.108 270.277 176.014 270.277 175.884V164.46ZM266.497 170.55L267.365 170.116C267.617 170.452 267.86 170.816 268.093 171.208C268.326 171.59 268.536 171.968 268.723 172.342C268.919 172.715 269.068 173.056 269.171 173.364L268.261 173.84C268.158 173.541 268.009 173.2 267.813 172.818C267.626 172.435 267.416 172.048 267.183 171.656C266.959 171.254 266.73 170.886 266.497 170.55ZM265.825 167.68H273.021V168.688H265.825V167.68ZM260.757 168.702H265.125V169.528H260.757V168.702ZM260.827 164.95H265.139V165.79H260.827V164.95ZM260.757 170.564H265.125V171.404H260.757V170.564ZM260.085 166.784H265.643V167.666H260.085V166.784ZM261.247 172.454H265.083V176.542H261.247V175.674H264.145V173.336H261.247V172.454ZM260.729 172.454H261.667V177.186H260.729V172.454ZM277.557 170.9C277.557 171.805 277.44 172.659 277.207 173.462C276.983 174.255 276.661 174.992 276.241 175.674C275.821 176.355 275.331 176.985 274.771 177.564L273.931 177.13C274.463 176.57 274.925 175.968 275.317 175.324C275.709 174.68 276.008 173.989 276.213 173.252C276.428 172.514 276.535 171.73 276.535 170.9C276.535 170.06 276.428 169.276 276.213 168.548C276.008 167.81 275.709 167.12 275.317 166.476C274.925 165.822 274.463 165.22 273.931 164.67L274.771 164.236C275.331 164.805 275.821 165.435 276.241 166.126C276.661 166.807 276.983 167.544 277.207 168.338C277.44 169.131 277.557 169.985 277.557 170.9Z" fill="black" fill-opacity="0.8"/>
<path d="M337.835 166.978L296.465 125.306C293.329 121.376 296.128 115.564 301.155 115.564H427.783C429.508 115.564 431.15 116.307 432.289 117.602L477.503 166.758C479.495 169.023 479.495 172.416 477.503 174.682L432.289 223.837C431.15 225.133 429.508 225.875 427.783 225.875H301.155C296.128 225.875 293.329 220.064 296.465 216.134L337.835 174.461C339.582 172.273 339.582 169.167 337.835 166.978Z" fill="#F1F0EC"/>
<path d="M362.312 165.986C362.517 166.004 362.723 166.023 362.928 166.042C363.143 166.06 363.362 166.07 363.586 166.07C363.745 166.07 363.987 166.07 364.314 166.07C364.641 166.07 365.005 166.07 365.406 166.07C365.817 166.07 366.223 166.07 366.624 166.07C367.025 166.07 367.385 166.07 367.702 166.07C368.029 166.07 368.271 166.07 368.43 166.07C368.626 166.07 368.841 166.065 369.074 166.056C369.317 166.037 369.536 166.014 369.732 165.986V167.148C369.527 167.129 369.307 167.12 369.074 167.12C368.85 167.11 368.635 167.106 368.43 167.106C368.271 167.106 368.029 167.106 367.702 167.106C367.385 167.106 367.025 167.106 366.624 167.106C366.223 167.106 365.821 167.106 365.42 167.106C365.019 167.106 364.655 167.106 364.328 167.106C364.001 167.106 363.759 167.106 363.6 167.106C363.367 167.106 363.138 167.11 362.914 167.12C362.699 167.12 362.499 167.129 362.312 167.148V165.986ZM360.66 169.5C360.847 169.518 361.038 169.537 361.234 169.556C361.439 169.565 361.649 169.57 361.864 169.57C361.985 169.57 362.223 169.57 362.578 169.57C362.942 169.57 363.381 169.57 363.894 169.57C364.417 169.57 364.977 169.57 365.574 169.57C366.171 169.57 366.769 169.57 367.366 169.57C367.963 169.57 368.519 169.57 369.032 169.57C369.555 169.57 369.993 169.57 370.348 169.57C370.703 169.57 370.931 169.57 371.034 169.57C371.183 169.57 371.361 169.565 371.566 169.556C371.771 169.546 371.958 169.528 372.126 169.5V170.662C371.977 170.652 371.799 170.648 371.594 170.648C371.398 170.638 371.211 170.634 371.034 170.634C370.931 170.634 370.703 170.634 370.348 170.634C369.993 170.634 369.555 170.634 369.032 170.634C368.519 170.634 367.963 170.634 367.366 170.634C366.769 170.634 366.171 170.634 365.574 170.634C364.977 170.634 364.417 170.634 363.894 170.634C363.381 170.634 362.942 170.634 362.578 170.634C362.223 170.634 361.985 170.634 361.864 170.634C361.659 170.634 361.453 170.634 361.248 170.634C361.043 170.634 360.847 170.643 360.66 170.662V169.5ZM367.24 170.074C367.24 170.951 367.175 171.758 367.044 172.496C366.923 173.224 366.708 173.882 366.4 174.47C366.232 174.778 366.003 175.09 365.714 175.408C365.434 175.716 365.117 176.01 364.762 176.29C364.417 176.57 364.043 176.812 363.642 177.018L362.606 176.248C363.147 176.024 363.656 175.72 364.132 175.338C364.608 174.955 364.981 174.544 365.252 174.106C365.607 173.546 365.831 172.93 365.924 172.258C366.017 171.576 366.064 170.848 366.064 170.074H367.24ZM370.46 164.852C370.581 165.01 370.712 165.206 370.852 165.44C370.992 165.664 371.127 165.892 371.258 166.126C371.398 166.359 371.515 166.574 371.608 166.77L370.852 167.106C370.712 166.816 370.535 166.49 370.32 166.126C370.105 165.752 369.905 165.43 369.718 165.16L370.46 164.852ZM372 164.292C372.121 164.46 372.257 164.66 372.406 164.894C372.555 165.127 372.7 165.36 372.84 165.594C372.98 165.818 373.092 166.018 373.176 166.196L372.42 166.532C372.271 166.224 372.089 165.892 371.874 165.538C371.669 165.174 371.463 164.861 371.258 164.6L372 164.292ZM384.362 165.538C384.446 165.706 384.539 165.906 384.642 166.14C384.745 166.373 384.843 166.611 384.936 166.854C385.039 167.087 385.118 167.297 385.174 167.484L384.488 167.722C384.423 167.516 384.343 167.297 384.25 167.064C384.157 166.83 384.063 166.597 383.97 166.364C383.877 166.13 383.783 165.925 383.69 165.748L384.362 165.538ZM385.748 165.118C385.841 165.286 385.939 165.486 386.042 165.72C386.145 165.944 386.247 166.172 386.35 166.406C386.453 166.639 386.532 166.854 386.588 167.05L385.902 167.274C385.79 166.966 385.659 166.63 385.51 166.266C385.361 165.902 385.216 165.589 385.076 165.328L385.748 165.118ZM383.032 170.032C383.032 170.965 382.971 171.796 382.85 172.524C382.729 173.242 382.519 173.882 382.22 174.442C381.931 174.992 381.525 175.487 381.002 175.926C380.489 176.355 379.831 176.752 379.028 177.116L378.09 176.22C378.725 175.977 379.28 175.706 379.756 175.408C380.232 175.1 380.629 174.722 380.946 174.274C381.263 173.826 381.501 173.27 381.66 172.608C381.819 171.936 381.898 171.11 381.898 170.13V166.728C381.898 166.448 381.889 166.205 381.87 166C381.861 165.785 381.851 165.645 381.842 165.58H383.102C383.093 165.645 383.079 165.785 383.06 166C383.041 166.205 383.032 166.448 383.032 166.728V170.032ZM377.978 165.664C377.978 165.729 377.969 165.855 377.95 166.042C377.931 166.219 377.922 166.429 377.922 166.672V171.81C377.922 171.978 377.927 172.155 377.936 172.342C377.945 172.519 377.95 172.673 377.95 172.804C377.959 172.934 377.969 173.023 377.978 173.07H376.732C376.741 173.023 376.751 172.934 376.76 172.804C376.769 172.673 376.779 172.519 376.788 172.342C376.797 172.164 376.802 171.987 376.802 171.81V166.686C376.802 166.527 376.797 166.359 376.788 166.182C376.779 165.995 376.76 165.822 376.732 165.664H377.978ZM373.89 168.38C373.927 168.389 374.021 168.403 374.17 168.422C374.319 168.431 374.492 168.445 374.688 168.464C374.893 168.473 375.094 168.478 375.29 168.478H384.558C384.875 168.478 385.146 168.468 385.37 168.45C385.594 168.431 385.753 168.412 385.846 168.394V169.584C385.771 169.574 385.617 169.565 385.384 169.556C385.151 169.546 384.88 169.542 384.572 169.542H375.29C375.085 169.542 374.884 169.546 374.688 169.556C374.501 169.556 374.333 169.56 374.184 169.57C374.044 169.579 373.946 169.588 373.89 169.598V168.38ZM388.142 171.166C389.355 170.839 390.485 170.442 391.53 169.976C392.575 169.509 393.485 169.033 394.26 168.548C394.745 168.24 395.217 167.908 395.674 167.554C396.141 167.19 396.579 166.812 396.99 166.42C397.401 166.028 397.765 165.64 398.082 165.258L399.02 166.126C398.628 166.546 398.203 166.956 397.746 167.358C397.289 167.759 396.803 168.146 396.29 168.52C395.786 168.884 395.259 169.238 394.708 169.584C394.195 169.892 393.616 170.209 392.972 170.536C392.328 170.862 391.642 171.17 390.914 171.46C390.186 171.749 389.449 172.015 388.702 172.258L388.142 171.166ZM394.036 169.136L395.24 168.772V175.156C395.24 175.333 395.24 175.52 395.24 175.716C395.249 175.912 395.259 176.094 395.268 176.262C395.287 176.43 395.305 176.56 395.324 176.654H393.952C393.961 176.56 393.971 176.43 393.98 176.262C393.999 176.094 394.013 175.912 394.022 175.716C394.031 175.52 394.036 175.333 394.036 175.156V169.136ZM403.85 165.958C404.102 166.126 404.391 166.336 404.718 166.588C405.045 166.83 405.376 167.092 405.712 167.372C406.057 167.642 406.379 167.908 406.678 168.17C406.977 168.431 407.224 168.66 407.42 168.856L406.538 169.738C406.361 169.56 406.132 169.341 405.852 169.08C405.572 168.818 405.264 168.548 404.928 168.268C404.592 167.978 404.261 167.708 403.934 167.456C403.607 167.194 403.313 166.98 403.052 166.812L403.85 165.958ZM402.646 175.338C403.467 175.216 404.214 175.048 404.886 174.834C405.567 174.619 406.188 174.376 406.748 174.106C407.308 173.835 407.807 173.564 408.246 173.294C408.965 172.846 409.627 172.332 410.234 171.754C410.841 171.166 411.373 170.559 411.83 169.934C412.287 169.308 412.651 168.711 412.922 168.142L413.594 169.332C413.277 169.91 412.885 170.498 412.418 171.096C411.951 171.693 411.424 172.267 410.836 172.818C410.248 173.368 409.599 173.868 408.89 174.316C408.423 174.605 407.91 174.89 407.35 175.17C406.799 175.45 406.193 175.706 405.53 175.94C404.877 176.164 404.163 176.346 403.388 176.486L402.646 175.338Z" fill="black" fill-opacity="0.8"/>
<path d="M485.079 166.978L443.709 125.306C440.574 121.376 443.372 115.564 448.399 115.564H590.786C592.511 115.564 594.153 116.307 595.292 117.602L640.506 166.758C642.498 169.023 642.498 172.416 640.506 174.682L595.292 223.837C594.153 225.133 592.511 225.875 590.786 225.875H448.399C443.372 225.875 440.574 220.064 443.709 216.134L485.079 174.461C486.826 172.273 486.826 169.167 485.079 166.978Z" fill="#F1F0EC"/>
<path d="M497.846 164.586C497.958 164.744 498.084 164.936 498.224 165.16C498.364 165.384 498.5 165.608 498.63 165.832C498.761 166.046 498.868 166.247 498.952 166.434L498.182 166.77C498.089 166.583 497.977 166.378 497.846 166.154C497.725 165.93 497.594 165.71 497.454 165.496C497.324 165.272 497.198 165.076 497.076 164.908L497.846 164.586ZM499.638 164.222C499.76 164.38 499.89 164.572 500.03 164.796C500.17 165.01 500.306 165.234 500.436 165.468C500.576 165.692 500.693 165.892 500.786 166.07L500.016 166.406C499.858 166.116 499.676 165.794 499.47 165.44C499.265 165.085 499.064 164.786 498.868 164.544L499.638 164.222ZM499.106 167.106C499.06 167.199 499.018 167.306 498.98 167.428C498.952 167.54 498.924 167.666 498.896 167.806C498.822 168.17 498.724 168.576 498.602 169.024C498.481 169.472 498.332 169.934 498.154 170.41C497.986 170.876 497.786 171.329 497.552 171.768C497.328 172.206 497.081 172.608 496.81 172.972C496.381 173.513 495.9 174.017 495.368 174.484C494.846 174.95 494.248 175.37 493.576 175.744C492.914 176.117 492.153 176.439 491.294 176.71L490.342 175.66C491.248 175.436 492.032 175.156 492.694 174.82C493.366 174.484 493.954 174.106 494.458 173.686C494.962 173.256 495.41 172.794 495.802 172.3C496.138 171.87 496.428 171.39 496.67 170.858C496.922 170.316 497.128 169.775 497.286 169.234C497.454 168.683 497.571 168.184 497.636 167.736C497.496 167.736 497.244 167.736 496.88 167.736C496.526 167.736 496.101 167.736 495.606 167.736C495.112 167.736 494.594 167.736 494.052 167.736C493.511 167.736 492.993 167.736 492.498 167.736C492.013 167.736 491.588 167.736 491.224 167.736C490.86 167.736 490.608 167.736 490.468 167.736C490.198 167.736 489.941 167.74 489.698 167.75C489.465 167.759 489.26 167.768 489.082 167.778V166.532C489.213 166.55 489.353 166.569 489.502 166.588C489.661 166.597 489.824 166.606 489.992 166.616C490.17 166.625 490.333 166.63 490.482 166.63C490.594 166.63 490.79 166.63 491.07 166.63C491.36 166.63 491.705 166.63 492.106 166.63C492.508 166.63 492.932 166.63 493.38 166.63C493.828 166.63 494.276 166.63 494.724 166.63C495.172 166.63 495.588 166.63 495.97 166.63C496.362 166.63 496.694 166.63 496.964 166.63C497.235 166.63 497.412 166.63 497.496 166.63C497.608 166.63 497.73 166.625 497.86 166.616C497.991 166.606 498.122 166.588 498.252 166.56L499.106 167.106ZM504.23 165.79C504.417 165.818 504.618 165.836 504.832 165.846C505.047 165.855 505.266 165.86 505.49 165.86C505.63 165.86 505.882 165.86 506.246 165.86C506.62 165.86 507.04 165.86 507.506 165.86C507.982 165.86 508.454 165.86 508.92 165.86C509.396 165.86 509.821 165.86 510.194 165.86C510.568 165.86 510.834 165.86 510.992 165.86C511.216 165.86 511.44 165.855 511.664 165.846C511.888 165.836 512.089 165.818 512.266 165.79V166.952C512.098 166.933 511.898 166.924 511.664 166.924C511.44 166.914 511.212 166.91 510.978 166.91C510.82 166.91 510.554 166.91 510.18 166.91C509.816 166.91 509.401 166.91 508.934 166.91C508.468 166.91 507.996 166.91 507.52 166.91C507.054 166.91 506.634 166.91 506.26 166.91C505.896 166.91 505.64 166.91 505.49 166.91C505.276 166.91 505.061 166.914 504.846 166.924C504.632 166.933 504.426 166.942 504.23 166.952V165.79ZM513.288 169.486C513.26 169.542 513.223 169.612 513.176 169.696C513.139 169.77 513.116 169.836 513.106 169.892C512.92 170.582 512.663 171.278 512.336 171.978C512.01 172.668 511.585 173.298 511.062 173.868C510.325 174.67 509.527 175.296 508.668 175.744C507.819 176.192 506.946 176.542 506.05 176.794L505.182 175.8C506.172 175.594 507.091 175.272 507.94 174.834C508.79 174.395 509.513 173.863 510.11 173.238C510.54 172.79 510.89 172.29 511.16 171.74C511.44 171.18 511.646 170.648 511.776 170.144C511.674 170.144 511.478 170.144 511.188 170.144C510.908 170.144 510.563 170.144 510.152 170.144C509.742 170.144 509.298 170.144 508.822 170.144C508.356 170.144 507.88 170.144 507.394 170.144C506.918 170.144 506.47 170.144 506.05 170.144C505.64 170.144 505.28 170.144 504.972 170.144C504.674 170.144 504.464 170.144 504.342 170.144C504.174 170.144 503.969 170.148 503.726 170.158C503.484 170.158 503.232 170.167 502.97 170.186V169.01C503.232 169.038 503.479 169.061 503.712 169.08C503.946 169.089 504.156 169.094 504.342 169.094C504.445 169.094 504.641 169.094 504.93 169.094C505.22 169.094 505.57 169.094 505.98 169.094C506.391 169.094 506.834 169.094 507.31 169.094C507.786 169.094 508.262 169.094 508.738 169.094C509.214 169.094 509.658 169.094 510.068 169.094C510.479 169.094 510.829 169.094 511.118 169.094C511.417 169.094 511.618 169.094 511.72 169.094C511.879 169.094 512.028 169.084 512.168 169.066C512.308 169.047 512.416 169.019 512.49 168.982L513.288 169.486ZM521.492 168.156C521.558 168.296 521.642 168.506 521.744 168.786C521.847 169.056 521.954 169.346 522.066 169.654C522.188 169.962 522.295 170.256 522.388 170.536C522.482 170.806 522.552 171.021 522.598 171.18L521.562 171.544C521.525 171.385 521.46 171.17 521.366 170.9C521.282 170.629 521.184 170.34 521.072 170.032C520.96 169.714 520.848 169.42 520.736 169.15C520.624 168.879 520.536 168.664 520.47 168.506L521.492 168.156ZM526.56 168.94C526.514 169.08 526.472 169.21 526.434 169.332C526.406 169.444 526.378 169.546 526.35 169.64C526.164 170.405 525.912 171.156 525.594 171.894C525.277 172.622 524.866 173.303 524.362 173.938C523.718 174.759 522.99 175.445 522.178 175.996C521.376 176.546 520.582 176.971 519.798 177.27L518.874 176.332C519.416 176.164 519.962 175.94 520.512 175.66C521.072 175.38 521.6 175.044 522.094 174.652C522.598 174.26 523.042 173.826 523.424 173.35C523.76 172.939 524.059 172.477 524.32 171.964C524.591 171.45 524.815 170.904 524.992 170.326C525.17 169.747 525.291 169.159 525.356 168.562L526.56 168.94ZM518.244 168.856C518.319 169.014 518.412 169.229 518.524 169.5C518.636 169.77 518.753 170.069 518.874 170.396C519.005 170.713 519.126 171.021 519.238 171.32C519.36 171.609 519.453 171.842 519.518 172.02L518.454 172.412C518.398 172.234 518.314 171.996 518.202 171.698C518.1 171.39 517.983 171.072 517.852 170.746C517.722 170.419 517.596 170.12 517.474 169.85C517.362 169.579 517.274 169.383 517.208 169.262L518.244 168.856ZM532.678 165.468C532.884 165.58 533.126 165.724 533.406 165.902C533.686 166.079 533.976 166.266 534.274 166.462C534.573 166.658 534.848 166.844 535.1 167.022C535.362 167.19 535.567 167.33 535.716 167.442L535.058 168.394C534.89 168.272 534.68 168.123 534.428 167.946C534.176 167.768 533.906 167.586 533.616 167.4C533.327 167.204 533.042 167.022 532.762 166.854C532.492 166.676 532.254 166.527 532.048 166.406L532.678 165.468ZM530.578 175.478C531.092 175.384 531.619 175.263 532.16 175.114C532.702 174.955 533.238 174.773 533.77 174.568C534.302 174.353 534.802 174.11 535.268 173.84C536.043 173.392 536.762 172.897 537.424 172.356C538.087 171.814 538.684 171.236 539.216 170.62C539.748 170.004 540.201 169.369 540.574 168.716L541.246 169.864C540.64 170.806 539.87 171.712 538.936 172.58C538.012 173.448 536.99 174.213 535.87 174.876C535.394 175.146 534.876 175.398 534.316 175.632C533.766 175.856 533.22 176.052 532.678 176.22C532.146 176.388 531.661 176.518 531.222 176.612L530.578 175.478ZM530.564 168.618C530.77 168.72 531.017 168.86 531.306 169.038C531.596 169.206 531.89 169.383 532.188 169.57C532.487 169.747 532.767 169.92 533.028 170.088C533.29 170.256 533.495 170.396 533.644 170.508L533 171.488C532.823 171.357 532.604 171.208 532.342 171.04C532.09 170.862 531.82 170.685 531.53 170.508C531.241 170.321 530.956 170.144 530.676 169.976C530.396 169.808 530.154 169.672 529.948 169.57L530.564 168.618ZM552.516 169.556C552.498 169.621 552.479 169.696 552.46 169.78C552.442 169.864 552.428 169.934 552.418 169.99C552.4 170.204 552.362 170.494 552.306 170.858C552.26 171.222 552.204 171.623 552.138 172.062C552.073 172.5 552.008 172.939 551.942 173.378C551.877 173.807 551.816 174.204 551.76 174.568C551.714 174.922 551.672 175.198 551.634 175.394H550.444C550.482 175.235 550.524 174.992 550.57 174.666C550.626 174.33 550.687 173.952 550.752 173.532C550.827 173.112 550.892 172.692 550.948 172.272C551.004 171.842 551.051 171.455 551.088 171.11C551.135 170.755 551.163 170.484 551.172 170.298C550.995 170.298 550.743 170.298 550.416 170.298C550.09 170.298 549.73 170.298 549.338 170.298C548.956 170.298 548.578 170.298 548.204 170.298C547.831 170.298 547.509 170.298 547.238 170.298C546.977 170.298 546.804 170.298 546.72 170.298C546.515 170.298 546.319 170.302 546.132 170.312C545.955 170.321 545.778 170.33 545.6 170.34V169.164C545.712 169.182 545.829 169.196 545.95 169.206C546.081 169.215 546.212 169.224 546.342 169.234C546.473 169.243 546.594 169.248 546.706 169.248C546.818 169.248 547.01 169.248 547.28 169.248C547.551 169.248 547.859 169.248 548.204 169.248C548.559 169.248 548.918 169.248 549.282 169.248C549.646 169.248 549.978 169.248 550.276 169.248C550.584 169.248 550.813 169.248 550.962 169.248C551.046 169.248 551.13 169.243 551.214 169.234C551.308 169.224 551.396 169.215 551.48 169.206C551.564 169.187 551.625 169.168 551.662 169.15L552.516 169.556ZM544.284 174.946C544.452 174.955 544.634 174.969 544.83 174.988C545.026 174.997 545.232 175.002 545.446 175.002C545.568 175.002 545.82 175.002 546.202 175.002C546.594 175.002 547.056 175.002 547.588 175.002C548.12 175.002 548.676 175.002 549.254 175.002C549.842 175.002 550.402 175.002 550.934 175.002C551.476 175.002 551.938 175.002 552.32 175.002C552.703 175.002 552.955 175.002 553.076 175.002C553.226 175.002 553.408 174.997 553.622 174.988C553.846 174.978 554.033 174.969 554.182 174.96V176.094C554.098 176.084 553.991 176.08 553.86 176.08C553.73 176.08 553.599 176.08 553.468 176.08C553.338 176.07 553.221 176.066 553.118 176.066C552.988 176.066 552.726 176.066 552.334 176.066C551.942 176.066 551.476 176.066 550.934 176.066C550.393 176.066 549.828 176.066 549.24 176.066C548.652 176.066 548.092 176.066 547.56 176.066C547.028 176.066 546.571 176.066 546.188 176.066C545.806 176.066 545.558 176.066 545.446 176.066C545.232 176.066 545.036 176.07 544.858 176.08C544.681 176.08 544.49 176.089 544.284 176.108V174.946ZM568.693 166.756C568.637 166.821 568.571 166.9 568.497 166.994C568.431 167.087 568.371 167.176 568.315 167.26C568.137 167.577 567.871 167.969 567.517 168.436C567.171 168.893 566.77 169.364 566.313 169.85C565.855 170.326 565.361 170.75 564.829 171.124L563.905 170.382C564.231 170.195 564.549 169.971 564.857 169.71C565.174 169.439 565.468 169.159 565.739 168.87C566.019 168.571 566.261 168.282 566.467 168.002C566.681 167.712 566.849 167.46 566.971 167.246C566.821 167.246 566.579 167.246 566.243 167.246C565.916 167.246 565.524 167.246 565.067 167.246C564.619 167.246 564.138 167.246 563.625 167.246C563.111 167.246 562.603 167.246 562.099 167.246C561.595 167.246 561.123 167.246 560.685 167.246C560.246 167.246 559.877 167.246 559.579 167.246C559.28 167.246 559.084 167.246 558.991 167.246C558.729 167.246 558.468 167.255 558.207 167.274C557.945 167.283 557.675 167.302 557.395 167.33V166.056C557.637 166.093 557.899 166.126 558.179 166.154C558.459 166.172 558.729 166.182 558.991 166.182C559.084 166.182 559.285 166.182 559.593 166.182C559.901 166.182 560.274 166.182 560.713 166.182C561.161 166.182 561.646 166.182 562.169 166.182C562.691 166.182 563.209 166.182 563.723 166.182C564.245 166.182 564.735 166.182 565.193 166.182C565.65 166.182 566.037 166.182 566.355 166.182C566.681 166.182 566.905 166.182 567.027 166.182C567.12 166.182 567.227 166.182 567.349 166.182C567.479 166.172 567.605 166.158 567.727 166.14C567.848 166.121 567.941 166.107 568.007 166.098L568.693 166.756ZM563.107 168.604C563.107 169.36 563.083 170.069 563.037 170.732C562.99 171.394 562.897 172.015 562.757 172.594C562.617 173.172 562.402 173.709 562.113 174.204C561.833 174.689 561.455 175.146 560.979 175.576C560.503 175.996 559.91 176.383 559.201 176.738L558.165 175.898C558.361 175.832 558.571 175.748 558.795 175.646C559.019 175.534 559.229 175.408 559.425 175.268C559.975 174.941 560.414 174.572 560.741 174.162C561.067 173.751 561.31 173.308 561.469 172.832C561.637 172.346 561.749 171.838 561.805 171.306C561.87 170.764 561.903 170.204 561.903 169.626C561.903 169.448 561.898 169.28 561.889 169.122C561.889 168.963 561.875 168.79 561.847 168.604H563.107ZM576.155 168.156C576.22 168.296 576.304 168.506 576.407 168.786C576.509 169.056 576.617 169.346 576.729 169.654C576.85 169.962 576.957 170.256 577.051 170.536C577.144 170.806 577.214 171.021 577.261 171.18L576.225 171.544C576.187 171.385 576.122 171.17 576.029 170.9C575.945 170.629 575.847 170.34 575.735 170.032C575.623 169.714 575.511 169.42 575.399 169.15C575.287 168.879 575.198 168.664 575.133 168.506L576.155 168.156ZM581.223 168.94C581.176 169.08 581.134 169.21 581.097 169.332C581.069 169.444 581.041 169.546 581.013 169.64C580.826 170.405 580.574 171.156 580.257 171.894C579.939 172.622 579.529 173.303 579.025 173.938C578.381 174.759 577.653 175.445 576.841 175.996C576.038 176.546 575.245 176.971 574.461 177.27L573.537 176.332C574.078 176.164 574.624 175.94 575.175 175.66C575.735 175.38 576.262 175.044 576.757 174.652C577.261 174.26 577.704 173.826 578.087 173.35C578.423 172.939 578.721 172.477 578.983 171.964C579.253 171.45 579.477 170.904 579.655 170.326C579.832 169.747 579.953 169.159 580.019 168.562L581.223 168.94ZM572.907 168.856C572.981 169.014 573.075 169.229 573.187 169.5C573.299 169.77 573.415 170.069 573.537 170.396C573.667 170.713 573.789 171.021 573.901 171.32C574.022 171.609 574.115 171.842 574.181 172.02L573.117 172.412C573.061 172.234 572.977 171.996 572.865 171.698C572.762 171.39 572.645 171.072 572.515 170.746C572.384 170.419 572.258 170.12 572.137 169.85C572.025 169.579 571.936 169.383 571.871 169.262L572.907 168.856ZM594.397 166.168C594.397 166.42 594.485 166.639 594.663 166.826C594.849 167.003 595.069 167.092 595.321 167.092C595.582 167.092 595.801 167.003 595.979 166.826C596.165 166.639 596.259 166.42 596.259 166.168C596.259 165.906 596.165 165.687 595.979 165.51C595.801 165.323 595.582 165.23 595.321 165.23C595.069 165.23 594.849 165.323 594.663 165.51C594.485 165.687 594.397 165.906 594.397 166.168ZM593.753 166.168C593.753 165.878 593.823 165.617 593.963 165.384C594.112 165.141 594.303 164.95 594.537 164.81C594.77 164.66 595.031 164.586 595.321 164.586C595.61 164.586 595.871 164.66 596.105 164.81C596.347 164.95 596.539 165.141 596.679 165.384C596.828 165.617 596.903 165.878 596.903 166.168C596.903 166.457 596.828 166.718 596.679 166.952C596.539 167.185 596.347 167.376 596.105 167.526C595.871 167.666 595.61 167.736 595.321 167.736C595.031 167.736 594.77 167.666 594.537 167.526C594.303 167.376 594.112 167.185 593.963 166.952C593.823 166.718 593.753 166.457 593.753 166.168ZM594.971 167.106C594.924 167.199 594.882 167.306 594.845 167.428C594.817 167.54 594.789 167.666 594.761 167.806C594.686 168.17 594.588 168.576 594.467 169.024C594.345 169.472 594.196 169.934 594.019 170.41C593.851 170.876 593.655 171.329 593.431 171.768C593.207 172.206 592.955 172.608 592.675 172.972C592.245 173.513 591.769 174.017 591.247 174.484C590.724 174.95 590.127 175.37 589.455 175.744C588.783 176.117 588.017 176.439 587.159 176.71L586.207 175.66C587.121 175.436 587.91 175.156 588.573 174.82C589.245 174.484 589.833 174.106 590.337 173.686C590.841 173.256 591.284 172.794 591.667 172.3C592.003 171.87 592.292 171.39 592.535 170.858C592.787 170.316 592.997 169.775 593.165 169.234C593.333 168.683 593.445 168.184 593.501 167.736C593.37 167.736 593.123 167.736 592.759 167.736C592.395 167.736 591.965 167.736 591.471 167.736C590.976 167.736 590.458 167.736 589.917 167.736C589.385 167.736 588.871 167.736 588.377 167.736C587.882 167.736 587.453 167.736 587.089 167.736C586.725 167.736 586.477 167.736 586.347 167.736C586.067 167.736 585.81 167.74 585.577 167.75C585.343 167.759 585.133 167.768 584.947 167.778V166.532C585.077 166.55 585.222 166.569 585.381 166.588C585.539 166.597 585.703 166.606 585.871 166.616C586.039 166.625 586.197 166.63 586.347 166.63C586.459 166.63 586.659 166.63 586.949 166.63C587.238 166.63 587.579 166.63 587.971 166.63C588.372 166.63 588.797 166.63 589.245 166.63C589.702 166.63 590.15 166.63 590.589 166.63C591.037 166.63 591.452 166.63 591.835 166.63C592.227 166.63 592.558 166.63 592.829 166.63C593.099 166.63 593.281 166.63 593.375 166.63C593.477 166.63 593.594 166.625 593.725 166.616C593.855 166.606 593.986 166.588 594.117 166.56L594.971 167.106Z" fill="black" fill-opacity="0.8"/>
</svg>
