<svg width="30" height="27" viewBox="0 0 30 27" fill="none" xmlns="http://www.w3.org/2000/svg">
<path d="M7.32337 17.7574C7.05782 17.4918 6.92505 17.1538 6.92505 16.7435C6.92505 16.3331 7.05782 15.9951 7.32337 15.7296L13.9861 9.06677C14.131 8.92193 14.2879 8.81909 14.4569 8.75826C14.6259 8.69839 14.8069 8.66846 15 8.66846C15.1932 8.66846 15.3805 8.70467 15.562 8.77709C15.7426 8.84951 15.8932 8.94607 16.0139 9.06677L22.6767 15.7296C22.9423 15.9951 23.075 16.3331 23.075 16.7435C23.075 17.1538 22.9423 17.4918 22.6767 17.7574C22.4112 18.0229 22.0732 18.1557 21.6628 18.1557C21.2524 18.1557 20.9145 18.0229 20.6489 17.7574L15 12.1085L9.35117 17.7574C9.08562 18.0229 8.74766 18.1557 8.33727 18.1557C7.92688 18.1557 7.58891 18.0229 7.32337 17.7574Z" fill="#616161"/>
</svg>
